<?xml version="1.0" encoding="utf-8"?><svg xmlns="http://www.w3.org/2000/svg" viewBox="0 0 511 511"><style type="text/css"> .st0{fill:#A58E68;} .st1{fill:#78811D;} .st2{fill:#6E6C25;} .st3{fill:#829615;} .st4{fill:#63582E;} .st5{fill:#8DAA0C;} .st6{fill:#97BF04;} .st7{fill:#594336;} </style><g><g><path class="st0" d="M390.8,343.1c0,0.2,0,0.2,0,0.4h0.2c0-0.2,0-0.4,0-0.6C391,342.9,390.8,342.9,390.8,343.1z"/><path class="st1" d="M413,291.9c-0.4-5.4,0.4-10.8-0.8-16.2c-0.8-3.3-0.8-6.8-2.1-10.2c-0.8-2.9-1.2-6-3.3-8.7 c-0.2-0.4-0.2-0.8-0.2-1.2c-0.2-1.7-0.8-3.3-1.7-5c-1.7-3.7-3.5-7.5-5.4-11.2c-1.7-3.3-4.4-6.2-6.4-9.5c-1-1.5-2.1-3.1-3.3-4.6 c-2.7-3.1-5.6-6.4-8.5-9.3c-2.1-2.1-5.2-3.7-6.8-6.2c-2.7-0.8-4.1-2.5-6-3.9c-3.3-2.5-7.1-4.8-10.6-6.8c-3.3-1.9-6.6-3.7-10.2-5.2 c-6.6-2.7-13.7-5.2-20.7-7.1c-1.5-0.4-3.1-0.4-4.6-0.8c-1.5-0.4-2.5-1.2-4.1-1.5c-1.5,0-3.3-0.2-4.6-0.8c-1.9-1-3.9-0.2-5.8-0.8 c-2.9-0.6-5.6-1.2-8.7-1.2c-1.2,0-2.5-0.6-3.7-0.6c-1.5,0-2.7,0.4-4.1,0.6c-0.4,0-1,0.2-1.2,0c-1.2-1-2.7-0.6-4.1-0.6 c-6,0.2-12-0.4-18,0.6c-3.1,0.6-6.8,0.2-9.7,0.8c-3.1,0.8-6.4,1.2-9.7,1.9c-4.6,0.8-9.1,2.1-13.5,3.5c-4.8,1.7-9.7,2.9-14.3,5 c-2.3,1.2-5,2.1-7.3,3.1c-3.5,1.7-6.8,3.5-10.2,5.2c-4.1,2.3-8.7,4.4-12.4,7.1c-3.7,2.7-8.7,4.6-11.2,8.5 c-1.9,0.6-2.5,2.3-3.9,3.1c-1.7,1-3.1,2.3-4.4,3.5c-2.5,2.3-5,4.6-5,7.7c7.7-5.6,15.1-11.2,22.8-16.8c1.9-1.2,3.7-2.5,5.6-3.7 c1.2-0.8,2.7-1.7,4.1-2.5c0.8-0.4,1.7-0.8,2.3-1.5c1.7-1.5,4.1-1.9,6-3.1c3.1-2.3,7.1-3.5,10.6-5.2c0.2,0,0.6,0,0.8,0 c0,0.2,0,0.6-0.2,0.6c-1.7,1-3.7,1.7-5.2,2.7c-3.3,2.3-6.2,5-10.2,6.8c-3.1,1.5-6,3.7-8.5,5.8c-2.3,1.9-5,3.5-7.7,5 c-0.2,0.2-0.6,0-1,0c0-0.4,0-0.6,0-1c-0.6,0.4-1.2,0.8-1.9,1.5c0.2,0.2,0.4,0.4,0.8,0.4c-0.2,0-0.4,0.2-0.8,0.2c0,0.4,0.2,0.8,0,1 c-1.5,1.5-3.1,2.9-4.6,4.4c-0.2,0.2-1,0.2-1.7,0.2c-0.2,0.2-0.4,0.4-0.6,0.6c0-0.2-0.2-0.4-0.2-0.6c-0.2,0-0.4,0-0.4,0 c-0.4,1.9-1.7,3.1-2.9,4.6c-1.2,1.5-3.7,2.3-3.9,4.1c0,0-0.4,0.2-0.8,0.2c-1.7-0.2-2.5,0.8-3.1,1.5c-1.9,2.9-5.4,4.8-7.5,7.7 c-2.7,3.3-6.6,6.2-10,9.3c-0.4,0.4-0.8,1-0.8,1.5c0,0.8-0.6,1.2-1.5,1.7c-0.6,0.2-1.5,0-2.9,0c3.3-1.2,3.3-3.7,5.2-5.4 c0.2-0.2,0-0.4,0-0.6c-1.7,0.4-2.9,1.2-3.5,2.5c-0.2,0.2-1,0.2-1.5,0.2c0-0.4-0.2-0.8,0-1.2c2.3-2.1,4.8-3.9,6.8-6.2 c1.7-1.5,2.9-3.1,4.4-4.8c0.2-0.2,0-0.4,0-0.6l-0.6-0.2c-0.4,0.6-0.6,1.5-1.2,1.7c-0.8,0.4-2.1,0.2-2.9,0.4c-0.4,0-0.6,0.4-1,0.6 c-3.3,3.7-7.3,7.1-11.4,10.2c-10.4,7.9-20.1,16.4-31.1,23.6c-1.5,1-2.5,2.5-4.6,3.1c-0.2,0-0.6,0.6-0.6,0.8c0.2,1.2-1,2.1-2.1,2.5 c-1.7,0.6-2.7,1.7-3.9,2.5c-1.5,0.8-2.9,1.9-4.4,2.5c-1.7,0.6-2.7,1.7-3.7,2.7c0,0,0.6,0.6,0.8,0.8c-0.8,1.2-2.7,0.8-3.7,1.7 c-1.5,1.5-3.9,2.1-4.4,4.1c0,0.2-1.2,0.4-1.7,0.8c-0.2,0.2-0.6,0.8-0.4,0.8c2.3,1.9,3.3,4.8,6.6,5.8c0.4,0.2,0.8,0.6,1,1 c0.8,1.9,2.9,2.1,4.8,2.1c3.5,0.2,6.6-1.2,9.3-2.5c5.4-2.5,11.2-4.4,16.4-7.1c3.9-0.2,6-2.7,8.9-4.1c2.7-1.2,4.8-3.5,7.3-4.8 c3.9-2.1,7.7-4.4,11-6.8c7.3-5.2,14.1-10.6,20.3-16.4c0.8-0.6,1.7-1.2,2.3-1.9c3.5-3.3,7.1-6.8,10.6-10.2c2.1-2.1,4.6-3.7,6.6-6 c1.5-1.7,3.5-2.7,4.8-4.4c2.9-3.5,7.1-6.2,10.4-9.3c2.7-2.7,6.6-4.4,10-6.4c3.7-2.7,7.7-5,12-7.1c2.9-1.5,5.8-2.9,8.9-4.4 s6.2-2.7,9.5-4.1c5.4-2.1,11-3.3,16.6-4.8c2.9-0.8,6-1,8.9-1.7c4.1-0.8,8.3-1.7,12.4-1.7c6.8-0.2,13.9-0.8,20.7,0.6 c2.3,0.4,5,0.2,7.3,0.8c1.9,0.6,3.7,0.2,5.4,0.8c4.1,1.7,8.9,2.5,13.3,3.7c9.1,2.7,17,6.6,24.3,11.6c4.8,3.1,9.3,6.6,13.1,10.8 c3.1,3.3,6,6.6,8.5,10.2c2.5,3.5,4.4,7.5,6.2,11.2c0.8,1.9,1.9,3.7,1.9,5.6c0.2,1.7,1,2.9,1.2,4.6c0,0.4,0.6,0.8,0.6,1.2 c-0.2,3.1,1.7,6,1,9.1c0,0.4-0.2,1,0,1.5c1.7,1.5,0.4,3.1,0.8,4.6c0.4,1.5,0.6,3.1,0.8,4.6c0.6,2.5-0.8,4.6-1,7.1 c0,2.7,0.4,5.4-0.8,8.1c-0.6,1.2,0,2.9-0.2,4.6c-0.2,1.5-0.6,3.1-0.8,4.6c-0.4,2.7-0.6,5.4-1,8.1c0,0.2-0.6,0.6-0.6,0.8 c-0.2,2.7-1.9,5-2.1,7.7c-0.2,1.5-0.8,2.7-1.5,4.1c-1,2.5-1.9,5.2-3.1,7.7c-1,2.7-2.5,5.2-3.7,7.9c-1.5,3.1-2.7,6.4-5.2,9.1 c-0.8,0.8-1.9,1.9-1.7,2.9c0.2,3.1-2.7,5.2-4.1,7.7c-1.7,2.7-3.9,5.4-5.8,8.3c-1.2,1.7-2.5,3.3-3.5,5.2c-1,1.5-1,3.5-3.7,3.9 c-0.4,0-0.4,0.8-0.8,1c-0.6,0.8-1,1.7-1.9,2.3c-3.3,2.7-5.8,5.8-8.5,8.7c-1.7,1.9-3.3,3.5-5,5.4c-0.4,0.4-0.6,0.8-0.6,1.2 c0,1.5-0.4,2.9-1.5,4.1c-0.8,1-0.6,1.2,1.5,1.2c0.8,0,1.5,1.2,0.8,1.9c-1,1-2.1,2.1-3.1,3.1c-0.4,0.4-0.4,1.2-0.2,1.7 c0.4,0.6,1,0.2,1.9,0c0.8-0.2,1.9-0.2,2.9-0.4c0.4,0,1.2-0.2,1.2-0.4c0.4-1.7,1.7-0.6,2.9-0.8c-0.8,0.6-1.2,1.2-1.9,1.9 c3.5,0.8,6-0.6,7.9-2.3c5.4-4.1,10.4-8.5,15.6-12.6c1.7-1.2,3.3-2.7,4.1-4.1c1.5-2.3,2.9-4.6,4.6-6.8c1.9-2.5,3.9-4.8,5.2-7.5 c0.2-0.6,1-1.2,1.7-1.9c0.6-0.6,1.7-1,2.1-1.7c4.1-5.6,8.5-11.2,11.2-17.2c0.6-1.2,2.3-2.3,2.1-3.5c-0.2-1.7,1.5-2.9,1.9-4.4 c0.4-1.2,1.5-2.5,2.5-4.6c0.2,2.9-1.2,4.8-1.5,6.8s-2.1,4.1-0.4,6.8c0.2-2.1,1.2-3.5,2.5-4.8c1-1,1.7-2.5,2.3-3.7 c0.8-1.2,1.5-2.5,2.1-3.7c0.4,1.2,0.2,2.5-0.4,3.5c-1.9,2.7-2.9,5.8-5.4,8.5c-0.4,0.4-0.6,1.2-0.8,1.9c-0.4,0.8-0.6,2.1-1.2,2.7 c-1.9,1.9-1.5,3.7-1.2,6.2c1.2-1,2.1-1.7,2.5-2.5c2.5-3.5,4.8-7.3,7.3-11c1.7-2.7,3.5-5.4,5-8.1c1-2.1,1.7-4.1,3.1-6 c-0.2-3.1,2.7-5.8,2.7-8.9c3.1-5,3.3-10.6,5.2-15.8c0.8-2.7,0.6-5.6,1-8.5c0-0.4-0.2-1,0-1.5c1.7-1.7,0-3.7,1-5.2 c1.2-1.9,0.4-3.7,0.6-5.8c0.2-0.8-0.2-1.9,0.4-2.7c0.4-0.6,0.8-1,0-1.7C413,293.3,413.2,292.5,413,291.9z M81,297.5 c1.9-1.7,1.9-1.7,3.7-1.9C83.7,296.2,83.5,297.5,81,297.5z M101.8,289.4c0.2,0,0.4-0.2,0.6-0.2c0.2,0,0.2,0.2,0.4,0.2 C102.4,289.6,102.2,289.6,101.8,289.4z M103.8,283.6c-3.5,1.7-5.8,4.1-8.7,6.2c-2.1,1.5-4.1,2.7-6.2,4.1c-0.2,0.2-0.8,0-1.5,0 c1.2-1.2,2.5-2.3,3.5-3.3c-0.6,0-1.2,0-1.9,0c0.4-0.2,0.8-0.4,1-0.6c0.2,0.2,0.4,0.4,0.6,0.6c1.9-0.6,2.9-1.5,4.1-2.7 c2.5-2.5,5.8-4.1,9.1-5.6C104.2,282.5,104.2,283.4,103.8,283.6z M105.9,281.3c-0.2,0-0.2-0.2-0.4-0.2c0.2-0.2,0.4-0.2,0.2,0 C106.3,281.1,106.1,281.1,105.9,281.3z M106.3,279.6c0.2,0,0.4-0.2,0.6-0.2c0.2,0,0.2,0.2,0.4,0.2 C106.7,279.8,106.7,279.8,106.3,279.6z M141.6,254.1c0.2,0.4,0.4,0.4,0,0.6C141.4,254.5,141.4,254.5,141.6,254.1z M139.1,256.4 c-0.2,0.2-0.2,0.4-0.4,0.4c0,0-0.2,0-0.2-0.2C138.7,256.6,138.9,256.4,139.1,256.4z M138,257.6c-0.2-0.4-0.2-0.4,0.6-0.6l0,0 C138.3,257.4,138,257.4,138,257.6z M138.9,257L138.9,257L138.9,257L138.9,257z M142.2,260.3c-0.2,0-0.4-0.2-0.8-0.2 c0.4-0.4,0.8-0.8,1.2-1.2c0.2,0.2,0.2,0.4,0.6,0.8C142.8,259.9,142.6,260.3,142.2,260.3z M161.3,243.1c-0.2-0.4-0.4-0.4,0-0.6 c0.2,0.2,0.2,0.2,0.4,0.4C161.5,242.9,161.5,242.9,161.3,243.1z M168.5,236.9c-0.2,0.2-0.2,0.4-0.4,0.4c0,0-0.2,0-0.2-0.2 C168.1,237.1,168.3,236.9,168.5,236.9z M167.5,238.2c-0.2-0.4-0.2-0.4,0.6-0.6l0,0C167.7,237.9,167.7,237.9,167.5,238.2z M168.5,237.5L168.5,237.5L168.5,237.5L168.5,237.5z M195.3,216.2c-0.4,0.8-0.8,1.2-1,1.7l-0.2-0.2 C194,217.2,194.9,216.6,195.3,216.2z M190.9,219.9c-0.2,0-0.4-0.2-0.6-0.2c0.4-0.2,0.4-0.2,0.8,0 C191.1,219.7,191.1,219.9,190.9,219.9z M193.4,218.7c-0.2-0.4-0.2-0.4,0.6-0.6l0,0C193.6,218.5,193.6,218.5,193.4,218.7z M194.9,218c-0.2,0-0.4,0-0.6,0C195.7,217,196.1,217.8,194.9,218z M206.1,210.2c-0.2-0.4-0.2-0.4,0.2-0.6 C206.3,210,206.1,210.2,206.1,210.2z M207.1,209.1c1-1.5,2.3-2.7,3.5-3.7c0.2,0,0.6,0,0.8,0s0.4,0.4,0.4,0.6 C210.8,207.5,209.2,208.7,207.1,209.1z M222.5,203.3c-0.2,0-0.6-0.6-0.6-0.6c0.2-0.2,0.6-0.6,1-0.6c0.2,0,0.6,0.4,1.2,0.8 C223.3,203.1,222.9,203.3,222.5,203.3z M345,401.8c0.4-2.3,1.7-2.9,3.7-3.1C347.7,399.5,346.7,400.3,345,401.8z M355.6,390.2 c0,0.2-0.2,0.4-0.2,0.6l-0.2-0.2C355.2,390.4,355.4,390.2,355.6,390.2z M351,395.8c-0.2,0-0.4-0.2-0.4-0.2 c0.8-1.2,1.5-2.5,2.3-3.5c0.4-0.6,1.2-0.8,1.7-1.5c0.2,0,0.2,0.2,0.4,0.2c-0.4,0.8-0.8,1.2-1,1.7 C352.1,395.3,351.9,395.8,351,395.8z M355.4,390.8L355.4,390.8L355.4,390.8L355.4,390.8z M356.6,388.9c0.6-2.3,2.1-3.9,3.9-5.4 C360.4,385.2,359.5,387.3,356.6,388.9z M360.8,383.5c0.2-0.2,0.2-0.2,0.4-0.4c0.8-1.7,1.9-3.3,3.1-5.2 C364.9,380.4,364.5,381,360.8,383.5z M377.8,361.5c0,0.2-0.2,0.4-0.2,0.6l-0.2-0.2C377.6,361.8,377.8,361.8,377.8,361.5z M375.7,364c0-0.2-0.2-0.4-0.2-0.6c0.4-0.6,1-1,1.5-1.5c0.2,0,0.2,0.2,0.4,0.2c-0.4,0.8-0.8,1.2-1,1.7 C376.3,364,375.9,364,375.7,364z M377.8,362.2L377.8,362.2L377.8,362.2L377.8,362.2z M391.7,342.9c0,0.2-0.4,0.4-0.6,0.4 c-0.2,1.5,0.2,2.3-0.8,3.1c-0.2,0.2-0.6,0.2-1,0.4c0-0.2-0.2-0.4-0.2-0.6c-0.2-1.2,1-1.9,1.7-2.7c0-0.2,0.2-0.2,0.2-0.2 c0-0.4,0.2-0.8,0.4-1.2c-0.2,0.4-0.2,0.6-0.2,1C391.5,342.3,391.7,342.5,391.7,342.9z M391.9,339.8c-0.4-0.6-0.2-0.6,0.2-1.2 c0,0.2,0.2,0.4,0.4,0.8C392.5,339.6,392.3,339.8,391.9,339.8z M406.6,269.7c0,0.2,0.2,0.6,0.2,0.8c0,0,0,0.2-0.2,0.2 c-0.4-0.4-0.6-0.6-0.6-1C406,269.7,406.4,269.7,406.6,269.7z M408.5,280c-1.5-1.5-0.2-2.9-1.2-4.4c-0.6-1-0.6-2.5-0.6-3.7 C408.7,274.2,408.9,277.1,408.5,280z"/><path class="st2" d="M335.1,355.1c-0.2-1.7,1.7-2.5,2.3-3.7c0.6-1.5,1.7-2.7,2.5-4.1c2.1-3.9,4.8-7.7,6.2-11.6 c2.1-5.2,5.4-10.2,5.6-15.8c1.7-2.9,1.9-6.2,2.7-9.1c0.4-1.7,0-3.3,0.8-4.6c1-1.5,0.2-2.9,0.8-4.4c0.8-1.5,0.8-3.1,0.8-4.6 c0-1.7,0-3.5,0-5.2h0.2c-0.4-4.8-0.8-9.5-1-14.3c0-0.4,0-0.8-0.2-1c-1.2-1.7-1-3.5-1.7-5.4c-1-2.5-1.5-5.2-2.5-7.7 c-1.7-3.9-3.9-7.5-6.2-11.2c-1.7-2.9-3.7-5.6-6.2-8.1c-3.3-3.5-7.5-6.4-11.4-9.5c-1.5-1.2-3.3-2.1-5.2-2.9 c-3.5-1.7-7.3-3.1-11-4.6c-2.3-0.8-4.8-1.9-7.3-2.3c-2.9-0.4-5.4-1.7-8.5-1.9c-2.3-0.2-4.6-0.8-7.1-1c-4.4-0.2-8.7,0-13.1,0 c-0.8,0-1.5-0.2-2.3,0c-3.3,1-7.3,0.6-10.6,2.1c-7.7,0.2-13.7,3.7-20.7,5.6c-4.6,2.9-10.2,4.4-14.3,7.5c-1.9,1.5-4.6,2.3-6.4,3.7 c-2.1,1.5-4.1,2.7-6.2,4.1c-7.1,4.8-12.6,10.8-18.9,16.2c-1.5,1.2-3.3,2.7-4.4,4.1c-2.1,2.9-4.8,5.2-7.5,7.7 c-2.7,2.3-4.4,5.2-7.7,6.8c-2.5,3.5-6.2,6.2-9.7,9.1c-1.9,1.5-3.9,2.7-5.2,4.6c-0.4,0.8-1.5,1.7-2.5,1.9c-1.5,0.4-2.3,1.2-3.3,2.1 c-3.9,2.9-8.1,5.8-12,8.7c-0.2,0.2-0.4,0.4-0.6,0.4c-3.9,1.9-7.3,4.4-11,6.4c-3.1,1.7-5.8,3.5-8.9,5c-4.1,2.1-8.5,4.1-12.6,6.4 c-5.8,3.3-12,6.2-17.8,9.5c-0.6,0.4-1.2,0.6-1.9,0.6c-3.3,0.2-4.8,1.5-6,3.9c-0.8,1.7-1.2,2.9,0.4,4.4c0.4,0.4,0.8,1,0.6,1.5 c-0.4,1.5,0.6,2.3,1.9,3.3c1.5,1,2.9,2.1,4.1,3.3c1.9,2.1,4.4,2.3,7.1,1.9c1,0,2.1-0.2,2.7-0.8c1.5-0.8,3.1-1,4.8-1.2 c2.7-0.2,5.2-1,7.5-1.9c5.2-1.9,10.2-3.7,15.1-5.8c1-0.4,2.1-1,3.1-1.5c5-2.5,10-5,14.5-7.9c1.5-0.8,3.3-1.2,4.6-2.3 c4.6-3.3,9.7-6,14.3-9.1c3.7-2.5,7.3-5,10.8-7.7c5-3.7,9.7-7.7,14.5-11.2c1.5-1,1.9-2.7,3.9-3.3c2.5-3.5,6.4-6,9.3-9.1 c1.7-1.9,4.4-3.5,5.8-5.4c1.5-1.9,3.5-3.3,5.2-5.2c2.5-2.7,5.2-5.2,7.9-7.7c2.1-1.9,4.6-3.5,6.2-5.6c1.2-1.5,2.5-2.5,3.9-3.5 c1.5-1.2,2.7-2.7,4.6-3.3c1.9-0.6,2.9-1.9,4.1-2.9c4.4-3.1,9.7-5.2,14.9-7.5c5.8-2.5,12.2-3.9,18.9-5c5.2-0.8,10.4,0.6,15.6,0.6 c0.2,0,0.2,0.2,0.4,0.2c4.8,1.2,9.1,3.1,13.3,5.4c3.5,1.9,6.2,4.1,8.9,6.4c1.7,1.2,2.3,3.1,3.7,4.8c1.5,1.7,1.7,3.5,2.7,5 c1.2,1.7,0.8,3.7,2.5,5.2c1,4.1,2.5,8.3,2.5,12.4c0.2,6,1,12.2-0.6,18.2c-0.8,2.7-2.1,5.4-2.1,8.5l-0.2,0.2 c-0.6,1.9-1.7,3.7-2.1,5.6c-1.2,5-3.5,9.7-6,14.5c-2.5,4.6-5,9.3-8.3,13.7c-1.9,2.5-2.7,5.4-5,7.9c-3.5,3.9-6.2,8.1-9.7,11.8 c-2.7,3.1-5.4,6.2-8.3,9.1c-1.5,1.7-3.3,3.1-5,4.6c-1.5,1.5-2.9,3.1-4.4,4.6c-1.5,1.2-3.1,2.7-4.6,3.9 c-5.2,4.4-10.6,8.7-15.8,13.1c-1.7,1.5-3.9,2.7-5.2,4.1c-1,1.5-2.3,2.5-4.1,3.3c-1.2,0.6-2.3,1.9-3.3,2.7c-0.4,0.4-0.6,0.8-1,1 c-1.2,0.8-2.7,1.2-3.7,2.3c-0.8,1-2.1,1.9-2.9,2.7c-1.7,1.7-3.5,3.3-6.2,4.1c-1.5,0.4-2.9,1-3.1,2.1c-0.4,1.5-2.3,2.9-0.2,4.4 c-0.2,1.5,1.5,2.5,0.8,3.9c-0.6,1.2,1.5,0.8,1.9,1.5c0.2,0.4,0.4,0.8,0.8,1c3.1,0,6.2,0,9.3,0c1.7-1.2,3.9-0.6,5.8-1.7 c1.7-1,4.1-1.2,6-2.1c4.6-1.9,8.9-4.1,13.1-6.4c6.8-3.9,13.3-8.3,19.5-12.6c2.7-1.9,5.2-3.7,7.7-6c2.3-1.9,4.6-3.7,6.6-5.8 c1.5-1.5,3.9-2.5,5-3.9c1.9-3.1,5.4-5.2,7.9-7.9c3.3-3.9,7.1-7.5,10.4-11.4c2.3-2.7,4.6-5.4,6.6-8.3 C328.8,363.6,331.9,359.5,335.1,355.1z M167.7,307.2c-0.2,0.2-0.2,0.2-0.4,0.4c0,0,0,0-0.2,0C167.3,307.4,167.5,307.4,167.7,307.2 z M162.1,312c-0.2-0.4-0.2-0.4,0.6-0.6C162.5,311.8,162.3,311.8,162.1,312z M167.5,307.8L167.5,307.8 C167.9,307.6,167.9,307.6,167.5,307.8z M277.6,235.5c-0.2-0.2-0.2-0.2-0.4-0.4c0.2,0,0.2-0.2,0.4-0.2 C277.8,235,278,235,277.6,235.5z M281.8,234c1.7,0,3.3,0,5,0C285.3,235,283.4,234.6,281.8,234z M295,235.5c-1.2,0-3.3,0-5.6-0.2 c-0.2,0-0.6-0.4-0.6-0.6c0-0.2,0.4-0.6,0.6-0.6c2.3,0.2,4.4,0.6,6.6,1c0,0.2,0,0.2-0.2,0.4c2.7-0.2,5.2,0,7.7,2.5 C300.4,236.9,298.1,236.3,295,235.5z M314.7,242.9c0-0.2,0.4-0.4,0.6-0.4c0.4,0.4,0.8,0.8,1.2,1.2c-0.2,0-0.4,0-0.6,0 C314.9,243.3,314.9,243.1,314.7,242.9z M316.6,244l0.2-0.2c0.2,0.2,0.2,0.2,0.4,0.4C317,244.2,316.8,244,316.6,244z"/><path class="st3" d="M441.9,240.6c0-2.1-1-4.1-1.5-6.2c-0.4-1.7-1.7-3.1-2.1-4.8c-1.2-4.1-2.7-8.3-4.8-12.4c-0.6-1-1-2.3-1.5-3.3 c0-0.2,0.2-0.6,0.4-0.8c0.2,0.2,0.4,0.2,0.6,0.4c0.8,0.4,1.9,0.2,1.7,1.5c0,0.8,0.8,1,1.7,0.6c0.8-0.6,1.5-1,0.4-1.9 c-1-1-1.7-2.5-2.3-3.7c-0.4-0.6-0.6-1.2-0.8-1.9c-0.2-0.4-0.2-1.2,0.8-1.2c0.4,0,0.6,0.6,0.8,0.8c0.2,0.6,0.2,1.5,0.6,1.9 c1.5,1.5,2.7,3.1,3.1,5c0,0.4,0.8,0.8,1.5,1.2c0.2,0.2,0.6,0,0.8,0c0.2,0,0.4-0.4,0.4-0.6c0-0.2-0.4-0.6-0.6-0.8 c-1-1.5-2.1-3.1-3.1-4.6c1-2.9-2.7-4.8-2.7-7.5c-2.7-2.3-3.9-5.2-6.2-7.7s-4.4-5-6.6-7.3c-1.9-1.9-4.4-3.3-6-5.4 c-0.4-0.4-1.9,0-1.7-1.2c0-0.2-1.2-0.6-1.9-1c-0.6-0.4-1.2-1-1.9-1.5c-2.3-1.7-4.6-3.3-6.8-4.8c-4.8-3.1-10-6-15.1-8.7 c-3.5-1.9-7.1-3.9-11-5.4c-7.3-2.7-14.3-6-22.2-7.9c-2.5-0.6-5-1.5-7.3-2.3c-2.5-1-5.6-0.8-7.7-2.3c-5.6-0.6-11-1.9-16.4-2.7 c-1-0.2-2.1-0.6-3.1-0.6c-1.2-0.2-2.5,0.2-3.5-0.2c-2.7-0.8-5.6-0.8-8.3-1.2c-2.1-0.4-4.1,0.2-6.4-0.6c-1.7-0.6-3.7,0-5.8-0.2 c-1.9-0.2-3.7-0.6-5.4-0.6c-5.6,0.2-11.4-0.4-17,0.6c-3.9,0.6-8.1,0.2-12.2,0.6c-3.5,0.4-7.1,1.2-10.8,0.8c-0.4,0-1,0.2-1.7,0.4 c-2.1,0.4-4.4,0.8-6.2,1.7c-4.4-0.2-8.3,1.2-12.2,2.1c-3.7,0.8-7.5,1.7-11,2.9c-4.6,1.5-9.1,2.3-13.5,4.1 c-3.9,1.7-8.5,2.7-12.4,4.4c-2.3,1-4.6,2.1-6.8,2.9c-2.3,1-4.8,1.9-6.6,3.3c-2.3,1.5-4.8,2.1-7.3,3.3c-2.5,1.2-4.4,3.1-7.5,3.7 c-4.8,3.3-10,6-14.9,8.9c-2.5,1.5-5,3.3-7.3,5c-2.5,1.9-5.2,3.5-7.5,5.2c-5.2,3.9-10.8,7.9-15.3,12.4c-3.3,3.3-7.3,6.2-11,9.3 c-0.6,0.6-1.7,1-2.3,1.7c-3.7,4.4-8.5,8.1-12.4,12.4c-1.9,2.1-4.4,3.7-6.2,5.6c-3.1,3.1-5.8,6.4-8.9,9.7 c-4.6,4.8-9.1,9.3-13.5,14.1c-1.7,1.7-1.5,3.3,0.2,5.4c0.8,1,1.5,2.1,1.5,3.3c0,1.7,2.1,2.9,4.1,2.7c0.4,0,0.6-0.4,1.2,0 c4.4,2.5,7.3,2.3,11.4-0.6c0.6-0.4,1.7-0.8,2.5-1.2c0.8-0.6,1.2-1.5,1.9-2.1c1-0.8,1.9-1.5,3.3-2.1c2.1-0.8,3.9-2.3,5.6-3.5 c3.9-3.1,8.1-6,11.4-9.5c1.5-1.7,3.7-2.7,5.2-4.4c1.5-1.5,3.1-2.9,4.8-4.4c6.2-5,12-10,17.6-15.1c3.5-3.3,7.7-6.2,11.4-9.5 c7.7-6.4,15.8-12.6,24.7-18c4.8-2.9,9.5-6,14.7-8.5c5-2.5,9.7-5,14.9-7.5c3.3-1.7,7.1-2.9,10.8-4.1c6.2-2.3,12.4-4.1,18.9-5.8 c2.5-0.6,5-1.5,7.5-2.1c4.6-0.8,9.1-1.5,13.7-2.1c1-0.2,1.9-0.6,2.7-0.6c2.5-0.2,5.2,0,7.7-0.6c2.1-0.4,4.4,0,6.6-0.2 s4.6-0.6,6.8-0.6c3.9-0.2,8.1,0.2,12,0c4.1-0.2,8.1,1,12.2,0.8c1.7-0.2,3.5-0.4,5.6,0.6c1.5,0.6,3.5,0.2,5.4,0.6 c2.5,0.6,5.2,1.2,7.7,1.5c4.8,0.2,8.9,1.7,13.3,2.7c3.7,0.8,7.1,2.3,11,3.1c3.3,0.6,6.4,2.1,9.3,3.3c2.7,1.2,5.6,2.3,8.5,3.5 c2.9,1.2,5.4,2.7,8.1,4.1c3.9,2.3,8.3,4.4,11.8,7.1c5.2,3.9,10.8,7.9,15.3,12.4c3.1,3.1,6.6,6.2,9.3,9.5c2.9,3.5,6,7.1,8.5,10.8 c2.3,3.3,4.6,6.6,6,10.2c1.5,3.3,3.7,6.4,5.2,10c0.4,1,0.8,2.9,3.7,2.7c0.8,0,1.9,1.2,2.5,2.1c1.2,1.7,1.5,3.5,1.9,5.4 c0,0.2,0.2,0.6,0.6,0.8c0.4,0,0.8,0,1.2-0.2c2.1-1.5,2.7-3.3,2.7-5.4c0-1.7,0.2-1.7,0.4-10c2.3,7.7,2.3,6.2,2.3,5 C442.5,243.5,441.9,242.1,441.9,240.6z M266.6,152.9c0.2-0.2,0.2-0.4,0.4-0.6c0.6,0.2,0.8,0.2,1.2,0.4 C267.5,153.1,267.2,153.1,266.6,152.9z M296.9,153.1c-2.9-0.2-5.8,0.6-8.5-0.6c-0.2,0-0.6,0.6-0.8,0.6c-0.4,0-0.8-0.2-1.5-0.4 c0.2-0.2,0.6-0.8,0.8-0.8c4.1,0.2,8.3-0.6,12.4,0.6c1.9,0.6,3.9,0,6,0c0,0.2,0,0.4,0,0.6C302.7,153.1,299.8,153.3,296.9,153.1z M306.9,153.5c0.2-0.2,0.2-0.4,0.4-0.6c0.6,0.2,0.8,0.2,1.2,0.4C307.7,153.8,307.7,153.8,306.9,153.5z M310.6,154 c-0.2-0.2-0.6-0.4-1-0.6c0.4,0,0.8-0.2,1.2-0.2c0.4,0,0.8,0.2,1.2,0.4C311.4,153.8,311.2,153.8,310.6,154z M435.2,229.2 c-0.6-1.5-1.7-2.7-1.7-4.4c-0.4-0.2-0.4-0.2-0.6-0.4c0.6-0.2,0.6,0,0.8,0.4c-0.2,0-0.2,0-0.2,0c1.5,0.6,1.7,1.5,2.1,2.5 c0.2,0.6,0.4,1.5,1.5,4.1c-0.4,0-0.8-0.2-0.8-0.4C435.6,230.7,435.4,229.9,435.2,229.2z M438.7,243.1c-0.2,0-0.2,0-0.4,0 c0-0.8,0-1.9,0-2.7c0.2,0,0.2,0,0.4,0C438.7,241.3,438.7,242.1,438.7,243.1z M439.2,237.9c-1-1-0.6-2.3-1.7-3.3 c0,0,0.4-0.6,0.6-0.6l0,0c0.4,0.8,0.6,1.7,1,2.7C439.2,237.1,439.2,237.5,439.2,237.9z M438.9,234.2L438.9,234.2 c0.2,0.2,0.2,0.4,0.2,0.6C438.9,234.6,438.9,234.4,438.9,234.2z"/><path class="st4" d="M235.5,388.7c2.7-1.7,5-3.7,7.3-5.6c2.3-1.9,4.1-3.9,6.8-5.4c0.4-0.2,1-0.6,1.2-1c3.1-3.7,7.1-7.1,10.8-10.4 s7.3-6.8,10.6-10.6c1.9-2.1,3.9-3.7,5.4-6c2.5-3.7,5.8-6.8,8.5-10.6c2.7-3.7,5.8-7.5,8.1-11.4c2.5-4.1,4.8-8.5,6.6-12.9 c2.5-6,3.9-10.6,3.7-17c0-1.2,0-2.3,0-3.5c0.2-3.3,0-6.4-1.9-9.5c-0.8-1.5-0.2-3.1-1-4.1c-1.9-2.3-4.4-4.4-4.6-7.3 c-2.7-2.5-4.8-5.2-8.9-6.4c-2.7-0.8-5.2-1.5-7.9-1.9c-1.2-0.2-2.5-1.7-3.9-0.6c-1,0.6-1.9,0.4-2.9,0.4c-3.3,0-3.9,0.4-7.5,1.9 c-1.9,0.8-3.7,1.9-6.2,1.7c-1,0-2.3,0.6-3.3,1c-4.8,2.1-8.3,5-11.8,7.9c-3.3,2.7-6,5.6-8.7,8.7c-2.1,2.3-2.9,5.4-6.2,7.1 c-4.6,5.8-9.5,11.2-14.7,16.6c-3.5,3.5-7.5,6.8-11,10.4c-2.1,2.1-4.6,3.7-6.8,5.4c-2.3,1.9-4.1,3.7-6.8,5.4 c-5,3.1-9.1,7.3-14.1,10.4c-4.6,2.7-8.5,6-12.6,9.1c-0.4,0.4-0.8,0.8-1.2,1c-3.5,1.7-6.8,3.7-9.7,5.8c-5,3.5-11,6.2-15.8,10 c-1.7,1.2-3.7,2.1-5.4,3.1c-2.9,1.7-6.2,2.9-8.3,5.6c-0.2,0.4-1.2,0.8-1.9,0.6c-2.1-0.4-2.7,1-2.9,1.7c-0.6,2.1-0.4,3.9,1.7,5.6 c0.8,0.6,1.9,1,1.9,2.3c0,2.3,1.9,3.1,4.1,3.7c0.4,0.2,0.8,0.4,1,0.6c1.9,3.1,8.7,3.7,12,1.5c1.5-1,2.9-2.3,4.8-2.9 c6-1.9,11.4-4.6,16.6-7.5c5-2.9,10.4-5.6,15.1-8.7c3.7-2.5,7.9-4.6,11.4-7.1c5.6-3.9,11-8.1,16.4-12c0.8-0.6,1.5-1.5,2.3-1.7 c2.3-0.6,3.7-2.1,4.8-3.3c2.3-2.7,5.6-4.8,8.3-7.1c3.5-2.9,7.1-5.8,10.4-8.9c1.7-1.7,3.7-2.9,5-4.6c2.7-3.7,6.2-6.8,9.1-10.4 c4.6-5.6,8.5-11.2,12.9-16.8c1.7-2.1,2.9-4.4,4.6-6.6c1.5-2.3,3.5-4.4,5.6-6.2c2.1-2.1,3.3-4.8,7.3-5.4c0.6,0,1.5-0.8,1.9-0.6 c1,0.2,2.3,0.6,2.7,1.5c1.5,1.9,2.9,3.7,3.1,6c0.2,2.5,1,5.2-1.5,7.5c-0.2,0.2,0,0.8-0.2,1.2c-1.2,2.7-1.2,5.8-3.3,8.3 c-0.4,0.4-0.4,1.2-0.2,1.7c0.4,0.4,0.6,0.6,0.2,1.2c-1,1.5-1.5,3.1-2.7,5.4c-0.2-1.5-0.4-2.1-0.6-3.1c-0.6,0.8-1.2,1.2-1.5,1.9 c-1.7,2.7-3.9,5.2-5.6,7.9c-1.5,2.3-3.5,4.4-5.2,6.6c-1.7,2.3-3.5,4.4-5.4,6.6c-2.3,2.7-4.6,5.4-7.3,7.7c-3.1,2.7-5.8,5.8-8.9,8.7 c-2.9,2.7-6.2,5.4-8.9,8.1c-1.2,1.2-2.7,2.1-4.1,3.3c-1.5,1.2-2.9,2.3-4.4,3.5c-1.5,1-3.1,2.1-3.9,3.3c-1,1.5-2.9,2.1-4.1,3.1 c-6.2,4.8-12.4,9.3-18.9,14.1c-2.1,1.5-3.9,3.1-6.2,4.1c-1.9,0.8-3.1,2.1-4.6,3.1s-3.3,1.9-4.6,2.9c-2.5,2.1-5,3.5-8.3,4.8 c-3.7,1.5-4.4,3.3-3.3,6.2c0.2,0.6,0.6,1.5,0.2,1.7c-1.2,0.8-0.6,1.5,0,2.3c0.6,0.8,1.5,1.2,2.3,1.7c1.9,1.2,4.4,1,6.2,1.9 c0.6,0.2,1.7-0.4,2.7-0.4c2.9,0,6,0,8.9,0c3.3,0,6-0.6,8.9-1.9c2.5-1,4.4-2.7,6.6-3.7c7.9-3.5,14.3-8.3,21.4-12.6 C228.1,394.3,231.4,391.2,235.5,388.7z M269.1,270.7c-1.7,0.4-3.3,0.6-4.8,0.8c1-3.3,1-3.3,4.8-3.5 C269.1,269.1,269.1,269.9,269.1,270.7z"/><path class="st5" d="M73.3,202.7c0.2,1-0.6,2.1,0.6,2.9c1,0.6,2.3,1,3.3,1.2c1.9,0.2,3.9,0.2,5.8,0c0.4,0,0.6-0.6,1-0.8 c3.1-2.9,6-6,9.3-8.7c4.8-3.9,9.7-7.7,14.9-11.6c1-0.8,2.7-1.5,3.7-2.3c1.2-1,2.1-2.5,3.5-3.3c2.3-1.7,5-2.9,7.5-4.6 c3.5-2.3,6.6-4.8,10.2-7.1c0.6-0.4,1-0.8,1.7-1.2c2.3-1,4.6-2.3,6.6-3.7c2.1-1.5,4.6-2.7,6.8-3.9c3.1-1.7,5.8-3.3,8.9-5 c3.7-2.1,8.1-3.5,11.8-5.6c3.7-2.3,7.9-3.7,12-5.4c2.7-1,5-2.7,8.1-3.1c2.9-2.3,7.3-2.9,10.6-4.4c2.5-1.2,5.6-1.7,8.3-2.7 c2.7-1,5.8-1.5,8.5-2.3c3.7-1,7.7-1.9,11.4-2.9c3.3-0.8,6.6-1.5,10-2.1c2.5-0.4,5.4-0.4,7.7-1.5c1-0.4,1.9-0.4,2.9-0.6 c3.5-0.2,7.3-0.4,10.8-0.6c0.8,0,1.5-0.6,2.3-0.6c0.6,0,1.7,0.6,2.1,0.4c2.1-0.8,4.4-0.4,6.4-0.4c2.5,0.2,4.6-0.6,6.8-0.8 c8.5-0.4,17,1,25.5,0.8c0.4,0,0.8,0,1.2,0.2c2.7,0.8,5.6,0.8,8.3,1.2c1.9,0.2,3.5,0,5.4,0.6c1.9,0.6,4.1,0.4,6.2,0.8 c1.9,0.2,3.9,0.4,5.8,0.8c6,1.2,12,2.5,18,3.9c2.5,0.6,5.2,1,7.5,1.9c2.5,0.8,5.4,1,7.9,2.3c1.2,0.6,2.9,0.6,4.1,1.5 c1.2,0.8,3.3,0.4,4.6,1.5c3.9-0.4,6.6,1.5,9.7,2.7c1.7,0.6,3.3,1.2,5,1.7c2.7,0.8,5.4,0.6,7.9-0.4c1.5-0.8,1.9-2.7,4.4-2.7 c0.2,0,0.4-0.6,0.4-0.8c0-2.9,0.4-5.6-2.7-7.9c-0.2-0.2-0.2-0.6-0.4-0.8c-3.7-2.9-7.3-6.2-11.4-8.7c-5.4-3.3-11.8-5.6-18.2-7.9 c-2.1-0.8-4.4-1.5-6.6-1.9c-2.3-0.4-4.6-1-6.6-1.9c-2.1-1-4.6-1.2-6.6-1.9c-3.5-1-7.3-1.2-10.8-2.3c-2.1-0.6-4.1,0-5.8-0.6 c-3.1-1.2-6.4-1.2-9.7-1.9c-3.9-0.6-7.9-1.2-11.8-1.5c-4.4-0.2-8.7-0.8-13.1-0.8c-5,0-10,0.2-14.7,0c-5-0.2-9.5,1-14.3,0.8 c-1.5,0-2.9,0-4.1,0c-1.2,0.2-2.5,0.4-3.7,0.6c-2.3,0.4-4.6-0.2-6.8,0.6c-1.9,0.6-4.4,0.2-6.8,0.8c-3.7,0.8-7.9,0.8-11.8,1.5 c-1.9,0.2-3.9,0.2-5.4,0.8c-2.5,1-5.2,1-7.5,1.9c-2.5,0.8-5.4,1-8.1,1.7c-8.9,2.3-17.8,4.8-26.1,7.9c-4.8,1.9-9.3,3.5-14.1,5.4 c-8.7,3.3-17,7.3-25.3,11c-2.3,1-5,2.1-7.1,3.7c-2.1,1.7-5.2,2.7-7.7,3.9c-3.9,2.3-7.9,4.8-11.8,7.1c-2.5,1.7-4.6,3.5-7.3,4.8 c-2.1,1-3.7,2.5-5.6,3.7c-1.9,1.2-3.9,2.3-5.6,3.7c-5.2,4.1-10.4,8.5-15.6,12.9c-0.4,0.4-0.6,0.6-0.8,1c-1.7,2.3-3.5,4.6-6,6.4 c-2.1,1.5-3.5,3.5-4.6,5.6c-1.5,2.5-1.5,5.4-2.7,8.1c-0.8,1.9-0.8,4.1,0.8,5.8C73.6,200.4,72.9,201.5,73.3,202.7z"/><path class="st6" d="M117.5,124.5c0,0.2,0.8,0.4,1.2,0.4c3.9-0.6,7.9-1.5,11-3.7c0.6-0.4,1.5-0.8,2.1-0.8c3.9,0,6.4-2.1,9.3-3.3 c4.4-1.9,8.3-4.4,13.1-5.8c1.9-0.6,3.7-1.2,5.6-2.3c6-3.3,13.3-5,19.5-8.1c3.1,0,5.6-1.5,8.3-2.3c2.7-0.8,5.6-1,8.1-2.7 c0.2-0.2,0.6,0,0.8,0c3.1-0.8,6.2-1.7,9.3-2.5c5.6-1.5,10.8-3.3,16.8-3.9c4.1-0.4,7.9-2.3,12.2-2.1c2.1-1,4.6-0.8,6.8-1.2 c2.3-0.4,4.8-1,7.3-0.8c1.2,0,2.5-0.4,3.7-0.6c1.2-0.2,2.7,0.4,3.7-0.6c3.3,0,6.4-0.2,9.5-1.2c2.9-0.8,6.4-0.4,9.7-0.8 c5-0.4,10.2,0,15.1-0.2c5-0.2,10-0.6,14.9-0.6c1.7,0,3.3-0.4,5.2,0.4c1.2,0.6,6.4-2.5,6.6-3.7c-2.1-1.2,0.4-1.9,0.6-2.7 c0.4-1.7,0.2-3.1,0.2-4.8c0-0.2-0.2-0.4-0.4-0.4c-3.3-1-6-3.1-9.7-3.5c-1.9-0.2-3.7-0.4-5.6-1.2c-3.5-1.2-7.7-1.2-11.4-2.1 c-1.7-0.4-3.5-0.6-5.4-0.6c-3.9-0.2-7.9,0.2-11.8-0.6c-3.1-0.6-6.4-0.2-9.7,0c-3.1,0.2-6.2,0-9.5,0.4c-3.9,0.6-8.1,0-12,0.8 c-3.3,0.6-6.6,0.6-10,0.8c-0.2,0-0.6,0-0.8,0.2c-3.1,0.6-6.2,1.5-9.3,1.9c-3.7,0.6-7.3,2.3-11.4,2.3c-3.1,1.9-7.7,1.5-10.8,3.3 c-9.3,1.9-17.6,5.6-26.3,8.5c-3.5,1.2-7.1,2.7-10.2,4.4c-2.1,1-4.6,1.9-6.4,2.9c-3.3,1.9-7.1,3.3-10.4,5.2 c-2.3,1.2-4.4,2.3-6.6,3.5c-0.2,0.2-0.2,0.6-0.4,0.8c0.4,0,0.6,0,1,0c1.2-0.6,2.5-1,3.5-1.7c5.2-2.5,10.2-5,15.3-7.5 c1.7-0.8,3.3-2.1,5-2.3c2.5-0.2,4.4-1,6.2-1.9c0.8-0.4,1.9-0.4,2.9-0.6l0,0c0.4-0.2,0.6-0.2,0.4,0c0.8-0.2,1-0.2,1.2,0 c-0.4,0.2-0.8,0.2-1.2,0.4c0,0-0.2,0-0.2-0.2c-0.8,0.6-1.2,1.2-1.9,1.5c-0.6,0.4-1.2,1-2.1,1.5c1.5-0.2,2.9-0.4,4.4-0.8 c-0.2,0.8-0.8,1.2-1.2,1.5c-5.8,1.9-11.2,4.8-16.8,6.8c-0.8,0.2-1.7,0.6-2.1,1c-0.4,0.4-0.4,1,0.4,1.5c1.2-2.1,3.9-2.1,5.6-3.1 c0.2,0,0.6,0,0.8,0.2c0,0,0,0.4-0.2,0.4c-1.9,0.8-3.7,1.7-6.2,2.5c-0.2,0-0.6,0.4-0.8,0.4c-2.5-0.2-4.4,0.8-6,1.9 c-3.5,2.1-7.5,3.5-10.8,5.8c-2.5,1.9-6.2,2.3-7.9,4.8c0.6,0,1.2,0,1.7-0.2c2.5-1.5,5.8-2.3,8.1-4.1c1-0.8,2.3-1.2,3.7-1.2 c0-1,1-0.6,1.9-0.6c0.8-1.5,2.5-1.9,4.6-2.3l0,0c0.4-0.2,0.6-0.2,0.4,0c0.8-0.2,1-0.2,1.2,0c-0.4,0.2-0.8,0.2-1.2,0.4 c0,0,0,0-0.2,0c-1.2,1.7-2.9,1.9-4.8,2.3c0,1-1,0.6-1.9,0.6c-0.8,0.6-1.7,1.5-2.7,2.1c-3.3,1.9-6.8,3.5-10.2,5.4 c-4.1,2.3-8.3,4.8-12.2,7.1c-0.2,0.2-0.8,0.4-0.8,0.6c0.6,1.9-1.5,2.9-2.9,4.1C115.4,123.3,117.3,122.9,117.5,124.5z M225.4,70.6 c-0.2,0-0.4,0.2-0.6,0.2c-0.2,0-0.2-0.2-0.4-0.2C224.9,70.4,224.9,70.2,225.4,70.6z M193.8,76.8c1.2,1.2-3.3,1.9-4.4,2.1l0,0 c1-0.8,2.1-1.2,2.9-1.5C193,77,193.4,76.4,193.8,76.8z M187.8,78.9c-2.9,1.5-5.6,2.7-8.9,2.9C181.8,80.6,184.7,79.5,187.8,78.9z M170.2,90.5C170.2,90.5,170.2,90.3,170.2,90.5L170.2,90.5L170.2,90.5z M172.3,89.1c0.2,0,0.2,0.2,0.4,0.2c-0.4,0.2-0.6,0.2-0.8,0 C171.9,89.3,172.1,89.3,172.3,89.1z M170.4,89.7c-0.2,0.2-0.2,0.4-0.4,0.4c0,0-0.2,0-0.2-0.2C170,90.1,170.2,89.9,170.4,89.7z M169.8,90.5L169.8,90.5c-0.2,0.4-0.4,0.6-0.6,0.6C169.2,90.5,169.2,90.5,169.8,90.5z"/><path class="st0" d="M174.3,83.2C174.3,83.2,174.5,83.2,174.3,83.2c0.2,0,0.2,0,0.4-0.2C174.5,83,174.5,83,174.3,83.2z"/><path class="st0" d="M149.5,100.7l0.2-0.2C149.7,100.5,149.5,100.5,149.5,100.7L149.5,100.7z"/><path class="st0" d="M372.6,384.1c-0.8,1.2-1.9,2.7-3.1,3.9c-2.1,2.3-4.4,4.4-6.6,6.6c-0.2,0.2,0,0.6,0,1 c-0.6,0.2-0.6,0.2-0.4,0.6c0.2-0.2,0.4-0.2,0.6-0.4l0,0c2.9-2.5,5.8-4.6,7.9-7.1c4.1-5,8.1-10.2,11.4-15.8 c0.4-0.6,0.2-1.2,0.4-2.7c-2.1,2.7-3.7,4.4-5,6.2C376.3,379.4,374,381.7,372.6,384.1z"/><path class="st0" d="M119.8,114.8c0.6,0,1.2,0,1.7-0.2c2.3-1.9,5-3.1,7.7-4.6c0.2-0.2,0.4-0.6,0.6-0.8c-1,0.2-1.9,0.2-2.7,0.4 C123.7,110.8,121.7,112.9,119.8,114.8z"/><path class="st0" d="M444.3,226.3c-0.2-2.1-0.6-3.9-2.7-5.6C442.1,222.8,442.5,224.7,444.3,226.3z"/><path class="st0" d="M178.7,224.3c1.2-0.8,2.5-1.9,3.5-2.7C180.1,221.8,179.3,222.4,178.7,224.3z"/><path class="st0" d="M151.1,247.9c-1.5,0.6-2.9,1.2-2.7,2.7C149.9,250.2,151.1,249.4,151.1,247.9z"/><path class="st0" d="M359.5,398.7c0,0,0.2,0.4,0.4,0.4c1.7,0.4,1-1,1.7-1.5c0.2,0,0.2-0.2,0.4-0.4c-0.4-0.2-0.8-0.4-0.8-0.4 C360.6,397.6,359.9,398,359.5,398.7z"/><path class="st0" d="M445.2,229.7c0-1.2,0-2.3,0-3.5C444.3,227.4,444.3,228.6,445.2,229.7z"/><path class="st0" d="M134.1,100.9c0.8-0.6,1.9-1.5,2.7-2.1C134.7,99,134.3,99.2,134.1,100.9z"/><path class="st0" d="M156.5,237.7c-0.6,0.4-1.5,1-2.3,1.9C155.5,239.4,156.7,239,156.5,237.7z"/><path class="st0" d="M189.5,216.4c-0.8,0.4-1.9,0.8-3.7,1.7C188.4,217.8,189.5,217.4,189.5,216.4z"/><path class="st0" d="M438.1,217c0.4,0.6,0.8,1,1.2,1.7c0.2-0.2,0.4-0.4,0.4-0.4c-0.4-0.6-0.8-1-1.2-1.7 C438.5,216.8,438.1,217,438.1,217z"/><path class="st0" d="M119.8,115.2c-0.4-0.2-0.8-0.4-1.5-0.2c-0.6,0.2-0.2,0.8,0,1.2C118.8,115.8,119.4,115.4,119.8,115.2z"/><path class="st0" d="M168.9,87c0.6-0.2,1.7,0.4,1.9-0.6C170,86.4,168.9,85.9,168.9,87z"/><path class="st0" d="M138.5,98.2c-0.6,0.2-1.7-0.4-1.9,0.6C137.4,98.6,138.5,99.2,138.5,98.2z"/><path class="st0" d="M441,220.3c0.2,0.2,0.2,0.2,0.4,0.4c0.2,0,0.2,0,0.4,0C441.4,220.3,441.6,220.1,441,220.3z"/><path class="st0" d="M160.4,236.9c-0.2,0.2-0.4,0.2-0.6,0.4c0.2,0,0.2,0.2,0.4,0.2C160.7,237.1,160.9,237.1,160.4,236.9z"/><path class="st0" d="M158.2,238.8c-0.6,0.2-0.6,0.2-0.6,0.6c0.2-0.2,0.4-0.2,0.6-0.4C158.2,239,158.2,239,158.2,238.8z"/><path class="st0" d="M152.4,247.3c0.4-0.4,0.4-0.4,0.2-0.6c-0.2,0.2-0.4,0.2-0.6,0.4C152.2,247.1,152.2,247.1,152.4,247.3z"/><path class="st0" d="M168.3,87.6c0.2-0.2,0.4-0.2,0.6-0.4V87C168.3,87.2,168.3,87,168.3,87.6z"/><path class="st0" d="M139.1,97.3c-0.2,0.2-0.4,0.2-0.6,0.4c0.2,0,0.2,0.2,0.4,0.2C139.3,97.8,139.5,97.8,139.1,97.3z"/><path class="st0" d="M132.2,102.7c0-0.2-0.2-0.2-0.4-0.4c-0.4,0.2-0.2,0.4,0,0.6C131.8,102.9,132,102.7,132.2,102.7z"/><path class="st0" d="M191.8,214.5c-0.2,0.4-0.4,0.4,0,0.6c0.2-0.2,0.2-0.2,0.4-0.4C192,214.5,191.8,214.5,191.8,214.5z"/><path class="st0" d="M134.1,101.1v-0.2c-0.6,0.2-0.6,0.2-0.6,0.6C133.7,101.3,133.9,101.3,134.1,101.1z"/><path class="st0" d="M156.9,236.9c-0.2,0.2-0.4,0.2-0.6,0.4c0.2,0,0.2,0.2,0.4,0.2C157.1,237.1,157.3,237.1,156.9,236.9z"/><path class="st0" d="M384,365.1c0.2-0.2,0.2-0.2,0.4-0.4c-0.2,0-0.2-0.2-0.4-0.2C383.8,364.7,383.8,364.7,384,365.1z"/><path class="st0" d="M381.3,369.2c-0.2,0.2-0.2,0.2-0.4,0.4c0.2,0,0.2,0.2,0.4,0.2C381.5,369.6,381.7,369.4,381.3,369.2z"/><path class="st0" d="M177.7,225.7c-0.2,0.2-0.4,0.4-0.6,0.6c0.2,0,0.6,0,0.8,0C177.9,226.1,177.7,225.9,177.7,225.7z"/><path class="st0" d="M178.7,224.3c-0.6,0.2-0.6,0.2-0.6,0.6c0.2-0.2,0.4-0.2,0.6-0.4C178.7,224.5,178.7,224.3,178.7,224.3z"/><path class="st0" d="M183.3,220.7c0.2,0,0.6,0,0.8,0c0-0.2,0-0.4,0-0.6C183.9,220.3,183.5,220.5,183.3,220.7z"/></g><g><path class="st0" d="M442.3,93.2L442.3,93.2C442.3,93,442.3,93,442.3,93.2z"/><path class="st0" d="M125.4,44.9c0,0,0.2-0.2,0.2-0.4c-0.2,0-0.4,0.2-0.6,0.2C125,44.9,125,45.1,125.4,44.9z"/><path class="st0" d="M442.5,93.2L442.5,93.2L442.5,93.2z"/><path class="st0" d="M427.8,74.3c-0.2,0-0.2,0-0.2,0.4c0.2,0,0.2,0.2,0.4,0.2C427.8,74.5,427.8,74.5,427.8,74.3z"/><path class="st0" d="M466.7,390.6L466.7,390.6L466.7,390.6z"/><path class="st0" d="M466.7,390.8L466.7,390.8C466.7,390.8,466.5,390.8,466.7,390.8z"/><path class="st7" d="M506.6,256c-0.2-3.3,0-6.8-0.2-10.2c-0.2-3.3,0.2-6.8-0.6-10.2c-0.6-3.7-0.4-7.5-0.8-11.4 c-0.4-3.1-0.8-6.2-1.7-9.1c-0.2-0.8-0.6-2.1-1-2.1c-2.1-0.2-0.6-2.5-2.1-2.9c0.2-1.7-0.4-3.1-0.6-4.6c-0.2-0.8-0.4-2.3,0.2-2.3 c1.5-0.2,1-1,1-1.9c0-1.9,0-3.7-0.6-5.8c-1-3.1-1.2-6.4-2.3-9.5c-1.5-4.1-2.3-8.5-5.2-12.2c-0.2-0.2-0.4-0.8-0.6-1.2 c-1.7-4.8-3.9-9.3-5.8-14.1c-1.5-3.5-2.7-6.8-4.1-10.4c-0.8-1.9-2.1-3.3-3.1-5.2c-0.2-0.4-0.6-0.4-1-0.2c-0.4,0.2-0.6,0.6-0.4,0.8 c1.5,2.3,2.3,4.6,2.5,7.3l0.2,0.2c1.2,3.7,2.5,7.5,4.1,11c0.4,1,1,2.1,1.2,3.3c0.8,5.8,3.1,11.2,4.8,16.8c0.4,1.5,0.4,2.7,0.2,4.6 c-1.5-3.3-2.7-6-3.5-8.9c0-0.4-0.2-0.6-0.8-0.6c-0.4,0-0.6,0.2-0.6,0.6c0,0.8-0.2,1.7,0.2,2.1c1,1.7,0.4,3.1,0.2,5 c-0.8-0.8-0.2-1.5-0.6-2.1c-2.3-4.4-3.5-8.9-5-13.3c-0.4-1.5-1.9-3.1-0.4-5c0.4-0.6,0.2-2.1-0.2-3.1c-0.8-1.9-2.1-3.7-2.5-5.6 c-0.6-2.7-2.3-4.8-3.1-7.3c-0.8-2.7-1.9-5.2-3.1-7.7c-2.3-4.6-4.8-8.9-7.3-13.1c-2.7-4.6-6.4-8.7-8.3-13.9c-2.9-2.9-5-6.4-7.1-10 c-1.7-2.7-3.7-5.2-5.6-7.9c-0.4-0.4-0.2-1-0.2-1.5c-1,0-0.6-1-1-1.5c-0.8,0-1,0-1-0.4c0.2-0.2,0.6-0.2,0.8-0.2 c0.2,0,0.4,0.2,0.4,0.4c0,0.2,0,0.4,0,0.4c1.2,0.2,0.8,1,0.8,1.5c0.6,0,1.2-0.2,1.7,0.6c0.4,0.6,0.6,1.2,1,1.9 c3.7,4.6,8.1,8.5,11.2,13.5c1.2,2.1,3.1,3.5,4.6,5.4c3.3,4.4,6.4,8.5,9.3,13.1c1.7,2.7,4.1,5,5.2,8.1c0.8-1.9,0.4-3.5-0.4-5 c-2.5-4.4-4.8-8.5-7.3-12.9c-2.9-5.2-6.4-10-9.7-14.7c-3.3-4.8-7.1-8.9-10.8-13.3c-2.3-2.7-5-5.2-7.3-7.9 c-4.6-5.4-10.4-9.5-15.3-14.7c-0.4-0.4-0.8-0.6-1.2-0.2c-0.4,0.4-0.4,0.8,0,1.2c1,1,1.9,2.1,2.9,2.9c0.4,0.4,0.6,0.8,0.6,1.7 c0,0,0,0,0.2,0c0.2,0.2,0.4,0.4,0,0.4c0.4,0.6,0.2,0.8,0.2,0.8c-0.6-0.2-0.4-0.6-0.4-1l0,0c-0.6-0.4-1-0.2-1.5-0.6 c-2.7-3.3-6.4-5.8-9.5-8.7c-2.1-2.1-4.6-3.5-6.8-5.4c-1.7-1.2-3.7-2.1-4.8-4.1c0.6-0.2,1-0.4,1.5-0.6c-2.5-2.9-6.2-4.4-8.7-7.3 c-2.5-0.6-3.9-2.9-6.2-3.9c-4.6-2.1-8.5-5.4-12.9-7.7c-2.7-1.5-5.4-3.3-8.3-4.8c-1.9-0.8-3.5-2.3-5.8-2.3 c-2.9-2.7-6.6-3.3-10.2-4.8c-2.3-1-4.6-2.3-6.8-2.5c-1.7-0.2-3.3-1-5-0.8c-1.9,0.2-2.9-1.2-4.6-1.7c-3.5-0.8-7.1-1.9-10.4-2.9 c-4.4-1.2-8.5-3.1-13.1-2.9c-0.4,0-0.6-0.4-0.8-0.4c-2.9-0.8-5.8-1.5-8.9-0.8c0.4,0.6,1,1,0.8,1.7c-0.4,0.6-1,0.4-1.5,0 c-0.8-0.8-2.1-0.4-2.9-0.2c-1.2,0.2-1.7-1-2.7-0.8c-1.9,0.2-3.7-0.6-5.6-1c-1.9-0.4-3.9-0.8-5.8-1.5c-4.6-1.5-9.3-2.3-14.1-2.1 c-0.2,0-0.2,0.2-0.4,0.4c0.4,0.8,1.7-0.2,2.1,0.8c-3.9,1-7.7-1-11.4-0.6C262.3,8,260.6,9,260,8c-0.8-1.2-2.1-1-3.3-1 c-1.5,0-3.1,0.2-4.6,0s-2.7,1-4.1,0.8c-5-0.4-9.7,0.4-14.7-0.6c-2.5-0.6-5.2-0.2-7.9,0.4c-2.7,0.8-5.8,0.4-8.7,0.6 c-3.3,0.4-6.2,1.9-9.5,1.7c-1,1.2-3.1,0.4-3.9,2.1c0.4,0,0.8,0,1,0.2c0.6,0.4-0.2,0.6-0.2,0.8c-0.2,0.2-0.6,0.6-0.8,0.6 c-2.7,0-5.4,1-8.1,1.5c-4.6,0.8-8.5,2.9-12.9,4.6c-0.6,0.2-1.5,0.8-1,1.7c0.2,0.4,1,0.6,1.7,0.8c-3.5,1-7.1,2.1-10.4,3.3 c-4.1,1.7-8.7,2.1-12.9,4.4c-1.5,0.8-3.5,1.9-5.4,0.4c1.2-1.2,2.5-2.5,3.7-3.7c-0.8-1-1.7-1.7-3.1-0.6c-1,0.6-2.1,1-3.1,1.7 c-0.6,0.4-1.2,0.4-1.2-0.4c0-0.4,0-0.8-0.8-0.4c-2.7,0.8-5.2,2.3-7.9,2.7c-1,1.5-2.7,1.7-4.1,2.7c-0.4,0.4-0.8,0.8-0.6,1.5 c0.2,0.6,1.5-0.2,1.2,0.8c-0.2,0.6-1,0.8-1.7,1.2c-0.6,0.2-1.2,0.6-1.9,1c-2.5,1.9-3.5,2.1-7.3,1.9c-0.6,0-0.8,0.4-1.2,0.6 c-2.7,1.5-5.4,3.1-7.5,5.4c-1.2,0-1.5,0.8-1.2,1.7c0.2,1.2,1.7,0.8,2.1,0.6c1.5-0.8,3.1-0.6,4.6-0.6c0-0.4,0.2-0.6,0.6-0.8v-0.2 c0.2-0.2,0.4-0.4,0.4,0c0.6-0.4,0.8-0.2,0.8-0.2c-0.2,0.6-0.6,0.4-1,0.4l0,0c-0.4,0.6-0.6,0.8-1,0.8c-1.9,1.5-3.9,2.7-6.2,3.7 c-1.2,0.6-2.5,0.8-3.3,1.7c-2.5,2.3-5.4,3.7-8.1,5.8c-1.9,1.5-3.9,2.9-5.8,4.4c-0.4,0.4-0.8,0.4-1.2,0c-0.2-0.2-0.2-0.8,0-1 c1-1,1.9-2.5,3.1-3.1c2.9-1.7,4.6-4.6,7.5-6.6c-1-0.2-1-1.2-1.9-0.6c-1.9,1.9-4.6,2.7-6.2,4.8C94.7,59,89.1,65,82.7,69.8 c-2.7,3.5-6.8,5.8-9.5,9.5c-3.7,4.6-8.5,8.3-12.2,13.1c-0.8,1.2-1.9,2.3-2.3,3.5c-0.4,0.8-2.1,2.1,0.4,2.5c0.4,0,0.2,0.8,0,1.2 c-1,2.5-2.7,4.4-4.4,6.4c-0.8,1-1.2,2.3-2.3,3.1c-0.6,0.4-1.2,0.4-1.2-0.4c0-0.4,0.2-1-0.4-1.5c-3.7,3.1-6,7.3-8.7,11.2 c-3.7,5.8-6.4,12.2-10.6,17.8c-1.5,1.9-1.9,4.6-3.1,6.6c-1,2.1-2.1,4.1-3.1,6.2c-1.2,2.1-2.5,4.4-3.3,6.6 c-0.4,1.2-1.7,2.7-0.2,4.8c1.2-1.2,2.1-2.1,3.1-3.1c-1.9,4.1-3.7,8.5-5.6,13.1c-1-0.6,0.2-1.9-1-2.3c-1.9,1.7-2.5,3.9-3.3,6.2 c-0.8,2.1-2.3,4.1-0.8,6.6c0.2,0.2,0,0.2,0,0.6c-0.4,1.7-0.4,3.5-1.2,4.8c-1.2,1.5,0.2,3.5-1.5,4.8c0.4,1.5-0.8,2.7-0.8,4.1 s-1.2,2.7-0.8,4.1c0.6,1.5-0.8,2.7-0.8,4.1c0.2,2.3-0.8,4.6-0.8,6.8c-0.2,2.1-1.5,3.9-1.2,6.2c0,2.3-1.2,4.6-0.8,6.8 c0,0.2,0.2,0.6,0,0.8c-1.5,1.2-0.6,2.9-0.6,4.1c0,1.7-0.8,2.9-0.8,4.6c0.2,7.9,0,15.8,0,23.6c0,1-0.4,2.1,0.6,2.7 C4.9,262,7,264.1,7,266.6c0,0.2,0.8,0.6,0.2,0.8c-1.9,0.2-1.2,1.7-1.2,2.5c0,2.1,0.2,4.4,0.6,6.4c0.4,2.5,0.8,4.8,1.9,6.8 c1-1.2,1.2-2.5,1.2-3.9c0-1.5-0.4-2.9-0.6-4.1c-0.4-2.1-0.4-4.4,0-6.4c0.2-2.3-0.8-4.4-0.8-6.4c-0.2-3.5,1-7.1,0.8-10.6 c0-1.5,0.2-3.1,0.8-4.1c1.7-2.1,1.5-4.4,1.5-6.6c0,0,0.4-0.2,0.8-0.4c0,0.8,0,1.7,0,2.3c0,2.7-0.4,5.6,2.1,7.9 c0.2,0.2,0,0.8,0.2,1c1.2,2.1,0.6,4.4,0.6,6.4c0,1.2-0.2,2.5,0.8,3.5c0.8,0.8,0.8,1.9,0.8,3.1c0,1.7,0.2,3.3,0,5 c-0.2,1.9,1.5,2.9,1.7,4.6c0.2,2.1,0.6,4.4,1.9,6c1.2,1.9,0.4,4.4,1.9,6c0,3.9,2.7,7.3,3.1,11.2c1.2,1,1,3.3,3.1,4.1 c-0.6-1.9,0.6-3.5-0.8-5c0.2-0.2,0.4-0.2,0.4-0.4c0,0,0.2,0,0.4,0c0.4,0,0.4,0.4,0.6,0.8c1.2,2.9,2.5,5.8,3.7,8.5 c0.4,1,1.2,1.9,1.5,2.7c1,2.9,2.1,5.6,4.4,7.7c0.8,0.8,1.5,1.9,1.7,2.7c0.2,1.9,1.5,3.1,2.1,4.8c0.4,0.8,1,1.5,1,2.5 c-0.2,1.9,1,3.1,2.1,4.4c1.7,2.1,3.5,3.9,3.9,6.6c0.2,0.8,0.8,1.7,1.5,2.5c1,1.5,2.1,2.9,2.9,4.4c1.5,2.7,3.1,5.2,4.8,7.9 c0.2,0.4,0.6,1,1.5,1c1-0.2,0.6-1,0.6-1.5c0-0.8,1.5-1,0.6-2.3c-2.1-3.1-5-5.6-6.2-9.1c-2.1-0.4-2.1-2.5-2.5-3.7 c-0.4-1.5-2.3-1.9-1.9-3.7c-0.8,0-1.5-0.4-1.2-1.2c0.4-2.1-0.4-3.7-1.5-5.4c-1.5-2.5-2.5-5.2-3.5-7.9c-1.2-3.1-2.3-6.6-2.5-11.4 c0,0.2,0,0.2,0,0.4s0.4,0.8-0.4,0.6c-0.2,0-0.4-0.4-0.4-0.4c0-0.6-0.2-1.2,0.8-0.8c0-0.2,0,0,0,0c0.8,1.5,0.6,0.8,0.8,0.4 c0.4-4.8-1.2-8.9-2.5-13.3c-0.6-2.5-2.5-4.6-3.3-6.8c-0.2-0.6,0.2-1.5-0.4-2.1c-1.9-1.9-1.9-4.1-2.1-6.6c0-2.1,0.6-4.1-0.6-6 c-0.2-0.4,0.4-0.6,0.8-0.8c0.6-0.8,2.3-1.7,1-3.1c-0.8-0.8,0.4-1.2,0.4-1.9c-0.2-0.6-1.2-1.2-1.2-1.7c0-1.2-1.2-2.7-0.6-3.3 c1-1.7,0.6-3.3,0.6-5c0-1,1.5-1.9,0.6-2.7c-1-1.2-0.6-2.7-0.6-3.9c0-3.9,0-7.7,0-11.6c0-0.8-0.2-1.7,0-2.3c1-1.7,0.8-3.3,0.6-5 c-0.2-1.9,0.8-3.3,0.8-5c0-2.5,0.2-5,0.6-7.7c0.6-3.1,0.8-6.4,1.5-9.5c0.8-3.7,1.7-7.7,2.3-11.4c0.8-4.1,2.3-8.3,3.5-12.4 c1.7-5.4,3.3-10.6,5.4-15.8c2.5-6,4.8-12,7.7-17.8c3.7-7.7,7.9-15.1,12.6-22.2c2.7-3.9,5.6-7.5,8.1-11.4 c4.6-6.6,10-12.4,15.1-18.5c2.7-3.1,5.8-5.8,8.7-8.9s6.6-5.2,9.3-8.5c0.2-0.2,0.4-0.4,0.6-0.6c4.4-2.9,8.3-6.6,12.6-9.5 c3.3-2.3,6.6-4.6,9.7-7.3c2.1-1.7,4.8-2.5,7.1-4.1c2.7-2.1,5.8-3.9,9.1-5.4c7.3-3.3,13.9-7.5,21.4-10.2c3.1-1.2,6.2-2.5,9.3-3.7 c3.7-1.5,7.7-2.5,11.6-3.7c1.5-0.4,2.9-1.2,4.4-1.5c5-0.8,10-2.3,14.9-3.1c3.5-0.6,7.3-0.6,10.8-2.1c1.9,0.4,3.5-0.8,5.4-0.8 c1.9,0,3.7,0.2,5.4-0.8c4.1,0.6,8.3-0.8,12.4-0.8c6.6,0.2,13.1-0.6,19.7,0.6c3.1,0.6,6.6-0.4,10,0.8c1.2,0.4,3.1-0.4,4.4,0.2 c1.5,0.6,2.9,0.6,4.4,0.6c1.5-0.2,2.7,0.8,4.1,0.8c2.1,0,4.1,0.4,6,0.8c1.9,0.4,3.9,0.6,5.8,1.2c2.1,0.8,4.1,1,6.2,1.5 c4.4,0.8,8.3,2.5,12.4,3.5c4.1,1,8.1,2.9,12,4.6c4.6,1.9,9.3,3.3,13.9,5.6c6.4,3.3,13.1,6.2,19.1,10.4c4.4,1.5,7.9,4.8,11.8,6.8 c0.8,0.4,1,1.7,2.1,1.5c1.9-0.4,2.3,0.8,2.9,1.9c1.2,1.7,3.5,2.3,4.8,3.9c0.4,0.4,1.2,0.4,1.2-0.6c0-1,0.8-1,1.2-0.6 c2.3,2.1,5.2,3.5,6.8,6c1.9,2.7,3.9,5.2,6.2,7.7c7.9,7.9,16,15.6,22.8,24.5c1.9,2.5,3.7,5.2,5.8,7.7c1.7,2.1,2.9,4.6,5.2,6 c1.9,1.2,3.3,2.9,5,4.4c1,1,1.7,2.1,2.1,3.7l0,0c0.2,0,0.2,0.2,0,0.2c0.2,0.2,0.2,0.4,0.2,0.4c-0.2,0-0.4-0.2-0.4-0.4v-0.2 c-0.6-0.2-1-0.2-1.5,0.2c3.3,2.5,4.8,6.4,7.3,9.5c0.4,0.6,1,1.5,0.8,2.3c-0.2,2.3,1.2,4.1,2.1,6c0.4,0.8,1,1.5,1,2.3 c-0.4,2.3,0.8,3.9,1.9,5.6c1.9,3.3,2.7,7.3,4.4,10.6s2.7,7.3,5,10.4c0.8,1,0.8,1.5,1.9,0.6c0.4-0.4,1-0.4,1.2,0.6 c0.4,2.3,1,4.4,1.2,6.6c0.2,3.3,3.1,6.4,0.8,10c0,0,0,0.2,0,0.4c1.5,2.5,1.9,5.6,2.9,8.1c0.2,0.4,0.4,0.6,0.8,0.6 c0.8,0,0.8-0.6,0.6-1c0-0.6,0.2-1.5-0.4-2.1c-0.6-0.4,0-0.6,0.2-0.6c0.4-0.2,0.8,0,0.8,0.4c0,1.2,0.4,2.7-0.2,3.9 c-1,2.1-0.8,4.6-0.2,6.4c0.8,2.3,0.2,4.4,0.4,7.1c-1.5-3.1-1.5-6-3.7-8.7c0,1.2-0.2,1.9,0,2.5c1,1.9,0.6,3.7,0.6,5.8 c0,0.4-0.2,1.2,0,1.5c1.2,1.9,0.2,3.9,0.8,5.6c0.8,1.9,0.6,3.7,0.6,5.8c0,5.8,0,11.6,0,17.2c0,0.8,0.4,1.7,1,1.7 c0.6,0.2,1.2-0.6,1.2-1.5c0-0.2,0-0.8,0.8-0.4c-0.2,2.5,0.4,5.2-0.8,7.9c0.4,3.5-0.8,7.1-0.8,10.6c0,0.4-0.2,0.8-0.6,0.8 c-0.4,0-0.8,0-1-0.4c-0.2-0.2-0.2-1-0.2-1c-0.8,0-0.2,0.6-0.4,1c-1.5,2.1-0.6,4.6-1.5,7.1c-1,2.7-1,5.8-1.9,8.7 c-1,3.7-1.7,7.5-2.7,11.2c-0.6,2.1-1.2,4.4-1.9,6.4c-0.6,2.3-1.2,4.6-2.1,6.6c-0.8,2.5-2.3,5.2-1.7,8.1c0,0.4-0.2,0.8-0.4,1.2 c-1.2,3.5-2.7,7.1-4.6,10.6c-0.4,0.8-1.2,1.7-1,2.9c0.4,1.9-0.8,3.3-1.5,5c-0.6,1.9-2.1,2.9-2.7,4.6c-0.6,2.1-1.5,4.4-3.5,5.8 c-3.5,6.2-7.7,12-11,18.5c-0.4,1-1,1.9-1.9,2.7c-2.3,2.7-5,5.4-6.8,8.5c-1.2,2.1-3.5,3.9-3.5,6.8c0,0.4-0.4,1.5-1.2,2.1 c-1,0.8-2.3,1.5-3.1,2.5c-4.1,4.4-8.9,8.1-12.2,12.9c-0.8,1.2-1.9,2.5-3.5,3.1c-1,0.4-2.1,1.2-0.6,2.5c0.4,0.4,0.2,0.8-0.2,1.2 c-1.7,1.2-3.1,2.7-4.6,4.1c-2.7,2.1-5.2,4.4-7.9,6.2c-1.5,1-2.5,2.3-4.4,2.3c-0.2,0-0.4,0.2-0.6,0.2c-4.4,3.5-8.9,6.4-13.3,10 c-1.2,1-2.5,2.5-5,2.9c0,0.4,0,1-0.4,1c-0.6,0-1.2,0.2-0.6-0.8c-0.8,0.2-0.4-0.2,0-0.4c0,0,0,0,0.2,0c0.6-1.7,0.4-1.7-0.6-1 c-3.7,2.1-7.3,4.4-11,6.2c-2.3,1.2-4.4,2.5-6.6,3.7c-0.6,0.4-1,0.8-1.9,0.8c-2.3-0.2-4.1,0.8-6,1.9c-3.9,2.1-8.1,3.5-12.2,5 c-2.3,0.8-4.6,1.5-6.6,2.7c-2.7,1.7-5.4,2.7-8.5,3.3c-0.6,0.2-1.2,0.8-2.1,1c0.4,0.6,1,0.2,1.5,0.4c2.9,0.4,5.8-1,9.1-1l0,0 c0.2-0.2,0.4-0.4,0.4,0c0.6-0.4,0.8-0.2,0.8-0.2c-0.2,0.6-0.6,0.4-1,0.4l0,0c-0.8,1-1.9,1.2-2.7,1.5c-3.7,1-7.7,2.3-11.4,3.3 c-6.2,1.7-12.4,3.1-18.9,3.5c-0.4,0-1,0-1.5,0c-4.6,1.7-9.5,1.5-14.1,2.1c-2.1,0.4-4.4-0.6-6.4,0.6c-0.6,0.4-2.1,0.4-2.5,0 c-1-1-2.3-0.4-3.5-0.6c-0.4,0-1.2,0.4-1.5-0.8c1.2,0,2.5-0.2,3.7,0c1.5,0.2,2.5-0.6,3.7-1.2c-0.4-0.4-1-1-1.5-1 c-1.5-0.2-3.1-0.2-4.6,0c-1.7,0.2-2.9-1-4.6-0.8c-2.7,0.2-5.2,0.2-7.9,0c-1.2-0.2-2.1,0.6-3.1,0.8c-0.6,0.2-0.6,1,0.2,1.5 c0.4,0.2,0.8,0,0.8,0.6c-3.7,0.4-7.5-0.2-11-0.8c0.2-0.8,1.7-1.7-0.2-2.1c-0.6-0.2-1.2-0.6-1.9-0.8c-3.5-1.2-7.5-1.5-11.2-2.1 c-4.1-0.4-8.1-1.7-12.2-1.7c-1.2-1.2-3.1-0.4-4.6-0.8c-3.3-1.5-6.8-1.9-10.2-2.7c-5-1.2-9.5-2.9-14.1-5c-1-0.4-2.1-0.8-3.3-1.2 c-3.1-1-6-2.1-9.1-3.5c-1.5-0.6-2.5-1.7-3.9-2.5c-2.1-1.2-4.4-1.7-6.4-2.5c-5.4-2.5-10.6-5.4-15.6-8.7c-1.2-0.8-2.5-1.7-3.9-2.1 c-1.9-0.4-3.5-1.5-5-2.5c-3.3-2.1-6.4-4.6-9.5-7.1c-3.9-3.3-8.1-6.6-12-10c-1-1-2.3-1.9-3.3-2.9c-1-1-2.3-2.3-3.7-2.3 c-2.1-0.2-2.3-1.5-2.5-2.9c0-0.8-0.2-1.7-0.8-2.3c-2.9-2.3-5-5.6-8.1-7.5c-1-0.6-1.9-1.5-2.3-2.7c-0.6-1.7-2.7-2.5-3.3-4.4 c0,0-0.4-0.2-0.6,0c-0.2,0-0.4,0.4-0.4,0.6c0,0.6,0,1,0.4,1.7c0.8,2.1,2.5,3.5,4.1,4.6c2.3,1.5,3.5,3.5,4.6,5.6 c1,2.5,2.3,5,3.7,7.1c0.8,1,1.9,1.9,2.7,2.9c0.4,0.4,0.4,0.8,0,1.2c-0.2,0.2-0.8,0.2-1,0c-1.2-1.7-3.1-2.3-4.6-3.7 c-1-1-2.5-2.1-3.7-2.9c-1.2-1-2.1-2.7-3.9-3.3c-0.8-0.2-3.7-3.9-4.1-5c-0.6-1.2-1.5-2.3-2.5-3.1c-2.1-2.1-4.4-3.7-6-6.2 c-2.9-4.1-6.8-7.1-10.2-10.8c-0.4-0.4-0.8-0.4-1.2,0c-0.2,0.2-0.2,0.8,0,1c1,1.5,1.9,2.9,0.8,5.4c-0.2-2.3-1.7-2.9-2.5-4.1 c-1.9-3.1-3.7-6-5.8-8.9c-2.1-2.7-3.9-5.6-5.2-8.7c-0.6-1.2-1-2.7-2.1-3.7c-3.1-2.9-5.4-6.6-7.3-10.6c-0.8-1.9-1.7-3.5-2.7-5.2 c-1.7-2.7-3.3-5.4-4.8-8.1c-1.5-2.7-2.7-5.6-4.1-8.3c-1,0.6,0.2,1.7-0.8,2.1c-0.4-0.4-0.8-0.6-1-1c-1.9-3.5-2.9-7.3-4.4-11 c-1.5-3.3-3.7-6.2-3.9-10c-2.3-4.6-2.3-4.6-2.3-8.1c0-2.9-1-5.6-2.1-8.3c-0.2-0.8-0.4-1.9-1.7-2.1c-0.4,5.2,0,10.4,2.7,14.9 c0.4,0.8,0.4,1.9,0,2.7c-0.8,1.5-0.2,2.9-0.4,4.4c1.9,1.7,1,4.6,2.7,6.4c0.4,0.4,0.2,0.6,0.2,1c-0.6,4.4,1.9,8.5,1.5,12.9 c1,1.2,0.4,2.7,1,4.1c2.3,4.8,4.4,9.5,6.4,14.3c0.4,1,1.2,1.7,0,2.9c-0.4,0.2-0.2,1.5,0,2.1c2.1,4.4,4.4,8.5,6.6,12.6 c1.7,3.3,4.1,6,5.6,9.3c1.5,3.1,3.5,5.8,5.6,8.5c3.7,4.8,7.9,9.3,11,14.7c1,1.9,3.1,3.5,4.1,5.4c1.2,1.9,3.9,3.1,3.9,5.8 c2.1,0.4,2.3,2.5,3.7,3.7c5.4,4.4,9.1,10.4,14.5,14.7c4.6,3.5,8.5,7.7,12.9,11.4c4.1,3.3,8.3,6.6,12.4,10c4.8,3.7,10,6.8,15.1,10 c3.5,2.1,7.1,4.1,10.4,6.4c1.2,1,2.7,1.5,4.1,1.7c2.3,0.4,4.1,1.2,5.6,2.7c2.3,2.3,4.8,4.1,8.1,5.2c2.3,0.6,4.4,2.1,6.8,2.7 c2.5,0.6,5,1.5,7.3,2.3c3.7,1.5,7.9,2.1,11.4,4.4c1.7-0.2,2.9,1.2,4.6,0.8c1.7-0.4,3.3,0.4,4.8,1c1.7,0.6,3.5,1.2,5.2,2.1 c1,0.6,3.5-0.2,3.1,2.5c0,0.2,0.2,0.4,0.4,0.4c3.1,0,5.8,1.5,8.7,1.7c5,0.2,9.7-0.4,14.7,0.6c3.3,0.8,7.1,0.2,10.6,0.6 c3.5,0.4,7.1,1.5,10.6,1.7c0.4,0,0.6,0.2,0.6,0.6c0,0.6-0.4,0.8-0.8,0.8c-1.5,0-2.9,0-5,0c1,0.8,1.5,1.7,2.3,1.5 c1.5,0,2.9,0.4,4.1,0.6c1.7,0.2,3.3,1,5,1c5.2,0,10.6,0,15.8,0c1,0,1.9-0.4,2.7-0.8c0.6-0.2,1.5-0.6,1.5-1.5c0-1.2-1-0.6-1.7-0.8 c-2.3-0.6-4.8-1-7.3-0.8c-0.4,0-1.2,0.4-1.7-0.6c3.1-0.6,6.2,0.2,9.5-0.8c1.9-0.6,3.9-0.2,6,0c2.1,0.2,3.9-1.2,6-0.8 c3.5,0.6,7.1-1.2,10.6-0.8c0.2,0,0.4,0,0.6-0.2c2.3-1.2,4.6-0.4,7.1-0.2c-2.7,0-5.4,1.2-7.9,1.9c-2.9,0.8-6,1-8.9,2.1 c-1.5,0.6-2.9,0.8-4.6,0.8c-2.9-0.2-3.3,0.2-5.6,3.1c4.4-0.6,8.7,0.8,13.1-0.8c2.9,0.6,5.8-1,8.7-0.8c0.4,0,1,0.2,1,0 c1-1.5,2.9,0,4.1-1c1.2-1,2.7-0.4,4.1-1c1.2-0.4,2.7-0.6,4.1-0.8c2.1-0.4,4.6-0.6,6.4-1.7c2.3-1,4.8-0.4,6.6-2.1 c1.9,0.2,3.7-1.7,6-0.6c-0.6,0.4-0.8,1-1.7,1.2c-3.7,1-7.5,2.5-11.4,3.3c-2.7,0.6-5.4,1.7-8.3,1.9c-1.7,0.2-3.3,0.4-5,0.8 c-3.3,1-6.6,1.5-10.2,1.9c-3.3,0.4-6.4,1.5-9.7,0.8c-0.4,0-0.8,0-1.5,0.2c-2.3,0.8-4.6,1.5-7.1,1.2c-2.3-0.2-4.8,0-7.1,0 c-0.6,0-1.5-0.2-1.9,0c-1.9,1.2-3.9,0.2-5.8,0.8c-1.9,0.6-3.7,0.6-5.8,0.6c-5.2,0-10.4,0-15.3,0c-5.2-0.2-10.4,0.6-15.6-0.8 c-3.3,0.4-6.4-1.2-9.7-0.8c-0.6,0-0.8-0.4-1.2-0.4c-1.7-0.4-3.5-1-5.2,0.8c3.1,1.5,6.4,2.1,9.7,2.5c1,0.2,2.3-0.4,2.9,0 c1.9,1,3.9,0.6,5.8,0.6c2.1,0,3.7,1,5.8,0.8c2.5-0.2,5.2-0.6,7.7,0.6c3.5-0.4,7.1,0.6,10.6,0.6c5.2,0.2,10.6,0.2,15.8,0 c5.4-0.2,10.6,0.6,16-0.6c1.7-0.4,3.5-0.2,5.2,0c1.9,0.2,3.1-1,5-0.8c1.7,0.2,3.3-0.4,5-0.6c2.3-0.2,4.1-1.2,6.4-0.8 c1.9-1.7,4.1-0.6,6.2-1.5c3.7-1.2,7.9-1.7,11.8-2.5c3.5-0.6,6.8-1.7,10.2-2.5c4.4-1,8.7-2.5,12.9-4.1c1.9-0.6,3.7-1.9,6.2-1.9l0,0 c0-0.2,0.2-0.2,0.2,0c0.2-0.2,0.4-0.2,0.4-0.2c0,0.2-0.2,0.4-0.4,0.4l0,0c0.2,1.2,1,0.8,1.7,0.6c2.1-0.8,4.1-1.9,6.4-2.9 c3.9-1.9,8.1-3.3,11.2-6.4c-1-0.4-2.1-0.6-3.1,0.2c-1.5,1-3.3,0.6-4.8,1.2c-1.7,0.8-3.3,0.4-5,0.4c3.7-2.1,7.7-3.7,11.4-5.8 c5.6-3.1,11.6-6,17.2-9.1c2.3-1.2,4.8-2.5,6.8-4.4c2.1-1.9,5-2.3,6.8-4.4c0.4-0.4,0.8-0.2,1.5-0.2c0-1,1-0.6,1.5-0.8 c0-0.4-0.2-1,0-1c1.7-1.2,3.5-2.3,5.2-3.3c0.2-0.2,0.4,0,0.8,0c0.2-0.8,0.6-1.2,1.5-1.5c0.2,0,0.4,0,0.6,0.2 c0.2,0.2,0,0.2-0.2,0.6c-0.6,0.6-1,0.8-1.9,0.8c0,0.4,0.2,1,0,1c-1.7,1.2-3.5,2.3-5.2,3.3c-0.2,0.2-0.4,0-0.8,0c0,1-1,0.6-1.5,0.8 c0.2,1.2-0.4,1.7-1.5,2.3c-4.8,2.7-8.9,6.4-13.3,9.7c-0.4,0.4-0.6,0.8-0.2,1.2c0.4,0.6,0.6-0.2,0.8-0.2c3.7-1.9,7.5-3.9,11-6 c4.6-2.7,8.9-5.6,13.5-8.5c3.7-2.5,7.3-5.4,11-7.9c3.3-2.3,6.4-4.8,9.1-7.7c0.4-0.4,0.6-0.8,0.2-1.2c-0.4-0.6-0.8-0.2-1.5-0.2 c-0.2,0.2-0.4,0.6-0.4,0.4c-0.2,0-0.4-0.4-0.2-0.4c0.2-0.2,0.4-0.2,0.6-0.2v0.2c1.2-2.9,4.4-3.5,6-5.8c0.2-0.2,0.4-0.4,0.6-0.2 c1,1.5,1.9,0,2.5-0.2c1.5-0.8,3.1-1.7,4.4-3.1c0.6-0.8,1.5-1.5,0.2-2.5c-0.4-0.2-0.2-1,0.4-1.2c1.9-0.6,2.7-2.5,4.1-3.5 c1.5-1.2,2.9-2.5,4.6-3.7c4.8-3.9,8.3-8.9,12.2-13.7c1.9-2.3,3.5-4.8,5.2-7.1c2.1-2.7,3.3-6,5.4-8.7c0.8-1,0.8-2.1-0.4-3.1 c0,0.6-0.2,0.8-0.8,0.8c0,0.6-0.2,0.8-0.8,1c0,0.8,0,1-0.4,1c-0.2-0.2-0.2-0.6-0.2-0.8c0-0.2,0.2-0.4,0.4-0.4s0.2,0,0.4,0 c0-0.6,0.2-0.8,0.8-0.8c0-0.6,0.2-0.8,0.8-0.8c0-1.2,0.6-2.3,1.5-3.1c2.3-3.1,3.9-6.6,6.8-9.1c1.9-4.4,5-7.9,6.8-12.2 c1-2.5,2.9-4.4,3.7-6.6c1-3.1,2.3-6.2,3.5-9.1c2.5-5.8,4.4-12,6.2-18c0.4-1,0.8-2.3,0.8-3.3c0.2-3.9-0.2-7.9,0.8-11.8 c0.2-0.6,0.6-2.1-0.4-2.3c-1.7-0.4-0.6,1-1,1.9c0,0.2-0.4,0.4-0.4,0.6c-0.4,0.4-0.8,0.8-1.2,0.6c-1-0.6,0.2-0.8,0.2-1.2 c0.4-2.3,0.8-4.6,1.9-6.8c0.4-1,0.2-2.1,1-2.9c0.6-0.6,0.2-2.1,0-3.3c-0.2-1.9,0-3.7,0.8-5.4c1-2.3,2.5-4.6,2.5-7.3 c1-0.8,0.2-2.3,0.6-3.1c0.6-1,0.8-2.1,0.6-3.1c-0.4-2.7,1.2-5,0.8-7.7c1.5-3.5,1.7-7.1,1.5-10.6c0-0.6-0.2-1.5,0.2-1.9 c1-1,0.6-2.1,0.4-3.1C505.7,258.3,506.8,257.4,506.6,256z M50.3,110.4c-0.2,0-0.4-0.2-0.6-0.4c0.4-0.2,0.6-0.4,1-0.4 c0.2,0,0.4,0.2,0.6,0.4C51,110.2,50.5,110.4,50.3,110.4z M98.6,62.5c-0.6,0.6-1.5,0.6-2.3,0c0-0.2,0.2-0.2,0.2-0.2 c0.8,0.2,1.2-1,2.1-0.4C98.9,62.1,98.9,62.5,98.6,62.5z M149.2,29.7l-0.2-0.2c0.2,0,0.4-0.2,0.4-0.2l0.2,0.2 C149.7,29.5,149.5,29.7,149.2,29.7z M151.3,28.7c0.8-0.6,1.5-0.6,2.3,0C152.8,29.3,152.2,29.3,151.3,28.7z M103.4,410.7 c-0.4,0-0.8,0-0.8-0.8c0-0.4,0.2-0.6,0.6-0.8c0.4,0,1,0,1,0.8C104,410.5,103.6,410.7,103.4,410.7z M234.3,478.1 c-1.2,1.2-2.3-0.2-3.3-0.2c-0.8,0-1.9-0.2-2.7,0c-3.5,0.4-7.1-0.8-10.6-0.8c-2.5,0-4.8-1.2-7.3-1.5c-2.5,0-4.8-1.2-7.3-1.7 c-2.3-0.4-4.4-1.5-6.8-2.5c1-0.8,2.1-0.2,2.9-1c0.6-0.6,1.2,1,2.3,0.8c0.8-0.2,2.1-0.4,2.7,0.6c2.3-0.2,4.1,1.2,6.4,0.8 c1.7-0.2,2.9,0.8,4.6,0.8c1.5,0,2.9-0.6,4.4,0.6c0.4,0.4,1.5,0,2.3,0c1.2,0.2,2.7-0.4,3.9,0.6c0.4,0.4,1.7,0.2,2.1,0 c2.7-1.5,5.2-0.2,7.9-0.4c-1.7,1-3.3,0.2-5.2,0.8c2.3,1.7,5.2,0.8,7.5,2.5C236.8,478.3,235.1,477.1,234.3,478.1z M427.1,427.5 c-2.7,3.1-5.8,5.6-9.1,8.1c-4.8,3.5-10,6.4-14.3,10.4c-3.7,3.1-8.1,5-11.8,7.7c-1.9,1.2-3.9,2.1-5.8,3.5c-1.2,0.8-2.7,1.7-4.4,0.8 c5.6-3.5,11.2-7.1,16.4-11.2c4.4-3.3,8.7-6.6,12.6-10.4c1.5-1.2,2.9-2.5,4.4-3.7c0.2-0.2,0.8,0,1,0c0.2,0.2,0.2,0.6,0.2,1 l-0.2,0.2c-0.2,0.6-1.7,0.6-0.8,1.5c0.4,0.4,1-0.4,1.5-0.8c0.8-0.8,1.9-1.9,2.7-2.7c2.5-2.5,4.8-5.2,7.9-7.1 C427.8,426,427.8,426.7,427.1,427.5z M461.8,386.6c-0.8,0.6-1,1.5-1.7,2.3c-2.1,3.5-4.4,7.1-6.4,10.6c-2.1,3.3-4.8,6.2-6.8,9.5 c-1,1.7-2.5,2.9-3.7,4.4c-2.1,2.5-3.9,5.2-6.2,7.3c-0.8,0.6-1.5,0.6-2.7,0.4c1.2-1.2,2.1-2.5,3.1-3.7c1-1.2,0.2-1-0.6-1.5 c-0.4-0.2-0.4-1,0-1.2c2.3-0.4,2.3-2.9,3.9-4.1c1.5-1,2.7-2.3,3.3-4.1c0.6-1.9,2.3-2.9,3.5-4.6c1.5-2.1,2.9-4.1,4.4-6.2 c1-1.7,2.5-3.1,3.5-4.6c2.7-3.3,4.6-6.8,7.1-10.6C464.2,382.9,463.6,385,461.8,386.6z"/><path class="st0" d="M343.4,490.9c-0.2,0.2,0,0.4,0.2,0.4C343.6,491.2,343.6,491.2,343.4,490.9L343.4,490.9z"/><path class="st0" d="M41.4,305.8C41.4,305.8,41.4,305.6,41.4,305.8c0-0.2,0-0.2,0-0.2V305.8z"/><path class="st0" d="M440.6,130.7c-0.2,0-0.4,0-0.4,0.2c0.2,0,0.2,0,0.4,0V130.7z"/><path class="st0" d="M365.1,432.3L365.1,432.3c0-0.8-0.6-0.6-0.8-0.4c0,0.2-0.2,0.4-0.2,0.6C364.3,432.3,364.7,432.3,365.1,432.3z "/><path class="st0" d="M319.1,454.9c-0.2,0.2,0,0.4,0.2,0.4c0-0.2,0.2-0.2,0.2-0.4C319.5,454.9,319.3,454.9,319.1,454.9z"/><path class="st0" d="M74.2,373.2c0.6,1.2,1.9,2.1,2.3,3.1c0.6,1.5,2.3,1.5,2.9,2.7c0.2-1,0.2-1.7-0.2-2.3 c-1.2-1.9-2.5-3.7-3.9-5.4c-2.3-2.5-4.4-5.4-6-8.3c-1-2.1-3.1-3.3-3.9-5.4l-0.2-0.2c-0.2,0-0.6,0-0.6,0c-0.2,0.2-0.2,0.4-0.2,0.6 c-0.2,0.4,0.4,0.6,0.4,0.8c2.1,3.9,4.1,7.5,7.1,11C72.3,371.1,73.8,371.9,74.2,373.2z"/></g></g></svg>