<?xml version="1.0" encoding="utf-8"?><svg xmlns="http://www.w3.org/2000/svg" viewBox="0 0 330.3 72.8"><style type="text/css">.st4{fill:#A58E68;}.st5{fill:#78811D;}.st6{fill:#6E6C25;}.st7{fill:#829615;}.st8{fill:#63582E;}.st9{fill:#8DAA0C;}.st10{fill:#97BF04;}.st11{fill:#594336;}.st13{fill:#4C382E;}</style><g><g><path class="st4" d="M55.9,48.8L55.9,48.8L55.9,48.8L55.9,48.8C55.9,48.7,55.9,48.7,55.9,48.8z"/><path class="st5" d="M59,41.6c-0.1-0.8,0.1-1.5-0.1-2.3c-0.1-0.5-0.1-1-0.3-1.4c-0.1-0.4-0.2-0.8-0.5-1.2c0-0.1,0-0.1,0-0.2 c0-0.2-0.1-0.5-0.2-0.7c-0.2-0.5-0.5-1.1-0.8-1.6c-0.2-0.5-0.6-0.9-0.9-1.3c-0.1-0.2-0.3-0.4-0.5-0.6c-0.4-0.4-0.8-0.9-1.2-1.3 c-0.3-0.3-0.7-0.5-1-0.9c-0.4-0.1-0.6-0.4-0.8-0.6c-0.5-0.4-1-0.7-1.5-1s-0.9-0.5-1.4-0.7c-0.9-0.4-1.9-0.7-2.9-1 c-0.2-0.1-0.4-0.1-0.6-0.1s-0.4-0.2-0.6-0.2c-0.2,0-0.5,0-0.6-0.1c-0.3-0.1-0.6,0-0.8-0.1c-0.4-0.1-0.8-0.2-1.2-0.2 c-0.2,0-0.4-0.1-0.5-0.1c-0.2,0-0.4,0.1-0.6,0.1c-0.1,0-0.1,0-0.2,0C41.6,26,41.4,26,41.2,26c-0.8,0-1.7-0.1-2.5,0.1 c-0.4,0.1-1,0-1.4,0.1s-0.9,0.2-1.4,0.3c-0.6,0.1-1.3,0.3-1.9,0.5c-0.7,0.2-1.4,0.4-2,0.7c-0.3,0.2-0.7,0.3-1,0.4 c-0.5,0.2-1,0.5-1.4,0.7c-0.6,0.3-1.2,0.6-1.8,1s-1.2,0.6-1.6,1.2c-0.3,0.1-0.4,0.3-0.6,0.4c-0.2,0.1-0.4,0.3-0.6,0.5 c-0.4,0.3-0.7,0.6-0.7,1.1c1.1-0.8,2.1-1.6,3.2-2.4c0.3-0.2,0.5-0.4,0.8-0.5c0.2-0.1,0.4-0.2,0.6-0.4c0.1-0.1,0.2-0.1,0.3-0.2 c0.2-0.2,0.6-0.3,0.8-0.4c0.4-0.3,1-0.5,1.5-0.7h0.1v0.1c-0.2,0.1-0.5,0.2-0.7,0.4c-0.5,0.3-0.9,0.7-1.4,1 c-0.4,0.2-0.8,0.5-1.2,0.8c-0.3,0.3-0.7,0.5-1.1,0.7h-0.1c0-0.1,0-0.1,0-0.1c-0.1,0.1-0.2,0.1-0.3,0.2l0.1,0.1h-0.1 c0,0.1,0,0.1,0,0.1c-0.2,0.2-0.4,0.4-0.6,0.6c0,0-0.1,0-0.2,0l-0.1,0.1v-0.1h-0.1c-0.1,0.3-0.2,0.4-0.4,0.6 c-0.2,0.2-0.5,0.3-0.6,0.6h-0.1c-0.2,0-0.4,0.1-0.4,0.2c-0.3,0.4-0.8,0.7-1.1,1.1c-0.4,0.5-0.9,0.9-1.4,1.3 c-0.1,0.1-0.1,0.1-0.1,0.2c0,0.1-0.1,0.2-0.2,0.2s-0.2,0-0.4,0c0.5-0.2,0.5-0.5,0.7-0.8v-0.1c-0.2,0.1-0.4,0.2-0.5,0.4 c0,0-0.1,0-0.2,0c0-0.1,0-0.1,0-0.2c0.3-0.3,0.7-0.6,1-0.9c0.2-0.2,0.4-0.4,0.6-0.7v-0.1h-0.1c-0.1,0.1-0.1,0.2-0.2,0.2 c-0.1,0.1-0.3,0-0.4,0.1c-0.1,0-0.1,0.1-0.1,0.1c-0.5,0.5-1,1-1.6,1.4c-1.5,1.1-2.8,2.3-4.4,3.3c-0.2,0.1-0.4,0.4-0.6,0.4 l-0.1,0.1c0,0.2-0.1,0.3-0.3,0.4c-0.2,0.1-0.4,0.2-0.6,0.4c-0.2,0.1-0.4,0.3-0.6,0.4c-0.2,0.1-0.4,0.2-0.5,0.4l0.1,0.1 c-0.1,0.2-0.4,0.1-0.5,0.2c-0.2,0.2-0.6,0.3-0.6,0.6L12,42.3l-0.1,0.1c0.3,0.3,0.5,0.7,0.9,0.8c0.1,0,0.1,0.1,0.1,0.1 c0.1,0.3,0.4,0.3,0.7,0.3c0.5,0,0.9-0.2,1.3-0.4c0.8-0.4,1.6-0.6,2.3-1c0.6,0,0.8-0.4,1.3-0.6c0.4-0.2,0.7-0.5,1-0.7 c0.6-0.3,1.1-0.6,1.5-1c1-0.7,2-1.5,2.9-2.3c0.1-0.1,0.2-0.2,0.3-0.3c0.5-0.5,1-1,1.5-1.4c0.3-0.3,0.6-0.5,0.9-0.8 c0.2-0.2,0.5-0.4,0.7-0.6c0.4-0.5,1-0.9,1.5-1.3c0.4-0.4,0.9-0.6,1.4-0.9c0.5-0.4,1.1-0.7,1.7-1c0.4-0.2,0.8-0.4,1.3-0.6 c0.4-0.2,0.9-0.4,1.3-0.6c0.8-0.3,1.5-0.5,2.3-0.7c0.4-0.1,0.8-0.1,1.3-0.2c0.6-0.1,1.2-0.2,1.8-0.2c1,0,2-0.1,2.9,0.1 c0.3,0.1,0.7,0,1,0.1s0.5,0,0.8,0.1c0.6,0.2,1.3,0.4,1.9,0.5c1.3,0.4,2.4,0.9,3.4,1.6c0.7,0.4,1.3,0.9,1.8,1.5 c0.4,0.5,0.8,0.9,1.2,1.4s0.6,1.1,0.9,1.6c0.1,0.3,0.3,0.5,0.3,0.8c0,0.2,0.1,0.4,0.2,0.6c0,0.1,0.1,0.1,0.1,0.2 c0,0.4,0.2,0.8,0.1,1.3c0,0.1,0,0.1,0,0.2c0.2,0.2,0.1,0.4,0.1,0.6s0.1,0.4,0.1,0.6c0.1,0.4-0.1,0.6-0.1,1s0.1,0.8-0.1,1.1 c-0.1,0.2,0,0.4,0,0.6c0,0.2-0.1,0.4-0.1,0.6c-0.1,0.4-0.1,0.8-0.1,1.1l-0.1,0.1c0,0.4-0.3,0.7-0.3,1.1c0,0.2-0.1,0.4-0.2,0.6 c-0.1,0.4-0.3,0.7-0.4,1.1c-0.1,0.4-0.4,0.7-0.5,1.1c-0.2,0.4-0.4,0.9-0.7,1.3c-0.1,0.1-0.3,0.3-0.2,0.4c0,0.4-0.4,0.7-0.6,1.1 c-0.2,0.4-0.6,0.8-0.8,1.2c-0.2,0.2-0.4,0.5-0.5,0.7c-0.6,0.7-0.6,1-1,1c-0.1,0-0.1,0.1-0.1,0.1c-0.1,0.1-0.1,0.2-0.3,0.3 c-0.5,0.4-0.8,0.8-1.2,1.2c-0.2,0.3-0.5,0.5-0.7,0.8c-0.1,0.1-0.1,0.1-0.1,0.2c0,0.2-0.1,0.4-0.2,0.6c-0.1,0.1-0.1,0.2,0.2,0.2 c0.1,0,0.2,0.2,0.1,0.3c-0.1,0.1-0.3,0.3-0.4,0.4c-0.1,0.1-0.1,0.2,0,0.2c0.1,0.1,0.1,0,0.3,0c0.1,0,0.3,0,0.4-0.1 c0.1,0,0.2,0,0.2-0.1c0.1-0.2,0.2-0.1,0.4-0.1c-0.1,0.1-0.2,0.2-0.3,0.3c0.5,0.1,0.8-0.1,1.1-0.3c0.8-0.6,1.5-1.2,2.2-1.8 c0.2-0.2,0.5-0.4,0.6-0.6c0.2-0.3,0.4-0.6,0.6-1c0.3-0.4,0.6-0.7,0.7-1.1c0-0.1,0.1-0.2,0.2-0.3c0.1-0.1,0.2-0.1,0.3-0.2 c0.6-0.8,1.2-1.6,1.6-2.4c0.1-0.2,0.3-0.3,0.3-0.5s0.2-0.4,0.3-0.6c0.1-0.2,0.2-0.4,0.4-0.6c0,0.4-0.2,0.7-0.2,1s-0.3,0.6-0.1,1 c0-0.3,0.2-0.5,0.4-0.7c0.1-0.1,0.2-0.4,0.3-0.5c0.1-0.2,0.2-0.4,0.3-0.5c0.1,0.2,0,0.4-0.1,0.5c-0.3,0.4-0.4,0.8-0.8,1.2 c-0.1,0.1-0.1,0.2-0.1,0.3c-0.1,0.1-0.1,0.3-0.2,0.4c-0.3,0.3-0.2,0.5-0.2,0.9c0.2-0.1,0.3-0.2,0.4-0.4c0.4-0.5,0.7-1,1-1.5 c0.2-0.4,0.5-0.8,0.7-1.1c0.1-0.3,0.2-0.6,0.4-0.8c0-0.4,0.4-0.8,0.4-1.3c0.4-0.7,0.5-1.5,0.7-2.2c0.1-0.4,0.1-0.8,0.1-1.2 c0-0.1,0-0.1,0-0.2c0.2-0.2,0-0.5,0.1-0.7c0.2-0.3,0.1-0.5,0.1-0.8c0-0.1,0-0.3,0.1-0.4c0.1-0.1,0.1-0.1,0-0.2 C59,41.8,59,41.6,59,41.6z M12.3,42.3c0.3-0.2,0.3-0.2,0.5-0.3C12.7,42.2,12.6,42.3,12.3,42.3z M15.2,41.2L15.2,41.2 c0.1,0,0.1,0,0.1,0H15.2z M15.5,40.4c-0.5,0.2-0.8,0.6-1.2,0.9c-0.3,0.2-0.6,0.4-0.9,0.6c0,0-0.1,0-0.2,0c0.2-0.2,0.4-0.3,0.5-0.5 c-0.1,0-0.2,0-0.3,0c0.1,0,0.1-0.1,0.1-0.1l0.1,0.1c0.3-0.1,0.4-0.2,0.6-0.4c0.4-0.4,0.8-0.6,1.3-0.8 C15.5,40.2,15.5,40.4,15.5,40.4z M15.8,40.1C15.7,40.1,15.7,40,15.8,40.1C15.7,40,15.8,40,15.8,40.1C15.8,40,15.8,40,15.8,40.1z M15.8,39.8C15.9,39.8,15.9,39.8,15.8,39.8c0.1,0,0.1,0,0.1,0C15.9,39.9,15.9,39.9,15.8,39.8z M20.8,36.2 C20.8,36.3,20.9,36.3,20.8,36.2C20.8,36.3,20.8,36.3,20.8,36.2z M20.4,36.6L20.4,36.6L20.4,36.6L20.4,36.6z M20.3,36.7L20.3,36.7 L20.3,36.7L20.3,36.7z M20.4,36.7L20.4,36.7L20.4,36.7L20.4,36.7z M20.9,37.1h-0.1c0.1-0.1,0.1-0.1,0.2-0.2c0,0,0,0.1,0.1,0.1 C21,37.1,20.9,37.1,20.9,37.1z M23.6,34.7C23.5,34.6,23.5,34.6,23.6,34.7C23.6,34.6,23.6,34.6,23.6,34.7L23.6,34.7z M24.6,33.8 C24.6,33.9,24.6,33.9,24.6,33.8C24.5,33.9,24.5,33.9,24.6,33.8C24.5,33.9,24.6,33.8,24.6,33.8z M24.4,34 C24.4,33.9,24.4,33.9,24.4,34L24.4,34C24.5,34,24.5,34,24.4,34z M24.6,33.9L24.6,33.9L24.6,33.9L24.6,33.9z M28.4,30.9 c-0.1,0.1-0.1,0.2-0.1,0.2l0,0C28.2,31.1,28.3,31,28.4,30.9z M27.7,31.4L27.7,31.4L27.7,31.4C27.8,31.4,27.8,31.4,27.7,31.4z M28.1,31.3C28.1,31.2,28.1,31.2,28.1,31.3L28.1,31.3C28.1,31.2,28.1,31.2,28.1,31.3z M28.3,31.2C28.3,31.2,28.2,31.2,28.3,31.2 C28.4,31,28.5,31.1,28.3,31.2z M29.9,30.1C29.8,30,29.8,30,29.9,30.1C29.9,30,29.9,30.1,29.9,30.1z M30,29.9 c0.1-0.2,0.3-0.4,0.5-0.5h0.1l0.1,0.1C30.5,29.7,30.3,29.9,30,29.9z M32.2,29.1C32.1,29.1,32.1,29,32.2,29.1 c-0.1-0.1,0-0.2,0.1-0.2c0,0,0.1,0.1,0.2,0.1C32.3,29.1,32.2,29.1,32.2,29.1z M49.4,57c0.1-0.3,0.2-0.4,0.5-0.4 C49.8,56.7,49.7,56.8,49.4,57z M50.9,55.4C50.9,55.4,50.9,55.5,50.9,55.4L50.9,55.4L50.9,55.4z M50.3,56.2 C50.2,56.2,50.2,56.2,50.3,56.2c0.1-0.2,0.1-0.4,0.3-0.5c0.1-0.1,0.2-0.1,0.2-0.2c0,0,0,0,0.1,0c-0.1,0.1-0.1,0.2-0.1,0.2 C50.4,56.1,50.4,56.2,50.3,56.2z M50.9,55.5L50.9,55.5L50.9,55.5L50.9,55.5z M51.1,55.2c0.1-0.3,0.3-0.6,0.6-0.8 C51.6,54.7,51.5,55,51.1,55.2z M51.6,54.5C51.7,54.4,51.7,54.4,51.6,54.5c0.2-0.3,0.3-0.5,0.5-0.8C52.2,54,52.2,54.1,51.6,54.5z M54,51.4L54,51.4L54,51.4L54,51.4z M53.7,51.7L53.7,51.7c0-0.2,0.1-0.2,0.2-0.3c0,0,0,0,0.1,0C53.9,51.6,53.9,51.6,53.7,51.7 C53.8,51.7,53.8,51.7,53.7,51.7z M54,51.5L54,51.5L54,51.5L54,51.5z M56,48.7C56,48.8,55.9,48.8,56,48.7c-0.1,0.3-0.1,0.4-0.2,0.5 c0,0-0.1,0-0.1,0.1v-0.1C55.7,49,55.8,48.9,56,48.7L56,48.7c-0.1,0-0.1,0,0-0.1C55.9,48.7,55.9,48.7,56,48.7L56,48.7z M56,48.3 c-0.1-0.1,0-0.1,0-0.2C56.1,48.2,56.1,48.2,56,48.3C56.1,48.3,56.1,48.3,56,48.3z M58.1,38.4L58.1,38.4L58.1,38.4 C58,38.5,58,38.5,58.1,38.4C58,38.4,58.1,38.4,58.1,38.4z M58.4,39.9c-0.2-0.2,0-0.4-0.2-0.6c-0.1-0.1-0.1-0.4-0.1-0.5 C58.4,39.1,58.4,39.5,58.4,39.9z"/><path class="st6" d="M48,50.5c0-0.2,0.2-0.4,0.3-0.5c0.1-0.2,0.2-0.4,0.4-0.6c0.3-0.6,0.7-1.1,0.9-1.6c0.3-0.7,0.8-1.4,0.8-2.2 c0.2-0.4,0.3-0.9,0.4-1.3c0.1-0.2,0-0.5,0.1-0.6c0.1-0.2,0-0.4,0.1-0.6c0.1-0.2,0.1-0.4,0.1-0.6c0-0.2,0-0.5,0-0.7l0,0 c-0.1-0.7-0.1-1.3-0.1-2c0-0.1,0-0.1,0-0.1c-0.2-0.2-0.1-0.5-0.2-0.8c-0.1-0.4-0.2-0.7-0.4-1.1c-0.2-0.6-0.6-1.1-0.9-1.6 c-0.2-0.4-0.5-0.8-0.9-1.1c-0.5-0.5-1.1-0.9-1.6-1.3c-0.2-0.2-0.5-0.3-0.7-0.4c-0.5-0.2-1-0.4-1.5-0.6c-0.3-0.1-0.7-0.3-1-0.3 c-0.4-0.1-0.8-0.2-1.2-0.3c-0.3,0-0.6-0.1-1-0.1c-0.6,0-1.2,0-1.8,0c-0.1,0-0.2,0-0.3,0c-0.5,0.1-1,0.1-1.5,0.3 c-1.1,0-1.9,0.5-2.9,0.8c-0.6,0.4-1.4,0.6-2,1.1c-0.3,0.2-0.6,0.3-0.9,0.5c-0.3,0.2-0.6,0.4-0.9,0.6c-1,0.7-1.8,1.5-2.7,2.3 c-0.2,0.2-0.5,0.4-0.6,0.6c-0.3,0.4-0.7,0.7-1.1,1.1c-0.4,0.3-0.6,0.7-1.1,1c-0.4,0.5-0.9,0.9-1.4,1.3c-0.3,0.2-0.6,0.4-0.7,0.6 c-0.1,0.1-0.2,0.2-0.4,0.3c-0.2,0.1-0.3,0.2-0.5,0.3c-0.6,0.4-1.1,0.8-1.7,1.2L21,44.2c-0.6,0.3-1,0.6-1.5,0.9 c-0.4,0.2-0.8,0.5-1.3,0.7c-0.6,0.3-1.2,0.6-1.8,0.9c-0.8,0.5-1.7,0.9-2.5,1.3c-0.1,0.1-0.2,0.1-0.3,0.1c-0.5,0-0.7,0.2-0.8,0.6 c-0.1,0.2-0.2,0.4,0.1,0.6c0.1,0.1,0.1,0.1,0.1,0.2c-0.1,0.2,0.1,0.3,0.3,0.5c0.2,0.1,0.4,0.3,0.6,0.5c0.3,0.3,0.6,0.3,1,0.3 c0.1,0,0.3,0,0.4-0.1c0.2-0.1,0.4-0.1,0.7-0.2c0.4,0,0.7-0.1,1.1-0.3c0.7-0.3,1.4-0.5,2.1-0.8c0.1-0.1,0.3-0.1,0.4-0.2 c0.7-0.4,1.4-0.7,2-1.1c0.2-0.1,0.5-0.2,0.6-0.3c0.6-0.5,1.4-0.8,2-1.3c0.5-0.4,1-0.7,1.5-1.1c0.7-0.5,1.4-1.1,2-1.6 c0.2-0.1,0.3-0.4,0.6-0.5c0.4-0.5,0.9-0.8,1.3-1.3c0.2-0.3,0.6-0.5,0.8-0.8c0.2-0.3,0.5-0.5,0.7-0.7c0.4-0.4,0.7-0.7,1.1-1.1 c0.3-0.3,0.6-0.5,0.9-0.8c0.2-0.2,0.4-0.4,0.6-0.5c0.2-0.2,0.4-0.4,0.6-0.5s0.4-0.3,0.6-0.4c0.6-0.4,1.4-0.7,2.1-1.1 c0.8-0.4,1.7-0.6,2.7-0.7c0.7-0.1,1.5,0.1,2.2,0.1c0,0,0,0,0.1,0c0.7,0.2,1.3,0.4,1.9,0.8c0.5,0.3,0.9,0.6,1.3,0.9 c0.2,0.2,0.3,0.4,0.5,0.7s0.2,0.5,0.4,0.7s0.1,0.5,0.4,0.7c0.1,0.6,0.4,1.2,0.4,1.8c0,0.8,0.1,1.7-0.1,2.6 c-0.1,0.4-0.3,0.8-0.3,1.2l0,0c-0.1,0.3-0.2,0.5-0.3,0.8c-0.2,0.7-0.5,1.4-0.8,2c-0.4,0.6-0.7,1.3-1.2,1.9 c-0.3,0.4-0.4,0.8-0.7,1.1c-0.5,0.6-0.9,1.1-1.4,1.7c-0.4,0.4-0.8,0.9-1.2,1.3c-0.2,0.2-0.5,0.4-0.7,0.6c-0.2,0.2-0.4,0.4-0.6,0.6 c-0.2,0.2-0.4,0.4-0.6,0.6c-0.7,0.6-1.5,1.2-2.2,1.8c-0.2,0.2-0.6,0.4-0.7,0.6c-0.1,0.2-0.3,0.4-0.6,0.5c-0.2,0.1-0.3,0.3-0.5,0.4 c-0.1,0.1-0.1,0.1-0.1,0.1c-0.2,0.1-0.4,0.2-0.5,0.3s-0.3,0.3-0.4,0.4c-0.2,0.2-0.5,0.5-0.9,0.6c-0.2,0.1-0.4,0.1-0.4,0.3 c-0.1,0.2-0.3,0.4,0,0.6c0,0.2,0.2,0.4,0.1,0.6c-0.1,0.2,0.2,0.1,0.3,0.2c0,0.1,0.1,0.1,0.1,0.1c0.4,0,0.9,0,1.3,0 c0.2-0.2,0.6-0.1,0.8-0.2c0.2-0.1,0.6-0.2,0.8-0.3c0.6-0.3,1.3-0.6,1.8-0.9c1-0.6,1.9-1.2,2.7-1.8c0.4-0.3,0.7-0.5,1.1-0.8 c0.3-0.3,0.6-0.5,0.9-0.8c0.2-0.2,0.6-0.4,0.7-0.6c0.3-0.4,0.8-0.7,1.1-1.1c0.5-0.6,1-1.1,1.5-1.6c0.3-0.4,0.6-0.8,0.9-1.2 C47.2,51.7,47.6,51.1,48,50.5z M24.5,43.7C24.4,43.7,24.4,43.7,24.5,43.7C24.4,43.8,24.4,43.8,24.5,43.7 C24.4,43.7,24.4,43.7,24.5,43.7z M23.7,44.4C23.7,44.3,23.7,44.3,23.7,44.4L23.7,44.4z M24.4,43.8L24.4,43.8 C24.5,43.8,24.5,43.8,24.4,43.8z M39.9,33.6L39.9,33.6C39.9,33.6,39.9,33.5,39.9,33.6C40,33.6,40,33.6,39.9,33.6z M40.5,33.4 c0.2,0,0.5,0,0.7,0C41,33.6,40.8,33.5,40.5,33.4z M42.4,33.6c-0.2,0-0.5,0-0.8,0l-0.1-0.1l0.1-0.1c0.3,0,0.6,0.1,0.9,0.1 c0,0,0,0,0,0.1c0.4,0,0.7,0,1.1,0.4C43.2,33.8,42.8,33.7,42.4,33.6z M45.2,34.7C45.2,34.6,45.2,34.6,45.2,34.7 c0.1,0,0.2,0.1,0.3,0.1h-0.1C45.2,34.7,45.2,34.7,45.2,34.7z M45.4,34.8L45.4,34.8C45.5,34.8,45.5,34.8,45.4,34.8 C45.5,34.8,45.5,34.8,45.4,34.8z"/><path class="st7" d="M63.1,34.3c0-0.3-0.1-0.6-0.2-0.9c-0.1-0.2-0.2-0.4-0.3-0.7c-0.2-0.6-0.4-1.2-0.7-1.8 c-0.1-0.1-0.1-0.3-0.2-0.5c0,0,0-0.1,0.1-0.1c0,0,0.1,0,0.1,0.1c0.1,0.1,0.3,0,0.2,0.2c0,0.1,0.1,0.1,0.2,0.1 c0.1-0.1,0.2-0.1,0.1-0.3c-0.1-0.1-0.2-0.4-0.3-0.5S62,29.7,62,29.6c0-0.1,0-0.2,0.1-0.2s0.1,0.1,0.1,0.1c0,0.1,0,0.2,0.1,0.3 c0.2,0.2,0.4,0.4,0.4,0.7c0,0.1,0.1,0.1,0.2,0.2H63l0.1-0.1L63,30.5c-0.1-0.2-0.3-0.4-0.4-0.6c0.1-0.4-0.4-0.7-0.4-1.1 c-0.4-0.3-0.6-0.7-0.9-1.1c-0.3-0.4-0.6-0.7-0.9-1c-0.3-0.3-0.6-0.5-0.8-0.8c-0.1-0.1-0.3,0-0.2-0.2c0,0-0.2-0.1-0.3-0.1 c-0.1-0.1-0.2-0.1-0.3-0.2c-0.3-0.2-0.6-0.5-1-0.7c-0.7-0.4-1.4-0.8-2.1-1.2c-0.5-0.3-1-0.6-1.5-0.8c-1-0.4-2-0.8-3.1-1.1 c-0.4-0.1-0.7-0.2-1-0.3c-0.4-0.1-0.8-0.1-1.1-0.3c-0.8-0.1-1.5-0.3-2.3-0.4c-0.1,0-0.3-0.1-0.4-0.1c-0.2,0-0.4,0-0.5,0 c-0.4-0.1-0.8-0.1-1.2-0.2c-0.3-0.1-0.6,0-0.9-0.1c-0.2-0.1-0.5,0-0.8,0c-0.4,0.1-0.7,0.1-0.9,0.1c-0.8,0-1.6-0.1-2.4,0.1 c-0.6,0.1-1.1,0-1.7,0.1c-0.5,0.1-1,0.2-1.5,0.1c-0.1,0-0.1,0-0.2,0.1c-0.3,0.1-0.6,0.1-0.9,0.2c-0.6,0-1.2,0.2-1.7,0.3 c-0.6,0.1-1.1,0.2-1.6,0.4c-0.6,0.2-1.3,0.3-1.9,0.6c-0.6,0.2-1.2,0.4-1.8,0.6c-0.3,0.1-0.6,0.3-1,0.4c-0.3,0.1-0.7,0.3-0.9,0.5 c-0.3,0.2-0.7,0.3-1,0.5c-0.4,0.2-0.6,0.4-1.1,0.5c-0.7,0.5-1.4,0.8-2.1,1.3c-0.4,0.2-0.7,0.5-1,0.7c-0.4,0.3-0.7,0.5-1.1,0.7 c-0.7,0.6-1.5,1.1-2.2,1.8c-0.5,0.5-1,0.9-1.5,1.3c-0.1,0.1-0.2,0.1-0.3,0.2c-0.5,0.6-1.2,1.1-1.8,1.8c-0.3,0.3-0.6,0.5-0.9,0.8 c-0.4,0.4-0.8,0.9-1.3,1.4c-0.6,0.7-1.3,1.3-1.9,2c-0.2,0.2-0.2,0.5,0,0.8c0.1,0.1,0.2,0.3,0.2,0.5s0.3,0.4,0.6,0.4 c0.1,0,0.1-0.1,0.2,0c0.6,0.4,1,0.3,1.6-0.1c0.1-0.1,0.2-0.1,0.4-0.2c0.1-0.1,0.2-0.2,0.3-0.3s0.3-0.2,0.5-0.3 c0.3-0.1,0.6-0.3,0.8-0.5c0.6-0.4,1.1-0.8,1.6-1.3c0.2-0.2,0.5-0.4,0.7-0.6c0.2-0.2,0.4-0.4,0.7-0.6c0.9-0.7,1.7-1.4,2.5-2.1 c0.5-0.5,1.1-0.9,1.6-1.3c1.1-0.9,2.2-1.8,3.5-2.5c0.7-0.4,1.3-0.8,2.1-1.2c0.7-0.4,1.4-0.7,2.1-1.1c0.5-0.2,1-0.4,1.5-0.6 c0.9-0.3,1.8-0.6,2.7-0.8c0.4-0.1,0.7-0.2,1.1-0.3c0.6-0.1,1.3-0.2,1.9-0.3c0.1,0,0.3-0.1,0.4-0.1c0.4,0,0.7,0,1.1-0.1 c0.3-0.1,0.6,0,0.9,0c0.3,0,0.6-0.1,1-0.1c0.6,0,1.1,0,1.7,0c0.6,0,1.1,0.1,1.7,0.1c0.2,0,0.5-0.1,0.8,0.1c0.2,0.1,0.5,0,0.8,0.1 c0.4,0.1,0.7,0.2,1.1,0.2c0.7,0,1.3,0.2,1.9,0.4c0.5,0.1,1,0.3,1.5,0.4s0.9,0.3,1.3,0.5c0.4,0.2,0.8,0.3,1.2,0.5s0.8,0.4,1.1,0.6 c0.6,0.3,1.2,0.6,1.7,1c0.7,0.6,1.5,1.1,2.2,1.8c0.4,0.4,0.9,0.9,1.3,1.3c0.4,0.5,0.8,1,1.2,1.5c0.3,0.5,0.6,0.9,0.8,1.4 s0.5,0.9,0.7,1.4c0.1,0.1,0.1,0.4,0.5,0.4c0.1,0,0.3,0.2,0.4,0.3c0.2,0.2,0.2,0.5,0.3,0.8c0,0,0,0.1,0.1,0.1s0.1,0,0.2,0 c0.3-0.2,0.4-0.5,0.4-0.8c0-0.2,0-0.2,0.1-1.4c0.3,1.1,0.3,0.9,0.3,0.7C63.1,34.8,63.1,34.6,63.1,34.3z M38.4,22 C38.4,22,38.4,21.9,38.4,22c0.1-0.1,0.2-0.1,0.2,0C38.5,22,38.5,22,38.4,22z M42.7,22c-0.4,0-0.8,0.1-1.2-0.1L41.4,22 c-0.1,0-0.1,0-0.2-0.1l0.1-0.1c0.6,0,1.2-0.1,1.8,0.1c0.3,0.1,0.6,0,0.8,0V22C43.5,22,43.1,22.1,42.7,22z M44.1,22.1 C44.1,22.1,44.1,22,44.1,22.1c0.1-0.1,0.2-0.1,0.2,0C44.2,22.1,44.2,22.1,44.1,22.1z M44.6,22.1L44.5,22c0.1,0,0.1,0,0.2,0 c0.1,0,0.1,0,0.2,0.1C44.7,22.1,44.7,22.1,44.6,22.1z M62.1,32.7c-0.1-0.2-0.2-0.4-0.2-0.6c-0.1,0-0.1,0-0.1-0.1 c0.1,0,0.1,0,0.1,0.1l0,0c0.2,0.1,0.2,0.2,0.3,0.4c0,0.1,0.1,0.2,0.2,0.6c-0.1,0-0.1,0-0.1-0.1C62.2,32.9,62.2,32.8,62.1,32.7z M62.6,34.7L62.6,34.7c-0.1-0.1-0.1-0.3-0.1-0.4c0,0,0,0,0.1,0C62.6,34.4,62.6,34.6,62.6,34.7z M62.7,34c-0.1-0.1-0.1-0.3-0.2-0.5 l0.1-0.1l0,0c0.1,0.1,0.1,0.2,0.1,0.4C62.7,33.9,62.7,33.9,62.7,34z M62.7,33.4L62.7,33.4C62.7,33.5,62.7,33.5,62.7,33.4 C62.7,33.5,62.7,33.5,62.7,33.4z"/><path class="st8" d="M34,55.2c0.4-0.2,0.7-0.5,1-0.8s0.6-0.6,1-0.8c0.1,0,0.1-0.1,0.2-0.1c0.4-0.5,1-1,1.5-1.5s1-1,1.5-1.5 c0.3-0.3,0.6-0.5,0.8-0.8c0.4-0.5,0.8-1,1.2-1.5s0.8-1.1,1.1-1.6c0.4-0.6,0.7-1.2,0.9-1.8c0.4-0.8,0.6-1.5,0.5-2.4 c0-0.2,0-0.3,0-0.5c0-0.5,0-0.9-0.3-1.3c-0.1-0.2,0-0.4-0.1-0.6c-0.3-0.3-0.6-0.6-0.6-1c-0.4-0.4-0.7-0.7-1.3-0.9 c-0.4-0.1-0.7-0.2-1.1-0.3c-0.2,0-0.4-0.2-0.6-0.1c-0.1,0.1-0.3,0.1-0.4,0.1c-0.5,0-0.6,0.1-1.1,0.3c-0.2,0-0.4,0.2-0.8,0.2 c-0.1,0-0.3,0.1-0.5,0.1c-0.7,0.3-1.2,0.7-1.7,1.1c-0.5,0.4-0.8,0.8-1.2,1.2c-0.3,0.3-0.4,0.8-0.9,1c-0.6,0.8-1.3,1.6-2.1,2.3 c-0.5,0.5-1.1,1-1.5,1.5c-0.3,0.3-0.6,0.5-1,0.8c-0.3,0.3-0.6,0.5-1,0.8c-0.7,0.4-1.3,1-2,1.5c-0.6,0.4-1.2,0.8-1.8,1.3 C23.6,50,23.6,50,23.5,50c-0.5,0.2-1,0.5-1.4,0.8c-0.7,0.5-1.5,0.9-2.2,1.4c-0.2,0.2-0.5,0.3-0.8,0.4c-0.4,0.2-0.9,0.4-1.2,0.8 c0,0.1-0.2,0.1-0.3,0.1c-0.3-0.1-0.4,0.1-0.4,0.2c-0.1,0.3-0.1,0.6,0.2,0.8c0.1,0.1,0.3,0.1,0.3,0.3c0,0.3,0.3,0.4,0.6,0.5 c0.1,0,0.1,0.1,0.1,0.1c0.3,0.4,1.2,0.5,1.7,0.2c0.2-0.1,0.4-0.3,0.7-0.4c0.8-0.3,1.6-0.6,2.3-1.1c0.7-0.4,1.5-0.8,2.1-1.2 c0.5-0.4,1.1-0.6,1.6-1c0.8-0.6,1.5-1.1,2.3-1.7c0.1-0.1,0.2-0.2,0.3-0.2c0.3-0.1,0.5-0.3,0.7-0.5c0.3-0.4,0.8-0.7,1.2-1 c0.5-0.4,1-0.8,1.5-1.3c0.2-0.2,0.5-0.4,0.7-0.6c0.4-0.5,0.9-1,1.3-1.5c0.6-0.8,1.2-1.6,1.8-2.4c0.2-0.3,0.4-0.6,0.6-0.9 c0.2-0.3,0.5-0.6,0.8-0.9c0.3-0.3,0.5-0.7,1-0.8c0.1,0,0.2-0.1,0.3-0.1s0.3,0.1,0.4,0.2c0.2,0.3,0.4,0.5,0.4,0.8 c0,0.4,0.1,0.7-0.2,1.1c0,0,0,0.1,0,0.2c0.1,0.5,0.1,1-0.2,1.3c-0.1,0.1-0.1,0.2,0,0.2c0.1,0.1,0.1,0.1,0,0.2 c-0.1,0.2-0.2,0.4-0.4,0.8c0-0.2-0.1-0.3-0.1-0.4c-0.1,0.1-0.2,0.2-0.2,0.3c-0.2,0.4-0.6,0.7-0.8,1.1c-0.2,0.3-0.5,0.6-0.7,0.9 c-0.2,0.3-0.5,0.6-0.8,0.9c-0.3,0.4-0.6,0.8-1,1.1c-0.4,0.4-0.8,0.8-1.3,1.2c-0.4,0.4-0.9,0.8-1.3,1.1c-0.2,0.2-0.4,0.3-0.6,0.5 c-0.2,0.2-0.4,0.3-0.6,0.5c-0.2,0.1-0.4,0.3-0.6,0.5c-0.1,0.2-0.4,0.3-0.6,0.4c-0.9,0.7-1.8,1.3-2.7,2c-0.3,0.2-0.6,0.4-0.9,0.6 c-0.3,0.1-0.4,0.3-0.6,0.4c-0.2,0.1-0.5,0.3-0.6,0.4c-0.4,0.3-0.7,0.5-1.2,0.7s-0.6,0.5-0.5,0.9c0,0.1,0.1,0.2,0,0.2 c-0.2,0.1-0.1,0.2,0,0.3s0.2,0.2,0.3,0.2c0.3,0.2,0.6,0.1,0.9,0.3c0.1,0,0.2-0.1,0.4-0.1c0.4,0,0.8,0,1.3,0s0.8-0.1,1.3-0.3 c0.4-0.1,0.6-0.4,0.9-0.5c1.1-0.5,2-1.2,3-1.8C33,56,33.4,55.5,34,55.2z M38.7,38.6c-0.2,0.1-0.5,0.1-0.7,0.1 c0.1-0.5,0.1-0.5,0.7-0.5C38.7,38.3,38.7,38.5,38.7,38.6z"/><path class="st9" d="M11.2,29c0,0.1-0.1,0.3,0.1,0.4c0.1,0.1,0.3,0.1,0.5,0.2c0.3,0,0.6,0,0.8,0c0.1,0,0.1-0.1,0.1-0.1 c0.4-0.4,0.8-0.8,1.3-1.2c0.7-0.6,1.4-1.1,2.1-1.6c0.1-0.1,0.4-0.2,0.5-0.3c0.2-0.1,0.3-0.4,0.5-0.5c0.3-0.2,0.7-0.4,1.1-0.6 c0.5-0.3,0.9-0.7,1.4-1c0.1-0.1,0.1-0.1,0.2-0.2c0.3-0.1,0.6-0.3,0.9-0.5s0.6-0.4,1-0.6s0.8-0.5,1.3-0.7c0.5-0.3,1.1-0.5,1.7-0.8 c0.5-0.3,1.1-0.5,1.7-0.8c0.4-0.1,0.7-0.4,1.1-0.4c0.4-0.3,1-0.4,1.5-0.6c0.4-0.2,0.8-0.2,1.2-0.4c0.4-0.1,0.8-0.2,1.2-0.3 c0.5-0.1,1.1-0.3,1.6-0.4s0.9-0.2,1.4-0.3c0.4-0.1,0.8-0.1,1.1-0.2c0.1-0.1,0.3-0.1,0.4-0.1c0.5,0,1-0.1,1.5-0.1 c0.1,0,0.2-0.1,0.3-0.1s0.2,0.1,0.3,0.1c0.3-0.1,0.6-0.1,0.9-0.1c0.4,0,0.6-0.1,1-0.1c1.2-0.1,2.4,0.1,3.6,0.1c0.1,0,0.1,0,0.2,0 c0.4,0.1,0.8,0.1,1.2,0.2c0.3,0,0.5,0,0.8,0.1s0.6,0.1,0.9,0.1c0.3,0,0.6,0.1,0.8,0.1c0.8,0.2,1.7,0.4,2.5,0.6 c0.4,0.1,0.7,0.1,1.1,0.3c0.4,0.1,0.8,0.1,1.1,0.3c0.2,0.1,0.4,0.1,0.6,0.2c0.2,0.1,0.5,0.1,0.6,0.2c0.6-0.1,0.9,0.2,1.4,0.4 c0.2,0.1,0.5,0.2,0.7,0.2c0.4,0.1,0.8,0.1,1.1-0.1c0.2-0.1,0.3-0.4,0.6-0.4l0.1-0.1c0-0.4,0.1-0.8-0.4-1.1c0,0,0-0.1-0.1-0.1 c-0.5-0.4-1-0.9-1.6-1.2c-0.8-0.5-1.7-0.8-2.6-1.1c-0.3-0.1-0.6-0.2-0.9-0.3C51.3,16,51,16,50.7,15.8c-0.3-0.1-0.6-0.2-0.9-0.3 c-0.5-0.1-1-0.2-1.5-0.3c-0.3-0.1-0.6,0-0.8-0.1c-0.4-0.2-0.9-0.2-1.4-0.3c-0.6-0.1-1.1-0.2-1.7-0.2c-0.6,0-1.2-0.1-1.8-0.1 c-0.7,0-1.4,0-2.1,0c-0.7,0-1.3,0.1-2,0.1c-0.2,0-0.4,0-0.6,0c-0.2,0-0.4,0.1-0.5,0.1c-0.3,0.1-0.6,0-1,0.1c-0.3,0.1-0.6,0-1,0.1 c-0.5,0.1-1.1,0.1-1.7,0.2c-0.3,0-0.6,0-0.8,0.1c-0.4,0.1-0.7,0.1-1.1,0.3c-0.4,0.1-0.8,0.1-1.1,0.2c-1.3,0.3-2.5,0.7-3.7,1.1 c-0.7,0.3-1.3,0.5-2,0.8c-1.2,0.5-2.4,1-3.6,1.5c-0.3,0.1-0.7,0.3-1,0.5s-0.7,0.4-1.1,0.6c-0.6,0.3-1.1,0.7-1.7,1 c-0.4,0.2-0.6,0.5-1,0.7c-0.3,0.1-0.5,0.4-0.8,0.5c-0.3,0.2-0.6,0.3-0.8,0.5c-0.7,0.6-1.5,1.2-2.2,1.8c-0.1,0.1-0.1,0.1-0.1,0.1 c-0.2,0.3-0.5,0.6-0.8,0.9c-0.3,0.2-0.5,0.5-0.6,0.8c-0.2,0.4-0.2,0.8-0.4,1.1c-0.1,0.3-0.1,0.6,0.1,0.8 C11.2,28.7,11.1,28.8,11.2,29z"/><path class="st10" d="M17.4,18c0,0,0.1,0.1,0.2,0.1c0.6-0.1,1.1-0.2,1.5-0.5c0.1-0.1,0.2-0.1,0.3-0.1c0.6,0,0.9-0.3,1.3-0.5 c0.6-0.3,1.2-0.6,1.8-0.8c0.3-0.1,0.5-0.2,0.8-0.3c0.8-0.5,1.9-0.7,2.7-1.1c0.4,0,0.8-0.2,1.2-0.3c0.4-0.1,0.8-0.1,1.1-0.4h0.1 c0.4-0.1,0.9-0.2,1.3-0.4c0.8-0.2,1.5-0.5,2.4-0.6c0.6-0.1,1.1-0.3,1.7-0.3c0.3-0.1,0.6-0.1,1-0.2c0.3-0.1,0.7-0.1,1-0.1 c0.2,0,0.4-0.1,0.5-0.1c0.2,0,0.4,0.1,0.5-0.1c0.5,0,0.9,0,1.3-0.2C38.5,12,39,12,39.5,12c0.7-0.1,1.4,0,2.1,0 c0.7,0,1.4-0.1,2.1-0.1c0.2,0,0.5-0.1,0.7,0.1c0.2,0.1,0.9-0.4,0.9-0.5c-0.3-0.2,0.1-0.3,0.1-0.4c0.1-0.2,0-0.4,0-0.7 c0,0,0-0.1-0.1-0.1c-0.5-0.1-0.8-0.4-1.4-0.5c-0.3,0-0.5-0.1-0.8-0.2c-0.5-0.2-1.1-0.2-1.6-0.3c0.1,0-0.1,0-0.4,0 c-0.6,0-1.1,0-1.7-0.1c-0.4-0.1-0.9,0-1.4,0c-0.4,0-0.9,0-1.3,0.1c-0.6,0.1-1.1,0-1.7,0.1c-0.5,0.1-0.9,0.1-1.4,0.1h-0.1 c-0.4,0.1-0.9,0.2-1.3,0.3c-0.5,0.1-1,0.3-1.6,0.3c-0.4,0.3-1.1,0.2-1.5,0.5c-1.3,0.3-2.5,0.8-3.7,1.2c-0.5,0.2-1,0.4-1.4,0.6 c-0.3,0.1-0.6,0.3-0.9,0.4c-0.5,0.3-1,0.5-1.5,0.7c-0.3,0.2-0.6,0.3-0.9,0.5c0,0,0,0.1-0.1,0.1c0.1,0,0.1,0,0.1,0 c0.2-0.1,0.4-0.1,0.5-0.2c0.7-0.4,1.4-0.7,2.2-1.1c0.2-0.1,0.5-0.3,0.7-0.3c0.4,0,0.6-0.1,0.9-0.3c0.1-0.1,0.3-0.1,0.4-0.1l0,0 c0.1,0,0.1,0,0.1,0c0.1,0,0.1,0,0.2,0c-0.1,0-0.1,0-0.2,0.1l0,0c-0.1,0.1-0.2,0.2-0.3,0.2c-0.1,0.1-0.2,0.1-0.3,0.2 c0.2,0,0.4-0.1,0.6-0.1c0,0.1-0.1,0.2-0.2,0.2c-0.8,0.3-1.6,0.7-2.4,1c-0.1,0-0.2,0.1-0.3,0.1c-0.1,0.1-0.1,0.1,0.1,0.2 c0.2-0.3,0.6-0.3,0.8-0.4h0.1v0.1c-0.3,0.1-0.5,0.2-0.9,0.4l-0.1,0.1c-0.4,0-0.6,0.1-0.8,0.3c-0.5,0.3-1.1,0.5-1.5,0.8 s-0.9,0.3-1.1,0.7c0.1,0,0.2,0,0.2,0c0.4-0.2,0.8-0.3,1.1-0.6c0.1-0.1,0.3-0.2,0.5-0.2c0-0.1,0.1-0.1,0.3-0.1 c0.1-0.2,0.4-0.3,0.6-0.3l0,0c0.1,0,0.1,0,0.1,0c0.1,0,0.1,0,0.2,0c-0.1,0-0.1,0-0.2,0.1l0,0c-0.2,0.2-0.4,0.3-0.7,0.3 c0,0.1-0.1,0.1-0.3,0.1c-0.1,0.1-0.2,0.2-0.4,0.3c-0.5,0.3-1,0.5-1.4,0.8c-0.6,0.3-1.2,0.7-1.7,1l-0.1,0.1 c0.1,0.3-0.2,0.4-0.4,0.6C17.1,17.8,17.4,17.8,17.4,18z M32.6,10.4C32.6,10.4,32.5,10.4,32.6,10.4C32.5,10.4,32.5,10.4,32.6,10.4 C32.5,10.4,32.5,10.4,32.6,10.4z M28.2,11.3c0.2,0.2-0.5,0.3-0.6,0.3l0,0c0.1-0.1,0.3-0.2,0.4-0.2C28,11.3,28.1,11.2,28.2,11.3z M27.3,11.6C26.9,11.8,26.5,12,26,12C26.5,11.8,26.9,11.7,27.3,11.6z M24.8,13.2L24.8,13.2L24.8,13.2L24.8,13.2z M25.1,13L25.1,13 C25.1,13.1,25.1,13.1,25.1,13L25.1,13z M24.9,13.1C24.8,13.1,24.8,13.2,24.9,13.1C24.8,13.2,24.8,13.2,24.9,13.1 C24.8,13.2,24.8,13.1,24.9,13.1z M24.8,13.2L24.8,13.2C24.7,13.3,24.7,13.3,24.8,13.2C24.7,13.2,24.7,13.2,24.8,13.2z"/><path class="st10" d="M25.4,12.2L25.4,12.2L25.4,12.2L25.4,12.2z"/><path class="st4" d="M21.9,14.6L21.9,14.6L21.9,14.6L21.9,14.6z"/><path class="st5" d="M53.3,54.5c-0.1,0.2-0.3,0.4-0.4,0.6c-0.3,0.3-0.6,0.6-0.9,0.9v0.1c-0.1,0-0.1,0-0.1,0.1c0,0,0.1,0,0.1-0.1 l0,0c0.4-0.4,0.8-0.6,1.1-1c0.6-0.7,1.1-1.4,1.6-2.2c0.1-0.1,0-0.2,0.1-0.4c-0.3,0.4-0.5,0.6-0.7,0.9 C53.8,53.9,53.5,54.2,53.3,54.5z"/><path class="st10" d="M17.7,16.6c0.1,0,0.2,0,0.2,0c0.3-0.3,0.7-0.4,1.1-0.6l0.1-0.1c-0.1,0-0.3,0-0.4,0.1 C18.3,16.1,18,16.4,17.7,16.6z"/><path class="st7" d="M63.4,32.3c0-0.3-0.1-0.6-0.4-0.8C63.1,31.8,63.1,32.1,63.4,32.3z"/><path class="st5" d="M26,32c0.2-0.1,0.4-0.3,0.5-0.4C26.2,31.7,26.1,31.8,26,32z"/><path class="st5" d="M22.1,35.4c-0.2,0.1-0.4,0.2-0.4,0.4C22,35.7,22.1,35.6,22.1,35.4z"/><path class="st5" d="M51.5,56.6L51.5,56.6c0.3,0.1,0.2-0.1,0.3-0.1c0,0,0,0,0.1-0.1c-0.1,0-0.1-0.1-0.1-0.1 C51.6,56.4,51.5,56.5,51.5,56.6z"/><path class="st7" d="M63.5,32.8c0-0.2,0-0.3,0-0.5C63.4,32.5,63.4,32.7,63.5,32.8z"/><path class="st10" d="M19.7,14.7c0.1-0.1,0.3-0.2,0.4-0.3C19.8,14.4,19.8,14.4,19.7,14.7z"/><path class="st5" d="M22.9,33.9c-0.1,0.1-0.2,0.1-0.3,0.3C22.8,34.2,22.9,34.1,22.9,33.9z"/><path class="st5" d="M27.5,30.9C27.4,31,27.2,31,27,31.1C27.4,31.1,27.5,31.1,27.5,30.9z"/><path class="st7" d="M62.5,31c0.1,0.1,0.1,0.1,0.2,0.2l0.1-0.1C62.7,31.1,62.7,31.1,62.5,31C62.6,31,62.5,31,62.5,31z"/><path class="st10" d="M17.7,16.7c-0.1,0-0.1-0.1-0.2,0s0,0.1,0,0.2C17.6,16.8,17.7,16.7,17.7,16.7z"/><path class="st10" d="M24.6,12.7c0.1,0,0.2,0.1,0.3-0.1C24.8,12.6,24.6,12.6,24.6,12.7z"/><path class="st10" d="M20.4,14.3c-0.1,0-0.2-0.1-0.3,0.1C20.2,14.4,20.4,14.4,20.4,14.3z"/><path class="st7" d="M62.9,31.5C63,31.5,63,31.5,62.9,31.5C63,31.6,63,31.6,62.9,31.5C63,31.5,63,31.5,62.9,31.5z"/><path class="st5" d="M23.5,33.8C23.4,33.9,23.4,33.9,23.5,33.8C23.4,33.9,23.4,33.9,23.5,33.8C23.5,33.9,23.5,33.9,23.5,33.8z"/><path class="st5" d="M23.1,34.1C23,34.1,23,34.1,23.1,34.1L23.1,34.1L23.1,34.1z"/><path class="st5" d="M22.3,35.3C22.4,35.2,22.4,35.2,22.3,35.3C22.3,35.2,22.3,35.2,22.3,35.3L22.3,35.3z"/><path class="st10" d="M24.6,12.8L24.6,12.8L24.6,12.8C24.6,12.8,24.6,12.7,24.6,12.8z"/><path class="st10" d="M20.4,14.2L20.4,14.2C20.4,14.2,20.4,14.3,20.4,14.2C20.5,14.2,20.5,14.2,20.4,14.2z"/><path class="st10" d="M19.5,14.9L19.5,14.9C19.4,14.9,19.4,14.9,19.5,14.9C19.4,15,19.5,14.9,19.5,14.9z"/><path class="st5" d="M27.9,30.7C27.8,30.7,27.8,30.7,27.9,30.7L27.9,30.7L27.9,30.7z"/><path class="st10" d="M19.7,14.7L19.7,14.7L19.7,14.7L19.7,14.7z"/><path class="st5" d="M23,33.8C22.9,33.9,22.9,33.9,23,33.8C22.9,33.9,22.9,33.9,23,33.8C23,33.9,23,33.9,23,33.8z"/><path class="st5" d="M54.9,51.9C54.9,51.8,54.9,51.8,54.9,51.9C54.9,51.8,54.9,51.8,54.9,51.9C54.9,51.8,54.9,51.8,54.9,51.9z"/><path class="st5" d="M54.5,52.4C54.5,52.5,54.5,52.5,54.5,52.4C54.5,52.5,54.5,52.5,54.5,52.4C54.6,52.5,54.6,52.5,54.5,52.4z"/><path class="st5" d="M25.9,32.2C25.8,32.3,25.8,32.3,25.9,32.2C25.8,32.3,25.9,32.3,25.9,32.2C25.9,32.3,25.9,32.3,25.9,32.2z"/><path class="st5" d="M26,32C25.9,32.1,25.9,32.1,26,32C26,32.1,26,32.1,26,32C26,32.1,26,32,26,32z"/><path class="st5" d="M26.7,31.5h0.1v-0.1C26.8,31.5,26.7,31.5,26.7,31.5z"/></g><g><path class="st4" d="M63.1,13.6L63.1,13.6L63.1,13.6z"/><path class="st4" d="M18.5,6.8L18.5,6.8C18.5,6.7,18.5,6.8,18.5,6.8L18.5,6.8z"/><path class="st4" d="M63.1,13.6L63.1,13.6L63.1,13.6z"/><path class="st4" d="M61.1,10.9C61,10.9,61,10.9,61.1,10.9C61.1,11,61.1,11,61.1,10.9C61.1,11,61.1,11,61.1,10.9z"/><path class="st4" d="M66.6,55.5L66.6,55.5L66.6,55.5z"/><path class="st4" d="M66.6,55.5L66.6,55.5C66.6,55.5,66.5,55.5,66.6,55.5z"/><path class="st11" d="M72.2,36.5c0-0.5,0-1,0-1.4s0-1-0.1-1.4C72,33.2,72,32.6,72,32.1c-0.1-0.4-0.1-0.9-0.2-1.3 c0-0.1-0.1-0.3-0.1-0.3c-0.3,0-0.1-0.4-0.3-0.4c0-0.2-0.1-0.4-0.1-0.6c0-0.1-0.1-0.3,0-0.3c0.2,0,0.1-0.1,0.1-0.3 c0-0.3,0-0.5-0.1-0.8c-0.1-0.4-0.2-0.9-0.3-1.3c-0.2-0.6-0.3-1.2-0.7-1.7c0,0-0.1-0.1-0.1-0.2c-0.2-0.7-0.6-1.3-0.8-2 c-0.2-0.5-0.4-1-0.6-1.5c-0.1-0.3-0.3-0.5-0.4-0.7c0-0.1-0.1-0.1-0.1,0c-0.1,0-0.1,0.1-0.1,0.1c0.2,0.3,0.3,0.6,0.4,1l0,0 c0.2,0.5,0.4,1.1,0.6,1.5c0.1,0.1,0.1,0.3,0.2,0.5c0.1,0.8,0.4,1.6,0.7,2.4c0.1,0.2,0.1,0.4,0,0.6c-0.2-0.5-0.4-0.8-0.5-1.3 c0-0.1,0-0.1-0.1-0.1s-0.1,0-0.1,0.1s0,0.2,0,0.3c0.1,0.2,0.1,0.4,0,0.7c-0.1-0.1,0-0.2-0.1-0.3c-0.3-0.6-0.5-1.3-0.7-1.9 c-0.1-0.2-0.3-0.4-0.1-0.7c0.1-0.1,0-0.3,0-0.4c-0.1-0.3-0.3-0.5-0.4-0.8c-0.1-0.4-0.3-0.7-0.4-1c-0.1-0.4-0.3-0.7-0.4-1.1 c-0.3-0.6-0.7-1.3-1-1.8c-0.4-0.6-0.9-1.2-1.2-2c-0.4-0.4-0.7-0.9-1-1.4c-0.2-0.4-0.5-0.7-0.8-1.1c-0.1-0.1,0-0.1,0-0.2 c-0.1,0-0.1-0.1-0.1-0.2c-0.1,0-0.1,0-0.1-0.1h0.1c0,0,0.1,0,0.1,0.1v0.1c0.2,0,0.1,0.1,0.1,0.2c0.1,0,0.2,0,0.2,0.1 c0.1,0.1,0.1,0.2,0.1,0.3c0.5,0.6,1.1,1.2,1.6,1.9c0.2,0.3,0.4,0.5,0.6,0.8c0.5,0.6,0.9,1.2,1.3,1.8c0.2,0.4,0.6,0.7,0.7,1.1 c0.1-0.3,0.1-0.5-0.1-0.7c-0.4-0.6-0.7-1.2-1-1.8c-0.4-0.7-0.9-1.4-1.4-2.1c-0.5-0.7-1-1.3-1.5-1.9c-0.3-0.4-0.7-0.7-1-1.1 c-0.6-0.8-1.5-1.3-2.2-2.1c-0.1-0.1-0.1-0.1-0.2,0c-0.1,0.1-0.1,0.1,0,0.2c0.1,0.1,0.3,0.3,0.4,0.4C61,10.9,61,10.9,61,11l0,0 c0,0,0.1,0.1,0,0.1c0.1,0.1,0,0.1,0,0.1c-0.1,0-0.1-0.1-0.1-0.1l0,0c-0.1-0.1-0.1,0-0.2-0.1c-0.4-0.5-0.9-0.8-1.3-1.2 c-0.3-0.3-0.6-0.5-1-0.8c-0.2-0.2-0.4-0.4-0.6-0.7c0.1,0,0.2,0,0.2,0c-0.4-0.4-0.9-0.6-1.2-1c-0.4-0.1-0.6-0.4-0.9-0.6 c-0.6-0.3-1.2-0.8-1.8-1.1c-0.4-0.2-0.8-0.5-1.2-0.7c-0.3-0.1-0.5-0.3-0.8-0.3c-0.4-0.4-0.9-0.5-1.4-0.7c-0.3-0.1-0.6-0.3-1-0.4 c-0.2,0-0.5-0.1-0.7-0.1c-0.3,0-0.4-0.2-0.6-0.2c-0.5-0.1-1-0.3-1.5-0.4c-0.6-0.2-1.2-0.4-1.8-0.4c-0.1,0-0.1,0-0.1,0 c-0.4-0.1-0.8-0.2-1.3-0.1c0.1,0.1,0.1,0.1,0.1,0.2c-0.1,0.1-0.1,0.1-0.2,0c-0.1-0.1-0.3-0.1-0.4,0c-0.2,0-0.2-0.2-0.4-0.2 c-0.3,0-0.5-0.1-0.8-0.1c-0.3-0.1-0.6-0.1-0.8-0.2c-0.6-0.2-1.3-0.3-2-0.3c0,0,0,0-0.1,0.1c0.1,0.1,0.2,0,0.3,0.1 c-0.6,0.1-1.1-0.1-1.6-0.1c-0.1-0.2-0.3,0-0.4-0.2c-0.1-0.2-0.3-0.1-0.5-0.1s-0.4,0-0.6,0c-0.2,0-0.4,0.1-0.6,0.1 c-0.7-0.1-1.4,0.1-2.1-0.1c-0.4-0.1-0.7,0-1.1,0.1c-0.4,0.1-0.8,0.1-1.2,0.1C30.8,1.8,30.4,2,30,1.9c-0.1,0.2-0.4,0.1-0.6,0.3 c0.1,0,0.1,0,0.1,0c0.1,0.1,0,0.1,0,0.1l-0.1,0.1c-0.4,0-0.8,0.1-1.1,0.2c-0.6,0.1-1.2,0.4-1.8,0.6c-0.1,0-0.2,0.1-0.1,0.2 c0,0.1,0.1,0.1,0.2,0.1c-0.5,0.1-1,0.3-1.5,0.5c-0.5,0.3-1.2,0.3-1.8,0.7c-0.2,0.1-0.5,0.3-0.8,0.1c0.2-0.2,0.4-0.4,0.5-0.5 c-0.1-0.1-0.2-0.2-0.4-0.1c-0.1,0-0.2,0.1-0.4,0.1C22.1,4.4,22,4.4,22,4.2c0-0.1,0-0.1-0.1-0.1c-0.4,0.1-0.7,0.3-1.1,0.4 c-0.1,0.2-0.4,0.2-0.6,0.4C20.1,5,20.1,5,20.1,5.1s0.2,0,0.2,0.1s-0.1,0.1-0.2,0.2c-0.1,0-0.2,0.1-0.3,0.1c-0.4,0.3-0.5,0.3-1,0.3 c-0.1,0-0.1,0.1-0.2,0.1c-0.4,0.2-0.8,0.4-1.1,0.8c-0.2,0-0.2,0.1-0.2,0.2c0,0.2,0.2,0.1,0.3,0.1c0.2-0.1,0.4-0.1,0.6-0.1 c0-0.1,0-0.1,0.1-0.1l0,0c0,0,0.1-0.1,0.1,0c0.1-0.1,0.1,0,0.1,0c0,0.1-0.1,0.1-0.1,0.1l0,0C18.3,7,18.3,7,18.3,7 c-0.3,0.2-0.6,0.4-0.9,0.5c-0.2,0.1-0.4,0.1-0.5,0.2c-0.4,0.3-0.8,0.5-1.1,0.8c-0.3,0.2-0.6,0.4-0.8,0.6c-0.1,0.1-0.1,0.1-0.2,0V9 c0.1-0.1,0.3-0.4,0.4-0.4c0.4-0.2,0.6-0.6,1.1-0.9c-0.1,0-0.1-0.2-0.3-0.1c-0.3,0.3-0.6,0.4-0.9,0.7c-1,0.6-1.8,1.4-2.7,2.1 c-0.4,0.5-1,0.8-1.3,1.3c-0.5,0.6-1.2,1.2-1.7,1.8c-0.1,0.2-0.3,0.3-0.3,0.5c0,0.1-0.3,0.3,0.1,0.3c0.1,0,0,0.1,0,0.2 c-0.1,0.4-0.4,0.6-0.6,0.9c-0.1,0.1-0.2,0.3-0.3,0.4s-0.2,0.1-0.2-0.1c0-0.1,0-0.1-0.1-0.2c-0.5,0.4-0.8,1-1.2,1.6 c-0.5,0.8-0.9,1.7-1.5,2.5c-0.2,0.3-0.3,0.7-0.4,1s-0.3,0.6-0.4,0.9c-0.2,0.3-0.4,0.6-0.5,0.9c-0.1,0.2-0.2,0.4,0,0.7 c0.2-0.2,0.3-0.3,0.4-0.4c-0.3,0.6-0.5,1.2-0.8,1.8c-0.1-0.1,0-0.3-0.1-0.3c-0.3,0.2-0.4,0.6-0.5,0.9S2.7,25.7,2.9,26 c0,0,0,0,0,0.1c-0.1,0.2-0.1,0.5-0.2,0.7c-0.2,0.2,0,0.5-0.2,0.7c0.1,0.2-0.1,0.4-0.1,0.6s-0.2,0.4-0.1,0.6 c0.1,0.2-0.1,0.4-0.1,0.6c0,0.3-0.1,0.6-0.1,1c0,0.3-0.2,0.6-0.2,0.9s-0.2,0.6-0.1,1v0.1c-0.2,0.2-0.1,0.4-0.1,0.6 c0,0.2-0.1,0.4-0.1,0.6c0,1.1,0,2.2,0,3.3c0,0.1-0.1,0.3,0.1,0.4c0,0.4,0.3,0.6,0.3,1c0,0,0.1,0.1,0,0.1c-0.3,0-0.2,0.2-0.2,0.4 c0,0.3,0,0.6,0.1,0.9C2,40,2,40.3,2.2,40.6c0.1-0.2,0.2-0.4,0.2-0.6s-0.1-0.4-0.1-0.6c-0.1-0.3-0.1-0.6,0-0.9 c0-0.3-0.1-0.6-0.1-0.9c0-0.5,0.1-1,0.1-1.5c0-0.2,0-0.4,0.1-0.6c0.2-0.3,0.2-0.6,0.2-0.9c0,0,0.1,0,0.1-0.1c0,0.1,0,0.2,0,0.3 c0,0.4-0.1,0.8,0.3,1.1V36c0.1,0.2,0,0.5,0,0.8c0,0.2,0,0.4,0.1,0.5s0.1,0.3,0.1,0.4c0,0.2,0,0.5,0,0.7c0,0.3,0.2,0.4,0.2,0.6 c0,0.3,0.1,0.6,0.3,0.8c0.2,0.3,0.1,0.6,0.3,0.8c0,0.6,0.4,1,0.4,1.6c0.2,0.1,0.1,0.5,0.4,0.6c-0.1-0.3,0.1-0.5-0.1-0.7 c0,0,0.1,0,0.1-0.1c0,0,0,0,0.1,0S5,42.1,5,42.1c0.2,0.4,0.4,0.8,0.5,1.2c0.1,0.1,0.2,0.3,0.2,0.4c0.1,0.6,0.3,1,0.6,1.2 c0.1,0.1,0.2,0.3,0.2,0.4c0,0.3,0.2,0.4,0.3,0.7C6.9,46.1,7,46.2,7,46.3c0,0.3,0.1,0.4,0.3,0.6c0.2,0.3,0.5,0.6,0.6,0.9 c0,0.1,0.1,0.2,0.2,0.4s0.3,0.4,0.4,0.6c0.2,0.4,0.4,0.7,0.7,1.1C9.2,50,9.3,50,9.4,50c0.1,0,0.1-0.1,0.1-0.2 c0-0.1,0.2-0.1,0.1-0.3c-0.3-0.4-0.7-0.8-0.9-1.3c-0.3-0.1-0.3-0.4-0.4-0.5c-0.1-0.1-0.4-0.2-0.3-0.4c-0.1,0-0.2-0.1-0.2-0.2 c0.1-0.3-0.1-0.5-0.2-0.8c-0.2-0.4-0.4-0.7-0.5-1.1c-0.2-0.4-0.3-0.9-0.4-1.6c0,0,0,0,0,0.1c0,0,0.1,0.1-0.1,0.1l-0.1-0.1 c0-0.1,0-0.2,0.1-0.1l0,0c0.1,0.2,0.1,0.1,0.1,0.1c0.1-0.7-0.2-1.3-0.4-1.9c-0.1-0.4-0.4-0.6-0.5-1c0-0.1,0-0.2-0.1-0.3 c-0.3-0.3-0.3-0.6-0.3-0.9c0-0.3,0.1-0.6-0.1-0.8c0-0.1,0.1-0.1,0.1-0.1c0.1-0.1,0.3-0.2,0.1-0.4c-0.1-0.1,0.1-0.2,0.1-0.3 s-0.2-0.2-0.2-0.2c0-0.2-0.2-0.4-0.1-0.5c0.1-0.2,0.1-0.5,0.1-0.7c0-0.1,0.2-0.3,0.1-0.4c-0.1-0.2-0.1-0.4-0.1-0.6 c0-0.6,0-1.1,0-1.6c0-0.1,0-0.2,0-0.3c0.1-0.2,0.1-0.5,0.1-0.7c0-0.3,0.1-0.5,0.1-0.7c0-0.4,0-0.7,0.1-1.1s0.1-0.9,0.2-1.3 c0.1-0.5,0.2-1.1,0.3-1.6c0.1-0.6,0.3-1.2,0.5-1.8c0.2-0.8,0.5-1.5,0.8-2.2c0.4-0.8,0.7-1.7,1.1-2.5c0.5-1.1,1.1-2.1,1.8-3.1 c0.4-0.6,0.8-1.1,1.1-1.6c0.6-0.9,1.4-1.8,2.1-2.6c0.4-0.4,0.8-0.8,1.2-1.3c0.4-0.4,0.9-0.7,1.3-1.2l0.1-0.1 c0.6-0.4,1.2-0.9,1.8-1.3c0.5-0.3,0.9-0.6,1.4-1c0.3-0.2,0.7-0.4,1-0.6c0.7-0.4,1.2-0.7,1.6-0.9c1-0.5,2-1.1,3-1.4 c0.4-0.2,0.9-0.4,1.3-0.5c0.5-0.2,1.1-0.4,1.6-0.5c0.2-0.1,0.4-0.2,0.6-0.2C29.3,5.3,30,5.1,30.7,5c0.5-0.1,1-0.1,1.5-0.3 c0.3,0.1,0.5-0.1,0.8-0.1s0.5,0,0.8-0.1c0.6,0.1,1.2-0.1,1.8-0.1c0.9,0,1.8-0.1,2.8,0.1c0.4,0.1,0.9-0.1,1.4,0.1 c0.2,0.1,0.4-0.1,0.6,0c0.2,0.1,0.4,0.1,0.6,0.1c0.2,0,0.4,0.1,0.6,0.1c0.3,0,0.6,0.1,0.8,0.1C42.7,5,43,5,43.2,5.1 c0.2,0.1,0.5,0.1,0.8,0.2c0.6,0.1,1.2,0.4,1.8,0.5s1.1,0.4,1.7,0.6c0.6,0.3,1.3,0.5,2,0.8c0.9,0.5,1.8,0.9,2.7,1.5 c0.6,0.2,1.1,0.7,1.7,1C54,9.8,54,9.9,54.2,9.9c0.3-0.1,0.3,0.1,0.4,0.3c0.2,0.2,0.5,0.3,0.7,0.6c0.1,0.1,0.2,0.1,0.2-0.1 c0-0.1,0.1-0.1,0.2-0.1c0.3,0.3,0.7,0.5,1,0.8c0.3,0.4,0.6,0.7,0.9,1.1c1.1,1.1,2.2,2.2,3.2,3.4c0.3,0.4,0.5,0.7,0.8,1.1 c0.2,0.3,0.4,0.6,0.7,0.8c0.3,0.2,0.5,0.4,0.7,0.6c0.1,0.1,0.2,0.3,0.3,0.5l0,0l0,0V19c0,0-0.1,0-0.1-0.1l0,0c-0.1,0-0.1,0-0.2,0 c0.5,0.4,0.7,0.9,1,1.3c0.1,0.1,0.1,0.2,0.1,0.3c0,0.3,0.2,0.6,0.3,0.8c0.1,0.1,0.1,0.2,0.1,0.3c-0.1,0.3,0.1,0.6,0.3,0.8 c0.3,0.5,0.4,1,0.6,1.5s0.4,1,0.7,1.5c0.1,0.1,0.1,0.2,0.3,0.1c0.1-0.1,0.1-0.1,0.2,0.1c0.1,0.3,0.1,0.6,0.2,0.9 c0,0.5,0.4,0.9,0.1,1.4c0,0,0,0,0,0.1c0.2,0.4,0.3,0.8,0.4,1.1c0,0.1,0.1,0.1,0.1,0.1c0.1,0,0.1-0.1,0.1-0.1c0-0.1,0-0.2-0.1-0.3 c-0.1-0.1,0-0.1,0-0.1c0.1,0,0.1,0,0.1,0.1c0,0.2,0.1,0.4,0,0.6c-0.1,0.3-0.1,0.6,0,0.9s0,0.6,0.1,1c-0.2-0.4-0.2-0.8-0.5-1.2 c0,0.2,0,0.3,0,0.4C67,30.7,67,31,67,31.3c0,0.1,0,0.2,0,0.2c0.2,0.3,0,0.6,0.1,0.8c0.1,0.3,0.1,0.5,0.1,0.8c0,0.8,0,1.6,0,2.4 c0,0.1,0.1,0.2,0.1,0.2c0.1,0,0.2-0.1,0.2-0.2c0,0,0-0.1,0.1-0.1c0,0.4,0.1,0.7-0.1,1.1c0.1,0.5-0.1,1-0.1,1.5 c0,0.1,0,0.1-0.1,0.1s-0.1,0-0.1-0.1v-0.1c-0.1,0,0,0.1-0.1,0.1c-0.2,0.3-0.1,0.6-0.2,1s-0.1,0.8-0.3,1.2 c-0.1,0.5-0.2,1.1-0.4,1.6c-0.1,0.3-0.2,0.6-0.3,0.9c-0.1,0.3-0.2,0.6-0.3,0.9c-0.1,0.4-0.3,0.7-0.2,1.1c0,0.1,0,0.1-0.1,0.2 c-0.2,0.5-0.4,1-0.6,1.5c-0.1,0.1-0.2,0.2-0.1,0.4c0.1,0.3-0.1,0.5-0.2,0.7c-0.1,0.3-0.3,0.4-0.4,0.6c-0.1,0.3-0.2,0.6-0.5,0.8 c-0.5,0.9-1.1,1.7-1.5,2.6c-0.1,0.1-0.1,0.3-0.3,0.4c-0.3,0.4-0.7,0.8-1,1.2c-0.2,0.3-0.5,0.6-0.5,1c0,0.1-0.1,0.2-0.2,0.3 c-0.1,0.1-0.3,0.2-0.4,0.4c-0.6,0.6-1.3,1.1-1.7,1.8c-0.1,0.2-0.3,0.4-0.5,0.4c-0.1,0.1-0.3,0.2-0.1,0.4c0.1,0.1,0,0.1,0,0.2 c-0.2,0.2-0.4,0.4-0.6,0.6c-0.4,0.3-0.7,0.6-1.1,0.9c-0.2,0.1-0.4,0.3-0.6,0.3h-0.1c-0.6,0.5-1.3,0.9-1.9,1.4 c-0.2,0.1-0.4,0.4-0.7,0.4c0,0.1,0,0.1-0.1,0.1s-0.2,0-0.1-0.1c-0.1,0-0.1,0,0-0.1l0,0c0.1-0.2,0.1-0.2-0.1-0.1 c-0.5,0.3-1,0.6-1.5,0.9c-0.3,0.2-0.6,0.4-0.9,0.5c-0.1,0.1-0.1,0.1-0.3,0.1c-0.3,0-0.6,0.1-0.8,0.3c-0.6,0.3-1.1,0.5-1.7,0.7 c-0.3,0.1-0.6,0.2-0.9,0.4c-0.4,0.2-0.8,0.4-1.2,0.5c-0.1,0-0.2,0.1-0.3,0.1c0.1,0.1,0.1,0,0.2,0.1c0.4,0.1,0.8-0.1,1.3-0.1l0,0 c0,0,0.1-0.1,0.1,0c0.1-0.1,0.1,0,0.1,0c0,0.1-0.1,0.1-0.1,0.1l0,0c-0.1,0.1-0.3,0.2-0.4,0.2c-0.5,0.1-1.1,0.3-1.6,0.5 c-0.9,0.2-1.8,0.4-2.7,0.5c-0.1,0-0.1,0-0.2,0c-0.6,0.2-1.3,0.2-2,0.3c-0.3,0.1-0.6-0.1-0.9,0.1c-0.1,0.1-0.3,0.1-0.4,0 c-0.1-0.1-0.3-0.1-0.5-0.1c-0.1,0-0.2,0.1-0.2-0.1c0.2,0,0.4,0,0.5,0c0.2,0,0.4-0.1,0.5-0.2c-0.1-0.1-0.1-0.1-0.2-0.1 c-0.2,0-0.4,0-0.6,0c-0.2,0-0.4-0.1-0.6-0.1c-0.4,0-0.7,0-1.1,0c-0.2,0-0.3,0.1-0.4,0.1c-0.1,0-0.1,0.1,0,0.2c0.1,0,0.1,0,0.1,0.1 c-0.5,0.1-1.1,0-1.5-0.1c0-0.1,0.2-0.2,0-0.3c-0.1,0-0.2-0.1-0.3-0.1c-0.5-0.2-1.1-0.2-1.6-0.3c-0.6-0.1-1.1-0.2-1.7-0.2 c-0.2-0.2-0.4-0.1-0.6-0.1c-0.5-0.2-1-0.3-1.4-0.4c-0.7-0.2-1.3-0.4-2-0.7c-0.1-0.1-0.3-0.1-0.5-0.2c-0.4-0.1-0.8-0.3-1.3-0.5 c-0.2-0.1-0.4-0.2-0.6-0.4c-0.3-0.2-0.6-0.2-0.9-0.4c-0.8-0.4-1.5-0.8-2.2-1.2c-0.2-0.1-0.4-0.2-0.6-0.3c-0.3-0.1-0.5-0.2-0.7-0.4 c-0.5-0.3-0.9-0.6-1.3-1c-0.6-0.5-1.1-0.9-1.7-1.4c-0.1-0.1-0.3-0.3-0.5-0.4c-0.1-0.1-0.3-0.3-0.5-0.3c-0.3,0-0.3-0.2-0.4-0.4 c0-0.1,0-0.2-0.1-0.3c-0.4-0.3-0.7-0.8-1.1-1.1c-0.1-0.1-0.3-0.2-0.3-0.4c-0.1-0.2-0.4-0.4-0.5-0.6h-0.1l-0.1,0.1 c0,0.1,0,0.1,0.1,0.2c0.1,0.3,0.4,0.5,0.6,0.6c0.3,0.2,0.5,0.5,0.6,0.8c0.1,0.4,0.3,0.7,0.5,1c0.1,0.1,0.3,0.3,0.4,0.4 c0.1,0.1,0.1,0.1,0,0.2h-0.1c-0.2-0.2-0.4-0.3-0.6-0.5c-0.1-0.1-0.4-0.3-0.5-0.4c-0.2-0.1-0.3-0.4-0.6-0.5c-0.1,0-0.5-0.6-0.6-0.7 c-0.1-0.2-0.2-0.3-0.4-0.4c-0.3-0.3-0.6-0.5-0.8-0.9c-0.4-0.6-1-1-1.4-1.5c-0.1-0.1-0.1-0.1-0.2,0V53c0.1,0.2,0.3,0.4,0.1,0.8 c0-0.3-0.2-0.4-0.4-0.6c-0.3-0.5-0.5-0.9-0.8-1.3S8.1,51.1,8,50.7c-0.1-0.2-0.1-0.4-0.3-0.5c-0.4-0.4-0.8-0.9-1-1.5 c-0.1-0.3-0.2-0.5-0.4-0.7c-0.2-0.4-0.5-0.8-0.7-1.1c-0.2-0.4-0.4-0.8-0.6-1.2c-0.1,0.1,0,0.2-0.1,0.3c-0.1-0.1-0.1-0.1-0.1-0.1 c-0.3-0.5-0.4-1-0.6-1.5S3.7,43.5,3.6,43c-0.3-0.6-0.3-0.6-0.3-1.1c0-0.4-0.1-0.8-0.3-1.2c0-0.1-0.1-0.3-0.2-0.3 c-0.1,0.7,0,1.5,0.4,2.1c0.1,0.1,0.1,0.3,0,0.4c-0.2,0-0.1,0.2-0.2,0.4c0.3,0.2,0.1,0.6,0.4,0.9c0.1,0.1,0,0.1,0,0.1 c-0.1,0.6,0.3,1.2,0.2,1.8c0.1,0.2,0.1,0.4,0.1,0.6c0.3,0.7,0.6,1.3,0.9,2c0.1,0.1,0.2,0.2,0,0.4c-0.1,0,0,0.2,0,0.3 c0.4,0.7,0.7,1.3,1,1.9c0.2,0.5,0.6,0.8,0.8,1.3c0.2,0.4,0.5,0.8,0.8,1.2c0.5,0.7,1.1,1.3,1.5,2.1c0.1,0.3,0.4,0.5,0.6,0.8 c0.2,0.3,0.6,0.4,0.6,0.8c0.3,0.1,0.3,0.4,0.5,0.5c0.8,0.6,1.3,1.5,2,2.1c0.6,0.5,1.2,1.1,1.8,1.6s1.2,0.9,1.8,1.4 c0.7,0.5,1.4,1,2.1,1.4c0.5,0.3,1,0.6,1.5,0.9c0.2,0.1,0.4,0.2,0.6,0.2c0.3,0.1,0.6,0.2,0.8,0.4c0.3,0.3,0.7,0.6,1.1,0.7 c0.3,0.1,0.6,0.3,1,0.4s0.7,0.2,1,0.3c0.5,0.2,1.1,0.3,1.6,0.6c0.2,0,0.4,0.2,0.6,0.1s0.5,0.1,0.7,0.1c0.2,0.1,0.5,0.2,0.7,0.3 c0.1,0.1,0.5,0,0.4,0.4c0,0,0,0.1,0.1,0.1c0.4,0,0.8,0.2,1.2,0.2c0.7,0,1.4-0.1,2.1,0.1c0.5,0.1,1,0,1.5,0.1s1,0.2,1.5,0.2 c0.1,0,0.1,0,0.1,0.1s-0.1,0.1-0.1,0.1c-0.2,0-0.4,0-0.7,0c0.1,0.1,0.2,0.2,0.3,0.2c0.2,0,0.4,0.1,0.6,0.1c0.2,0,0.5,0.1,0.7,0.1 c0.7,0,1.5,0,2.2,0c0.1,0,0.3-0.1,0.4-0.1c0.1,0,0.2-0.1,0.2-0.2c0-0.2-0.1-0.1-0.2-0.1c-0.3-0.1-0.7-0.1-1-0.1 c-0.1,0-0.2,0.1-0.2-0.1c0.4-0.1,0.9,0,1.3-0.1c0.3-0.1,0.6,0,0.8,0s0.6-0.2,0.8-0.1c0.5,0.1,1-0.2,1.5-0.1h0.1 c0.3-0.2,0.6-0.1,1,0c-0.4,0-0.8,0.2-1.1,0.3c-0.4,0.1-0.8,0.1-1.3,0.3C39.7,70,39.5,70,39.3,70c-0.4,0-0.5,0-0.8,0.4 c0.6-0.1,1.2,0.1,1.8-0.1c0.4,0.1,0.8-0.1,1.2-0.1c0.1,0,0.1,0,0.1,0c0.1-0.2,0.4,0,0.6-0.1c0.2-0.1,0.4-0.1,0.6-0.1 c0.2-0.1,0.4-0.1,0.6-0.1c0.3-0.1,0.6-0.1,0.9-0.2c0.3-0.1,0.7-0.1,0.9-0.3c0.3,0,0.5-0.2,0.8-0.1c-0.1,0.1-0.1,0.1-0.2,0.2 c-0.5,0.1-1.1,0.4-1.6,0.5c-0.4,0.1-0.8,0.2-1.2,0.3c-0.2,0-0.5,0.1-0.7,0.1c-0.3-0.2-0.8-0.1-1.2-0.1c-0.5,0.1-0.9,0.2-1.4,0.1 c-0.1,0-0.1,0-0.2,0c-0.3,0.1-0.6,0.2-1,0.2c-0.3,0-0.7,0-1,0c-0.1,0-0.2,0-0.3,0c-0.3,0.2-0.6,0-0.8,0.1 c-0.3,0.1-0.5,0.1-0.8,0.1c-0.7,0-1.5,0-2.2,0s-1.5,0.1-2.2-0.1c-0.5,0.1-0.9-0.2-1.4-0.1c-0.1,0-0.1-0.1-0.2-0.1 c-0.2-0.1-0.5-0.1-0.7,0.1c0.4,0.2,0.9,0.3,1.4,0.4c0.1,0,0.3-0.1,0.4,0c0.3,0.1,0.6,0.1,0.8,0.1c0.3,0,0.5,0.1,0.8,0.1 c0.4,0,0.7-0.1,1.1,0.1c0.5-0.1,1,0.1,1.5,0.1c0.7,0,1.5,0,2.2,0c0.8,0,1.5,0.1,2.2-0.1c0.2-0.1,0.5,0,0.7,0 c0.3,0,0.4-0.1,0.7-0.1c0.2,0,0.5-0.1,0.7-0.1c0.3,0,0.6-0.2,0.9-0.1c0.3-0.2,0.6-0.1,0.9-0.2c0.5-0.2,1.1-0.2,1.7-0.4 c0.5-0.1,1-0.2,1.4-0.4c0.6-0.1,1.2-0.4,1.8-0.6c0.3-0.1,0.5-0.3,0.9-0.3l0,0l0,0h0.1c0,0,0,0.1-0.1,0.1l0,0 c0,0.2,0.1,0.1,0.2,0.1c0.3-0.1,0.6-0.3,0.9-0.4c0.6-0.3,1.1-0.5,1.6-0.9c-0.1-0.1-0.3-0.1-0.4,0c-0.2,0.1-0.5,0.1-0.7,0.2 c-0.1,0.2-0.3,0.1-0.6,0.1c0.5-0.3,1.1-0.5,1.6-0.8c0.8-0.4,1.6-0.8,2.4-1.3c0.3-0.2,0.7-0.4,1-0.6c0.3-0.3,0.7-0.3,1-0.6 c0.1-0.1,0.1,0,0.2,0c0-0.1,0.1-0.1,0.2-0.1c0-0.1,0-0.1,0-0.1c0.2-0.2,0.5-0.3,0.7-0.5h0.1c0-0.1,0.1-0.2,0.2-0.2h0.1 c0,0,0,0,0,0.1c-0.1,0.1-0.1,0.1-0.3,0.1c0,0.1,0,0.1,0,0.1c-0.2,0.2-0.5,0.3-0.7,0.5h-0.1c0,0.1-0.1,0.1-0.2,0.1 c0,0.2-0.1,0.2-0.2,0.3c-0.7,0.4-1.3,0.9-1.9,1.4c-0.1,0.1-0.1,0.1,0,0.2s0.1,0,0.1,0c0.5-0.3,1.1-0.6,1.5-0.8 c0.6-0.4,1.3-0.8,1.9-1.2c0.5-0.4,1-0.8,1.5-1.1c0.5-0.3,0.9-0.7,1.3-1.1c0.1-0.1,0.1-0.1,0-0.2c-0.1-0.1-0.1,0-0.2,0l-0.1,0.1 c0,0-0.1-0.1,0-0.1h0.1l0,0c0.2-0.4,0.6-0.5,0.8-0.8c0,0,0.1-0.1,0.1,0c0.1,0.2,0.3,0,0.4,0c0.2-0.1,0.4-0.2,0.6-0.4 c0.1-0.1,0.2-0.2,0-0.4c-0.1,0,0-0.1,0.1-0.2c0.3-0.1,0.4-0.4,0.6-0.5c0.2-0.2,0.4-0.4,0.6-0.5c0.7-0.6,1.2-1.3,1.7-1.9 c0.3-0.3,0.5-0.7,0.7-1c0.3-0.4,0.5-0.8,0.8-1.2c0.1-0.1,0.1-0.3-0.1-0.4c0,0.1,0,0.1-0.1,0.1c0,0.1,0,0.1-0.1,0.1 c0,0.1,0,0.1-0.1,0.1v-0.1c0,0,0-0.1,0.1-0.1c0,0,0,0,0.1,0c0-0.1,0-0.1,0.1-0.1c0-0.1,0-0.1,0.1-0.1c0-0.2,0.1-0.3,0.2-0.4 c0.3-0.4,0.6-0.9,1-1.3c0.3-0.6,0.7-1.1,1-1.7c0.1-0.4,0.4-0.6,0.5-0.9c0.1-0.4,0.3-0.9,0.5-1.3c0.4-0.8,0.6-1.7,0.9-2.5 c0.1-0.1,0.1-0.3,0.1-0.5c0-0.6,0-1.1,0.1-1.7c0-0.1,0.1-0.3-0.1-0.3c-0.2-0.1-0.1,0.1-0.1,0.3l-0.1,0.1C70.5,45,70.5,45,70.4,45 c-0.1-0.1,0-0.1,0-0.2c0.1-0.3,0.1-0.6,0.3-1c0.1-0.1,0-0.3,0.1-0.4c0.1-0.1,0-0.3,0-0.5c0-0.3,0-0.5,0.1-0.8s0.4-0.6,0.4-1 c0.1-0.1,0-0.3,0.1-0.4c0.1-0.1,0.1-0.3,0.1-0.4c-0.1-0.4,0.2-0.7,0.1-1.1c0.2-0.5,0.2-1,0.2-1.5c0-0.1,0-0.2,0-0.3 c0.1-0.1,0.1-0.3,0.1-0.4C72,36.8,72.2,36.7,72.2,36.5z M8,16C7.9,16,7.9,16,8,16c0-0.1,0-0.1,0.1-0.1c0,0,0.1,0,0.1,0.1 C8,16,8,16,8,16z M14.8,9.3c-0.1,0.1-0.2,0.1-0.3,0l0,0C14.6,9.3,14.6,9.1,14.8,9.3C14.8,9.2,14.8,9.3,14.8,9.3z M21.9,4.7 L21.9,4.7C21.9,4.6,21.9,4.6,21.9,4.7L21.9,4.7C21.9,4.6,21.9,4.7,21.9,4.7z M22.2,4.5c0.1-0.1,0.2-0.1,0.3,0 C22.4,4.6,22.3,4.6,22.2,4.5z M15.4,58.3c-0.1,0-0.1,0-0.1-0.1s0-0.1,0.1-0.1s0.1,0,0.1,0.1S15.5,58.3,15.4,58.3z M33.8,67.8 c-0.2,0.2-0.3,0-0.5,0c-0.1,0-0.3,0-0.4,0c-0.5,0.1-1-0.1-1.5-0.1c-0.4,0-0.7-0.2-1-0.2c-0.4,0-0.7-0.2-1-0.2 c-0.3-0.1-0.6-0.2-1-0.4c0.1-0.1,0.3,0,0.4-0.1s0.2,0.1,0.3,0.1c0.1,0,0.3-0.1,0.4,0.1c0.3,0,0.6,0.2,0.9,0.1 c0.2,0,0.4,0.1,0.6,0.1s0.4-0.1,0.6,0.1c0.1,0.1,0.2,0,0.3,0c0.2,0,0.4-0.1,0.6,0.1c0.1,0.1,0.2,0,0.3,0c0.4-0.2,0.7,0,1.1-0.1 c-0.2,0.1-0.5,0-0.7,0.1c0.3,0.2,0.7,0.1,1.1,0.4C34.2,67.8,34,67.6,33.8,67.8z M61,60.6c-0.4,0.4-0.8,0.8-1.3,1.1 c-0.7,0.5-1.4,0.9-2,1.5c-0.5,0.4-1.1,0.7-1.7,1.1c-0.3,0.2-0.6,0.3-0.8,0.5c-0.2,0.1-0.4,0.2-0.6,0.1c0.8-0.5,1.6-1,2.3-1.6 c0.6-0.5,1.2-0.9,1.8-1.5c0.2-0.2,0.4-0.4,0.6-0.5h0.1v0.1l0,0c0,0.1-0.2,0.1-0.1,0.2c0.1,0.1,0.1-0.1,0.2-0.1 c0.1-0.1,0.3-0.3,0.4-0.4c0.4-0.4,0.7-0.7,1.1-1C61.1,60.4,61.1,60.5,61,60.6z M65.9,54.9c-0.1,0.1-0.1,0.2-0.2,0.3 c-0.3,0.5-0.6,1-0.9,1.5s-0.7,0.9-1,1.3c-0.1,0.2-0.4,0.4-0.5,0.6c-0.3,0.4-0.6,0.7-0.9,1c-0.1,0.1-0.2,0.1-0.4,0.1 c0.2-0.2,0.3-0.4,0.4-0.5c0.1-0.2,0-0.1-0.1-0.2c-0.1,0-0.1-0.1,0-0.2c0.3-0.1,0.3-0.4,0.6-0.6c0.2-0.1,0.4-0.3,0.5-0.6 s0.3-0.4,0.5-0.6c0.2-0.3,0.4-0.6,0.6-0.9c0.1-0.2,0.4-0.4,0.5-0.6c0.4-0.5,0.6-1,1-1.5C66.2,54.4,66.1,54.7,65.9,54.9z"/><path class="st4" d="M49.2,69.6L49.2,69.6L49.2,69.6L49.2,69.6z"/><path class="st4" d="M6.7,43.5L6.7,43.5L6.7,43.5L6.7,43.5z"/><path class="st4" d="M62.9,18.9C62.9,18.9,62.8,18.9,62.9,18.9L62.9,18.9L62.9,18.9z"/><path class="st4" d="M52.3,61.3L52.3,61.3C52.3,61.2,52.2,61.2,52.3,61.3L52.3,61.3C52.1,61.3,52.2,61.3,52.3,61.3z"/><path class="st4" d="M45.8,64.5C45.8,64.5,45.8,64.6,45.8,64.5L45.8,64.5L45.8,64.5z"/><path class="st4" d="M11.3,53c0.1,0.2,0.3,0.3,0.3,0.4c0.1,0.2,0.3,0.2,0.4,0.4c0-0.1,0-0.2,0-0.3c-0.2-0.3-0.4-0.5-0.6-0.8 c-0.3-0.4-0.6-0.8-0.8-1.2c-0.1-0.3-0.4-0.5-0.6-0.8l0,0H9.9v0.1c0,0.1,0.1,0.1,0.1,0.1c0.3,0.6,0.6,1.1,1,1.5 C11,52.7,11.3,52.8,11.3,53z"/></g></g><g><path class="st13" d="M115,28.1c-2.2-1.4-4.7-2.1-7.5-2.1c-1.4,0-2.7,0.2-3.9,0.7c-1.3,0.5-2.4,1.1-3.4,1.8c-1,0.8-1.8,1.6-2.4,2.4 c-0.1,0.1-0.1,0.2-0.2,0.3V17c0-0.9-0.3-1.6-0.9-2.2c-0.6-0.6-1.3-0.9-2.1-0.9c-0.9,0-1.6,0.3-2.2,0.9c-0.6,0.6-0.8,1.3-0.8,2.2 v38.8c0,0.9,0.3,1.6,0.8,2.2c0.6,0.6,1.3,0.8,2.2,0.8c0.8,0,1.5-0.3,2.1-0.9c0.6-0.6,0.9-1.3,0.9-2.1v-1.5c0.6,0.7,1.3,1.4,2.2,2 c1,0.8,2.2,1.4,3.6,1.9c1.4,0.5,2.8,0.8,4.3,0.8c2.7,0,5.2-0.7,7.3-2.1c2.2-1.4,3.9-3.4,5.2-5.8c1.3-2.5,1.9-5.3,1.9-8.5 c0-3.2-0.6-6-1.9-8.5C118.9,31.5,117.2,29.5,115,28.1z M115.1,48c-0.8,1.7-1.9,3-3.3,4c-1.4,1-3,1.4-4.9,1.4c-1.9,0-3.6-0.5-5-1.4 c-1.4-1-2.5-2.3-3.3-3.9c-0.8-1.7-1.2-3.5-1.2-5.6c0-2.1,0.4-3.9,1.2-5.5c0.8-1.6,1.9-2.9,3.3-3.9c1.4-1,3.1-1.4,5-1.4 c1.9,0,3.5,0.5,4.9,1.4c1.4,1,2.5,2.2,3.3,3.9c0.8,1.6,1.2,3.5,1.2,5.5C116.4,44.4,115.9,46.3,115.1,48z"/><path class="st13" d="M130,16.1c-1.1,0-2,0.2-2.5,0.6c-0.6,0.4-0.8,1.1-0.8,2.1v1c0,1,0.3,1.7,0.8,2.1c0.5,0.4,1.4,0.6,2.5,0.6 c1.2,0,2.1-0.2,2.6-0.6c0.5-0.4,0.8-1.1,0.8-2.2v-1c0-1-0.3-1.6-0.8-2.1C132.1,16.3,131.2,16.1,130,16.1z"/><path class="st13" d="M130,26.5c-0.8,0-1.6,0.3-2.1,0.9c-0.6,0.6-0.9,1.3-0.9,2.2v25.7c0,0.9,0.3,1.6,0.9,2.2 c0.6,0.6,1.3,0.9,2.1,0.9c0.9,0,1.6-0.3,2.2-0.9c0.6-0.6,0.8-1.3,0.8-2.2V29.6c0-0.9-0.3-1.6-0.8-2.2 C131.6,26.8,130.9,26.5,130,26.5z"/><path class="st13" d="M162.1,28.2c-2.4-1.4-5.1-2.1-8.1-2.1s-5.7,0.7-8.1,2.1c-2.4,1.4-4.3,3.4-5.7,5.8c-1.4,2.5-2.1,5.3-2.1,8.5 c0,3.2,0.7,6,2.1,8.5c1.4,2.5,3.3,4.4,5.7,5.8c2.4,1.4,5.1,2.1,8.1,2.1s5.7-0.7,8.1-2.1c2.4-1.4,4.3-3.3,5.7-5.8 c1.4-2.5,2.1-5.3,2.1-8.5c0-3.2-0.7-6.1-2.1-8.5C166.4,31.5,164.5,29.6,162.1,28.2z M162.6,48.2c-0.9,1.6-2.1,2.9-3.6,3.8 c-1.5,0.9-3.2,1.4-5,1.4c-1.8,0-3.5-0.5-5-1.4c-1.5-0.9-2.7-2.2-3.6-3.8c-0.9-1.6-1.3-3.5-1.3-5.6c0-2.2,0.4-4.1,1.3-5.7 c0.9-1.6,2.1-2.9,3.6-3.8c1.5-0.9,3.2-1.4,5-1.4c1.8,0,3.5,0.5,5,1.4s2.7,2.2,3.6,3.8c0.9,1.6,1.3,3.5,1.3,5.7 C163.9,44.6,163.4,46.5,162.6,48.2z"/><path class="st13" d="M197.8,50.7c-0.8,0-1.3,0.2-1.8,0.6c-0.4,0.4-0.9,0.8-1.5,1.1c-0.6,0.3-1.2,0.5-2,0.7 c-0.8,0.2-1.7,0.3-2.9,0.3c-2,0-3.8-0.5-5.2-1.4s-2.7-2.3-3.5-3.9c-0.9-1.6-1.3-3.5-1.3-5.6c0-2.1,0.4-3.9,1.3-5.6 c0.9-1.6,2.1-2.9,3.6-3.9c1.5-1,3.4-1.4,5.5-1.4c0.7,0,1.4,0.1,2.3,0.2c0.9,0.2,1.5,0.4,1.9,0.6c0.5,0.3,0.9,0.6,1.2,0.8 c0.3,0.3,0.7,0.5,1,0.7c0.4,0.2,0.8,0.3,1.4,0.3c0.8,0,1.4-0.3,1.8-0.9c0.4-0.6,0.6-1.2,0.6-1.9c0-1.1-0.5-2-1.4-2.8 c-0.9-0.8-2.2-1.5-3.9-1.9s-3.6-0.7-5.8-0.7c-3,0-5.7,0.7-8.1,2.2c-2.4,1.4-4.2,3.4-5.5,5.9c-1.3,2.5-2,5.3-2,8.4 c0,3.1,0.6,5.9,1.9,8.4c1.3,2.5,3,4.4,5.3,5.9c2.3,1.4,5,2.2,8.1,2.2c2.1,0,4.1-0.3,5.8-0.8c1.8-0.5,3.2-1.2,4.2-2 c1.1-0.8,1.6-1.7,1.6-2.5c0-0.8-0.2-1.5-0.7-2C199.4,51,198.7,50.7,197.8,50.7z"/><path class="st13" d="M228.3,26.7c-0.9,0-1.6,0.3-2.2,0.9c-0.6,0.6-0.8,1.3-0.8,2.2v15.8c0,2.6-0.6,4.5-1.9,5.8 c-1.2,1.3-3.1,1.9-5.5,1.9c-2.4,0-4.2-0.6-5.4-1.9c-1.2-1.3-1.8-3.2-1.8-5.8V29.8c0-0.9-0.3-1.6-0.9-2.2c-0.6-0.6-1.3-0.9-2.1-0.9 c-0.9,0-1.6,0.3-2.2,0.9c-0.6,0.6-0.8,1.3-0.8,2.2v15.8c0,4.2,1.1,7.4,3.5,9.8c2.3,2.3,5.5,3.5,9.8,3.5c4.2,0,7.5-1.2,9.8-3.5 c2.3-2.3,3.5-5.6,3.5-9.8V29.8c0-0.9-0.3-1.6-0.9-2.2C229.9,27,229.2,26.7,228.3,26.7z"/><path class="st13" d="M241.7,13.9c-0.8,0-1.6,0.3-2.2,0.9c-0.6,0.6-0.9,1.3-0.9,2.2v38.3c0,0.9,0.3,1.6,0.9,2.2 c0.6,0.6,1.3,0.9,2.1,0.9s1.5-0.3,2.1-0.9c0.6-0.6,0.9-1.3,0.9-2.2V17c0-0.9-0.3-1.6-0.8-2.2C243.3,14.2,242.6,13.9,241.7,13.9z"/><path class="st13" d="M265.6,32.6c0.8,0,1.5-0.3,2-0.8c0.5-0.5,0.8-1.2,0.8-1.9c0-0.8-0.3-1.5-0.8-2s-1.2-0.8-2-0.8h-4.8v-4.7 c0-0.9-0.3-1.6-0.8-2.2c-0.6-0.6-1.3-0.9-2.2-0.9c-0.8,0-1.6,0.3-2.1,0.9c-0.6,0.6-0.9,1.3-0.9,2.2v4.7h-3.3c-0.8,0-1.5,0.3-2,0.8 c-0.5,0.5-0.8,1.2-0.8,2c0,0.8,0.3,1.4,0.8,2c0.5,0.5,1.2,0.8,2,0.8h3.3v17.8c0,1.9,0.3,3.4,0.8,4.5c0.6,1.1,1.3,1.8,2.1,2.3 c0.9,0.5,1.8,0.8,2.7,0.9s1.7,0.2,2.4,0.2c1.2,0,2.3-0.3,3.4-0.9c1-0.6,1.6-1.4,1.6-2.3c0-0.8-0.2-1.4-0.6-1.8 c-0.4-0.4-0.8-0.7-1.3-0.7c-0.5,0-0.9,0.1-1.2,0.2c-0.3,0.2-0.7,0.2-1.2,0.2s-0.9-0.1-1.3-0.2c-0.4-0.2-0.8-0.5-1-0.9 c-0.2-0.4-0.4-1-0.4-1.7V32.6H265.6z"/><path class="st13" d="M295.7,28.2c-2.4-1.4-5.1-2.1-8.1-2.1s-5.7,0.7-8.1,2.1c-2.4,1.4-4.3,3.4-5.7,5.8c-1.4,2.5-2.1,5.3-2.1,8.5 c0,3.2,0.7,6,2.1,8.5c1.4,2.5,3.3,4.4,5.7,5.8c2.4,1.4,5.1,2.1,8.1,2.1s5.7-0.7,8.1-2.1c2.4-1.4,4.3-3.3,5.7-5.8 c1.4-2.5,2.1-5.3,2.1-8.5c0-3.2-0.7-6.1-2.1-8.5C300,31.5,298.1,29.6,295.7,28.2z M296.2,48.2c-0.9,1.6-2.1,2.9-3.6,3.8 c-1.5,0.9-3.2,1.4-5,1.4c-1.8,0-3.5-0.5-5-1.4c-1.5-0.9-2.7-2.2-3.6-3.8c-0.9-1.6-1.3-3.5-1.3-5.6c0-2.2,0.4-4.1,1.3-5.7 c0.9-1.6,2.1-2.9,3.6-3.8c1.5-0.9,3.2-1.4,5-1.4c1.8,0,3.5,0.5,5,1.4s2.7,2.2,3.6,3.8c0.9,1.6,1.3,3.5,1.3,5.7 C297.5,44.6,297.1,46.5,296.2,48.2z"/><path class="st13" d="M327.4,26.9c-0.8-0.6-1.7-0.8-2.7-0.8c-1.2,0-2.4,0.2-3.6,0.6c-1.1,0.4-2.2,1-3.1,1.7 c-0.9,0.7-1.7,1.6-2.4,2.5c-0.3,0.5-0.6,1-0.9,1.5v-2.5c0-0.9-0.3-1.6-0.9-2.2c-0.6-0.6-1.3-0.9-2.1-0.9c-0.9,0-1.6,0.3-2.2,0.9 c-0.6,0.6-0.8,1.3-0.8,2.2v25.4c0,0.9,0.3,1.6,0.8,2.2c0.6,0.6,1.3,0.9,2.2,0.9c0.8,0,1.5-0.3,2.1-0.9c0.6-0.6,0.9-1.3,0.9-2.2 V40.8c0-1.4,0.2-2.7,0.6-3.9c0.4-1.2,1-2.2,1.7-3s1.5-1.5,2.4-2c0.9-0.4,1.7-0.7,2.6-0.7c0.8,0,1.4,0.1,2,0.4 c0.6,0.3,1.1,0.4,1.7,0.4c0.7,0,1.3-0.2,1.9-0.8s0.8-1.3,0.8-2.4C328.5,28.1,328.1,27.4,327.4,26.9z"/></g></svg>